<svg height="24" viewBox="0 0 24 24" width="24" xmlns="http://www.w3.org/2000/svg"><g transform="translate(4 2)"><path d="m3.60884956 1.93539823c.9238938-1.18230088 2.40884956-1.91681416 3.91327433-1.89292035 1.50353983-.02389381 2.98584071.70884955 3.91061951 1.88849557.738938.92654867 1.1292035 2.12477876 1.0681416 3.30884956-.6221239-.14070797-1.2539823-.23097345-1.8831859-.33362832-.0176991-.96106195-.5380531-1.88938053-1.32743361-2.43097345-.74424779-.52477876-1.72654868-.69911505-2.60265487-.44247788-1.26814159.33893806-2.24247788 1.55663717-2.26106195 2.87522124-.62920354.1-1.26106194.19026549-1.88230088.33274336-.06106195-1.18318584.32743363-2.37964601 1.06460177-3.30530973z" opacity=".48"/><path d="m15.0017699 6.88318584c-.0044248.6840708.0088496 1.36902655-.0097345 2.0539823-.020354 2.68672566-.9920354 5.34867256-2.6849558 7.43274336-1.2654867 1.5699115-2.92654863 2.8159292-4.78495571 3.5982301-2.64690265-1.1097345-4.88495575-3.1752212-6.17168141-5.7442478-.78230089-1.5265487-1.21592921-3.2256637-1.29292036-4.93805309-.00530973-.80176991 0-1.60442478-.00265486-2.40619469 4.79823009-1.65840708 10.14955754-1.65575221 14.94690264.00353982zm-9.32831857 3.02566372c-.06106195.74247784.39646017 1.47168144 1.06814159 1.77610624-.48495575.1761061-.9300885.478761-1.22743363.9035398-.38584071.5008849-.49380531 1.1442478-.48672566 1.7610619 1.66371681.000885 3.32654867.000885 4.98938057 0-.0088496-.4637168-.03628323-.9451327-.25132747-1.3663717-.28230089-.6115044-.82920354-1.0769911-1.46194691-1.299115.64159292-.2920354 1.09734514-.9734513 1.0681416-1.68495576.04513274-.99026548-.86283186-1.89380531-1.85221239-1.84955752-.95575222-.0380531-1.8380531.80442478-1.8460177 1.75929204z"/></g></svg>