<svg height="24" viewBox="0 0 24 24" width="24" xmlns="http://www.w3.org/2000/svg"><g transform="translate(0 5)"><path d="m3.73758239 1.18658844c1.12817671-.78146086 2.4886548-1.19250286 3.83751782-1.12675752-1.25543747.5505504-2.43562948 1.38546276-3.22141415 2.57850013-.95142566 1.41058496-1.28573765 3.19051975-1.22816731 4.89829502.11413068 2.31070814 1.345833 4.51504783 3.17141886 5.77703763.44389764.3132257.93678057.5323769 1.43521853.7258713-1.37562818.0924711-2.7749915-.2939832-3.93447839-1.0818583-1.29179768-.8675177-2.28463358-2.2230477-2.74923634-3.76619233-.41208245-1.35018477-.42218251-2.8345328-.02626016-4.19059723.44692766-1.55543851 1.42814849-2.92860743 2.71540114-3.8142987z" opacity=".32"/><path d="m9.07038023.47885766c.79782673-.31187144 1.65415407-.45416613 2.50342087-.41404544-1.3525735.54724611-2.59369331 1.4951641-3.38092942 2.7988188-.68334717 1.11588992-1.0116564 2.44415197-1.07267854 3.7643899-.20626494 2.59714551 1.06662676 5.21782848 3.09548706 6.65735858.4685088.3268498.9778672.5921813 1.5164759.7596182-1.3031506.0855908-2.62849107-.2471434-3.75059251-.956477-1.35660803-.846279-2.41163555-2.2221509-2.9093947-3.80665038-.61526461-1.92632769-.38832275-4.13350017.62232502-5.86403894.77160234-1.34431033 1.97943738-2.4029614 3.37588632-2.93897372z" opacity=".72"/><path d="m15.209659.06816288c1.5067415-.11486778 3.0471563.2751484 4.313375 1.10059359 1.7066427 1.09257956 2.8980322 2.95664318 3.1476414 4.9692335.2538851 1.85818666-.2870239 3.807199-1.4655855 5.26682123-1.022489 1.2929303-2.5158681 2.2043928-4.1364571 2.5148029-1.1769581.2308041-2.4127107.1501295-3.5501161-.2308041-1.1112152-.369714-2.1256868-1.0252617-2.919412-1.8865029-1.12938801-1.2090502-1.80552424-2.83055576-1.86111172-4.48465176-.06360491-1.52694005.39445734-3.06937388 1.28439162-4.31261723 1.180165-1.68294651 3.1337444-2.79529401 5.1872744-2.93687523z"/></g></svg>