<svg height="24" viewBox="0 0 24 24" width="24" xmlns="http://www.w3.org/2000/svg"><g transform="translate(2 1.5)"><path d="m15.225 11.55c2.6095454 0 4.725 2.1154546 4.725 4.725s-2.1154546 4.725-4.725 4.725-4.725-2.1154546-4.725-4.725 2.1154546-4.725 4.725-4.725zm-6.32252251-10.43233008c.49481727-.30238833 1.14108011-.14639386 1.44346841.34842341l3.9027903 6.38638416c.1007468.16485831.1540541.35431752.1540541.54752251 0 .57989899-.470101 1.05-1.05 1.05h-7.80558062c-.19320499 0-.3826642-.05330733-.54752251-.15405407-.49481727-.30238834-.65081175-.94865117-.34842341-1.44346844l3.90279031-6.38638416c.08685979-.14213419.20628923-.26156363.34842342-.34842341z"/><path d="m1.5 12.075h5.4c.82842712 0 1.5.6715729 1.5 1.5v5.4c0 .8284271-.67157288 1.5-1.5 1.5h-5.4c-.82842712 0-1.5-.6715729-1.5-1.5v-5.4c0-.8284271.67157288-1.5 1.5-1.5z" opacity=".48"/></g></svg>