<?xml version="1.0" standalone="no"?>
<!DOCTYPE svg PUBLIC "-//W3C//DTD SVG 20010904//EN"
 "http://www.w3.org/TR/2001/REC-SVG-20010904/DTD/svg10.dtd">
<svg version="1.0" xmlns="http://www.w3.org/2000/svg"
 width="48.000000pt" height="48.000000pt" viewBox="0 0 48.000000 48.000000"
 preserveAspectRatio="xMidYMid meet">

<g transform="translate(0.000000,48.000000) scale(0.100000,-0.100000)"
fill="#000000" stroke="none">
<path d="M32 378 c-16 -16 -16 -200 0 -216 8 -8 50 -12 123 -12 l112 0 -5 -30
c-3 -23 3 -36 26 -60 47 -46 75 -41 138 27 52 57 69 102 44 118 -5 3 -10 41
-10 84 0 46 -5 82 -12 89 -17 17 -399 17 -416 0z m351 -39 c3 -11 15 -23 26
-26 29 -7 31 -73 2 -73 -10 0 -29 -8 -42 -18 -45 -33 -80 -42 -173 -42 -86 0
-94 2 -99 21 -3 11 -15 23 -26 26 -30 8 -30 78 0 86 11 3 23 15 26 26 5 20 12
21 143 21 131 0 138 -1 143 -21z m55 -141 c15 -15 16 -45 2 -53 -11 -7 -61 46
-53 57 7 12 38 9 51 -4z m-56 -45 c34 -31 11 -93 -35 -93 -27 0 -57 28 -57 53
0 48 56 73 92 40z"/>
<path d="M207 312 c-33 -36 -10 -102 35 -102 42 0 63 73 30 103 -24 22 -45 21
-65 -1z m48 -42 c0 -13 -6 -25 -12 -27 -16 -6 -27 21 -19 43 9 23 31 11 31
-16z"/>
<path d="M114 279 c-10 -17 13 -36 27 -22 12 12 4 33 -11 33 -5 0 -12 -5 -16
-11z"/>
<path d="M334 279 c-10 -17 13 -36 27 -22 12 12 4 33 -11 33 -5 0 -12 -5 -16
-11z"/>
</g>
</svg>
