<svg height="24" viewBox="0 0 24 24" width="24" xmlns="http://www.w3.org/2000/svg"><g transform="translate(2.5 1.5)"><path d="m7.29171754 17.25c-1.95251465 0-3.54171754-1.5892029-3.54171754-3.5417175v-8.54156496h-1.45828246c-1.26419067 0-2.29171754 1.02737426-2.29171754 2.29156492v11.25000004c0 1.2641906 1.02752687 2.2917175 2.29171754 2.2917175h10.41656496c1.2641906 0 2.2917175-1.0275269 2.2917175-2.2917175v-1.4582825z" opacity=".48"/><path d="m18.3332825 2.44449871c0-1.35026042-1.0258484-2.44449871-2.291565-2.44449871h-8.74999996c-1.26586914 0-2.29171754 1.09423829-2.29171754 2.44449871v11.11100259c0 1.3502604 1.0258484 2.4444987 2.29171754 2.4444987h8.74999996c1.2657166 0 2.291565-1.0942383 2.291565-2.4444987z"/></g></svg>