<svg height="24" viewBox="0 0 24 24" width="24" xmlns="http://www.w3.org/2000/svg"><g transform="translate(2 1.5)"><path d="m17.3913043 0c1.2006191 0 2.1739131.97329402 2.1739131 2.17391304v11.30434786c0 1.200619-.973294 2.173913-2.1739131 2.173913h-14.78260865c-1.20061902 0-2.17391304-.973294-2.17391304-2.173913v-11.30434786c0-1.20061902.97329402-2.17391304 2.17391304-2.17391304zm-3.3130434 5.50486963c-.3313709 0-.6.26862915-.6.6v3.44243465c0 .14533389.0527509.28572787.148454.39510277.2182092.24938195.5972668.27465245.8466487.05644325l1.9671055-1.72121733c.0200465-.01754065.0389026-.03639679.0564433-.05644325.2182092-.24938198.1929387-.62843955-.0564433-.84664878l-1.9671055-1.72121733c-.1093749-.09570303-.2497688-.14845398-.3951027-.14845398zm-8.15652177 0c-.14533389 0-.28572787.05275095-.39510276.14845398l-1.96710552 1.72121733c-.24938198.21820923-.27465248.5972668-.05644325.84664878.01754065.02004646.03639679.0389026.05644325.05644325l1.96710552 1.72121733c.24938197.2182092.62843955.1929387.84664878-.05644325.09570303-.1093749.14845398-.24976888.14845398-.39510277v-3.44243465c0-.33137085-.26862915-.6-.6-.6z"/><path d="m5.2 17.6521739c.8836556 0 1.6.7163444 1.6 1.6s-.7163444 1.6-1.6 1.6-1.6-.7163444-1.6-1.6.7163444-1.6 1.6-1.6zm4.8 0c.8836556 0 1.6.7163444 1.6 1.6s-.7163444 1.6-1.6 1.6-1.6-.7163444-1.6-1.6.7163444-1.6 1.6-1.6zm4.8 0c.8836556 0 1.6.7163444 1.6 1.6s-.7163444 1.6-1.6 1.6-1.6-.7163444-1.6-1.6.7163444-1.6 1.6-1.6z" opacity=".48"/></g></svg>