<svg height="24" viewBox="0 0 24 24" width="24" xmlns="http://www.w3.org/2000/svg"><g transform="translate(3 2)"><path d="m11.9047619 8.88571429h6.352381c.4365679 0 .7904761-.35390825.7904761-.79047619 0-3.94489107-3.197966-7.14285715-7.1428571-7.14285715-.4365679 0-.7904762.35390825-.7904762.79047619v6.35238096c0 .43656794.3539083.79047619.7904762.79047619z" opacity=".48"/><path d="m18.1714286 10.4761905h-7.7619048c-.2298543 0-.45029434-.0913093-.61282587-.2538408s-.25384079-.3829716-.25384079-.61282589v-7.78095238c.00148093-.24986307-.10378606-.48847215-.28933007-.65582557s-.43371196-.2475288-.6820985-.22036491c-4.9714794.52789096-8.68852302 4.81001278-8.51226727 9.80633245.17625575 4.9963197 4.18580563 9.0058696 9.1821253 9.1821253 4.9963197.1762558 9.2784415-3.5407879 9.8063324-8.5122673.021411-.245273-.06136-.4882368-.2280552-.6694272-.1666952-.1811905-.4019312-.2838865-.6481352-.2829537z"/></g></svg>