<?xml version="1.0" standalone="no"?>
<!DOCTYPE svg PUBLIC "-//W3C//DTD SVG 20010904//EN"
 "http://www.w3.org/TR/2001/REC-SVG-20010904/DTD/svg10.dtd">
<svg version="1.0" xmlns="http://www.w3.org/2000/svg"
 width="24.000000pt" height="24.000000pt" viewBox="0 0 24.000000 24.000000"
 preserveAspectRatio="xMidYMid meet">

<g transform="translate(0.000000,24.000000) scale(0.100000,-0.100000)"
fill="#000000" stroke="none">
<path d="M192 228 c-18 -18 -15 -36 8 -50 11 -7 20 -17 20 -21 0 -5 -9 -5 -20
-2 -24 7 -26 -7 -5 -25 12 -10 18 -10 30 0 21 17 19 37 -5 52 -11 7 -20 17
-20 21 0 5 9 5 20 2 22 -7 26 5 8 23 -15 15 -21 15 -36 0z"/>
<path d="M20 130 c0 -40 -4 -70 -10 -70 -5 0 -10 -4 -10 -10 0 -6 47 -10 120
-10 73 0 120 4 120 10 0 6 -4 10 -10 10 -5 0 -10 9 -10 20 0 11 -4 20 -10 20
-5 0 -10 -4 -10 -10 0 -6 -33 -10 -80 -10 l-80 0 0 50 0 50 60 0 c33 0 60 4
60 10 0 6 -30 10 -70 10 l-70 0 0 -70z"/>
</g>
</svg>
