<svg height="24" viewBox="0 0 24 24" width="24" xmlns="http://www.w3.org/2000/svg"><g transform="translate(2 2)"><path d="m1.24 5.29 8.52 4.63c.15.08.33.08.48 0l8.52-4.63c.1589429-.07849054.255262-.24469564.2443403-.42162595-.0109216-.17693031-.1269506-.3300275-.2943403-.38837405l-8.52-3.48c-.1217307-.05000901-.25826932-.05000901-.38 0l-8.52 3.48c-.16738965.05834655-.28341872.21144374-.29434035.38837405-.01092162.17693031.08539743.34313541.24434035.42162595z"/><path d="m18.71 8.66-1.83-.78-6.64 3.61c-.15.08-.33.08-.48 0l-6.64-3.61-1.83.78c-.15795725.08291942-.25689688.24660123-.25689688.425s.09893963.34208058.25689688.425l8.52 4.9c.14731686.0900956.3326831.0900956.48 0l8.52-4.9c.1504272-.10011238.2318861-.27622145.2107734-.45567922s-.1412191-.33185328-.3107734-.39432078z"/><path d="m18.71 13.1-1.56-.68-6.91 3.76c-.15.08-.33.08-.48 0l-6.91-3.76-1.56.68c-.16246416.0842404-.26444513.2519944-.26444513.435s.10198097.3507596.26444513.435l8.52 5c.15.08.33.08.48 0l8.52-5c.1549803-.1015235.2394467-.2817773.2182903-.465838-.0211564-.1840606-.1443173-.3404492-.3182903-.404162z"/></g></svg>