<svg height="24" viewBox="0 0 24 24" width="24" xmlns="http://www.w3.org/2000/svg"><g transform="translate(2 2)"><path d="m.5859375 3.515625c.32359375 0 .5859375-.26234375.5859375-.5859375v-1.7578125h1.7578125c.32359375 0 .5859375-.26234375.5859375-.5859375s-.26234375-.5859375-.5859375-.5859375h-2.34375c-.32359375 0-.5859375.26234375-.5859375.5859375v2.34375c0 .32359375.26234375.5859375.5859375.5859375zm2.34375 15.3125h-1.7578125v-1.7578125c0-.3235938-.26234375-.5859375-.5859375-.5859375s-.5859375.2623437-.5859375.5859375v2.34375c0 .3235938.26234375.5859375.5859375.5859375h2.34375c.32359375 0 .5859375-.2623437.5859375-.5859375s-.26234375-.5859375-.5859375-.5859375zm16.484375-2.34375c-.3235938 0-.5859375.2623437-.5859375.5859375v1.7578125h-1.7578125c-.3235938 0-.5859375.2623437-.5859375.5859375s.2623437.5859375.5859375.5859375h2.34375c.3235938 0 .5859375-.2623437.5859375-.5859375v-2.34375c0-.3235938-.2623437-.5859375-.5859375-.5859375zm0-16.484375h-2.34375c-.3235938 0-.5859375.26234375-.5859375.5859375s.2623437.5859375.5859375.5859375h1.7578125v1.7578125c0 .32359375.2623437.5859375.5859375.5859375s.5859375-.26234375.5859375-.5859375v-2.34375c0-.32359375-.2623437-.5859375-.5859375-.5859375z" opacity=".48"/><path d="m16.3620555 8.36255234v-3.8172333c0-.30116153-.2441575-.54531904-.5453191-.54531904h-11.63347285c-.30116153 0-.54531904.24415751-.54531904.54531904v3.8172333c0 .30116153.24415751.54531904.54531904.54531904s.54531904-.24415751.54531904-.54531904v-.54531905c0-.30065256.24463013-.54531904.54531905-.54531904h3.09014123v7.63744765h-.54531904c-.30116153 0-.54531904.2441575-.54531904.5453191 0 .3011615.24415751.545319.54531904.545319h4.36255237c.3011615 0 .545319-.2441575.545319-.545319 0-.3011616-.2441575-.5453191-.545319-.5453191h-.5453191v-7.63744765h3.0901413c.3006889 0 .545319.24466648.545319.54531904v.54531905c0 .30116153.2441575.54531904.545319.54531904.3011616 0 .5453191-.24415751.5453191-.54531904z"/></g></svg>