<svg height="24" viewBox="0 0 24 24" width="24" xmlns="http://www.w3.org/2000/svg"><path d="m21.7125809 7.2985c.2439577-.23766867.2670018-.62194088.0531954-.88706085-.2138064-.26511996-.5942382-.32400841-.8781954-.13593915-1.2298604.9730226-2.6873826 1.61660385-4.235 1.87v-.528c-.0128815-.79179455-.2703081-1.56023197-.737-2.2 1.2170082-1.26122443 1.8989306-2.9443507 1.903-4.697 0-.3675455-.2979545-.6655-.6655-.6655s-.6655.2979545-.6655.6655c-.0279737 1.38555501-.577972 2.70947946-1.54 3.707l-.11-.077c-.1523259-2.01364343-1.8306033-3.56975955-3.85-3.56975955-2.01939675 0-3.69767423 1.55611612-3.85000005 3.56975955l-.11.077c-.9749118-1.01132708-1.52591599-2.3573516-1.54-3.762 0-.3675455-.2979545-.6655-.6655-.6655s-.6655.2979545-.6655.6655c.0040694 1.7526493.68599175 3.43577557 1.903 4.697-.46669198.63976803-.72411852 1.40820545-.737 2.2v.528c-1.54087259-.22886828-2.99822039-.84587528-4.235-1.793-.18274135-.15130199-.43231997-.19361944-.654722-.11101178-.22240204.08260767-.38383933.27759037-.42350001.51150001-.03966068.23390965.04848065.4712098.23122201.62251177 1.46216801 1.16834508 3.20831667 1.92754015 5.06 2.2v1.925c-1.77040594 1.5947292-2.78174713 3.8652501-2.783 6.248 0 .3675455.2979545.6655.6655.6655s.6655-.2979545.6655-.6655c.00527215-1.5585192.52756455-3.0712328 1.485-4.301.11519881 2.8426157 2.34381657 5.1469402 5.18100005 5.357v-14.619c-.0283286-.18413892.0540736-.36775511.2104721-.46899324.1563985-.10123812.3576572-.10123812.5140557 0 .1563985.10123813.2388007.28485432.2104722.46899324v14.619c2.8242311-.2259473 5.0345648-2.5260167 5.148-5.357.9574354 1.2297672 1.4797278 2.7424808 1.485 4.301-.0000001.2377603.1268435.4574598.3327499.5763399.2059065.1188802.4595936.1188802.6655001 0 .2059064-.1188801.33275-.3385796.33275-.5763399-.0012529-2.3827499-1.0125941-4.6532708-2.783-6.248v-1.936c1.8599017-.27397231 3.6136779-1.03697886 5.082-2.211z" transform="translate(1 3)"/></svg>