<svg height="496pt" viewBox="0 0 496 496" width="496pt" xmlns="http://www.w3.org/2000/svg"><path d="m112 176h-64v-72h24v-16h-40v104h96v-48h-16zm0 0"/><path d="m80 132.6875-10.34375-10.34375-11.3125 11.3125 21.65625 21.65625 61.65625-61.65625-11.3125-11.3125zm0 0"/><path d="m328 384c-22.054688 0-40 17.945312-40 40s17.945312 40 40 40 40-17.945312 40-40-17.945312-40-40-40zm0 64c-13.230469 0-24-10.769531-24-24s10.769531-24 24-24 24 10.769531 24 24-10.769531 24-24 24zm0 0"/><path d="m473.3125 48.105469-87.402344-17.480469-36.175781 160.765625-173.734375-34.75v-156.640625h-123.3125l-52.6875 52.6875v171.3125h88.160156l-22.703125 104.457031c-9.953125 1.824219-18.128906 9.269531-20.664062 19.382813l-4.058594 16.222656c-.488281 1.960938-.734375 3.976562-.734375 6 0 11.9375 8.511719 22.167969 20.246094 24.34375l196.097656 36.3125c3.398438 36.5625 34.222656 65.28125 71.65625 65.28125 39.695312 0 72-32.296875 72-72 0-11.617188-2.832031-22.558594-7.734375-32.28125l40.167969-176.75-25.625-50.847656 15.605468-68.28125 38.050782 7.609375c1.824218.367187 3.6875.550781 5.535156.550781h1.777344c15.558594 0 28.222656-12.664062 28.222656-28.222656 0-13.410156-9.542969-25.042969-22.6875-27.671875zm-260.511719 132.214843 24.261719 4.855469-10.726562 37.535157-24.265626-4.855469zm40 8 24.261719 4.855469-10.726562 37.535157-24.265626-4.855469zm-204.800781-161.007812v20.6875h-20.6875zm-32 36.6875h48v-48h96v192h-144zm160 160v-51.039062l21.0625 4.214843-15.132812 52.976563 95.734374 19.152344 15.136719-52.984376 53.421875 10.6875-32.964844 146.527344c-12.195312 2.554688-23.226562 8.226563-32.3125 16.097656l-199.402343-39.878906 22.992187-105.753906zm-120 146.0625c0-.71875.089844-1.429688.265625-2.125l4.054687-16.21875c1.304688-5.191406 6.695313-8.558594 11.878907-7.519531l196.34375 39.273437c-6.207031 9.070313-10.335938 19.648438-11.839844 31.046875l-193.542969-35.839843c-4.152344-.777344-7.160156-4.398438-7.160156-8.617188zm272 109.9375c-30.878906 0-56-25.128906-56-56s25.121094-56 56-56 56 25.128906 56 56-25.121094 56-56 56zm33.921875-119.480469 10.484375-45.878906 20.066406 4.007813-12.617187 55.519531c-5.222657-5.425781-11.253907-10.054688-17.933594-13.648438zm27.269531-119.328125 19.96875 3.992188-13.152344 57.855468-20.039062-4.007812zm26.367188-24.160156-2.855469 12.554688-19.949219-3.992188 8.460938-37.019531zm-68.703125 137.5625c-5.40625-1.472656-11.046875-2.328125-16.878907-2.488281l59.152344-262.921875 17.582032 3.519531zm120.921875-266.59375h-1.777344c-.808594 0-1.609375-.078125-2.398438-.238281l-70.960937-14.195313 5.4375-24.191406 72.082031 14.417969c5.703125 1.144531 9.839844 6.183593 9.839844 11.984375 0 6.734375-5.488281 12.222656-12.222656 12.222656zm0 0"/></svg>