<svg height="24" viewBox="0 0 24 24" width="24" xmlns="http://www.w3.org/2000/svg"><g transform="translate(1 1)"><path d="m20.2258065 7.80645161c.9793737.00117314 1.7730204.79481985 1.7741935 1.77419355v7.80645164c-.0011731.9793737-.7948198 1.7730204-1.7741935 1.7741935h-.3548388v1.5375162c-.0002405.1305391-.072136.2504049-.1871862.3120813-.1150501.0616763-.2546741.0552024-.3635234-.0168555l-2.7492904-1.832742h-4.8612903c-.9793737-.0011731-1.77302039-.7948198-1.77419353-1.7741935v-7.80645164c.00117314-.9793737.79481983-1.77302041 1.77419353-1.77419355zm-3.5718065 2.81990319h-1.3792581l-1.8774516 5.3413871h1.2153226l.3857097-1.2660645h1.9388387l.3860645 1.2660645h1.2149677zm-.684129.8260646c.0184516.0870537.0502688.2058064.0954516.356258s.246258.7994516.6032258 1.947h-1.3867097c.3782581-1.2249032.6076022-1.9926559.6880323-2.303258z"/><path d="m10.2903226 0c.9793737.00117314 1.7730204.79481985 1.7741935 1.77419355v5.32258064h-.3548387c-1.3710746.00175942-2.48211153 1.11279635-2.48387095 2.48387097v1.77419354h-3.79677419l-2.74822581 1.8327419c-.10888533.072647-.24892238.0794491-.36433598.0176973-.1154136-.0617519-.1874578-.1820277-.18743821-.3129231v-1.5375161h-.35483871c-.9793737-.0011731-1.77302041-.7948198-1.77419355-1.77419354v-7.80645161c.00117314-.9793737.79481985-1.77302041 1.77419355-1.77419355zm-3.89329034 2.78796774h-1.10496774c.02625869.14338129.03897061.28891492.03796774.43467742v.40877419h-1.52048387c-.29232889.00358878-.58459154-.01134435-.87503226-.04470967v.99c.25548387-.02519355.54290322-.03796774.84948387-.03796774h.12774194c.11712709.41407675.28230399.81302599.49216129 1.18870967.22252407.40355617.49284737.77883973.80512903 1.11774194-.71872575.47481691-1.52430559.80271685-2.37032258.96480645.23070892.28753805.41201847.61142501.53651613.95841935.92574717-.25093844 1.79522126-.675921 2.56193548-1.2522258.74275467.57150368 1.58876443.99438808 2.49167742 1.24548387.1279533-.36583217.31783606-.706949.56135484-1.00845161-.82955884-.13128997-1.62080106-.44083807-2.31922581-.90732258.28747792-.31969327.53419946-.67380424.73451613-1.05422581.2078437-.39544839.36292944-.81644654.46129032-1.25222581h.14690323c.28161354-.00170991.56313068.0109625.84345161.03796774v-.99070967c-.29269832.03335537-.58720317.04828801-.88177419.04470967h-1.61629032v-.41516129c-.00103421-.14364768.01167965-.28706474.03796774-.42829032zm.40274193 1.75041936c-.08047807.34033057-.20954451.66729888-.3832258.97083871-.13790452.25678583-.30754665.49521468-.50493549.70967742-.20629731-.21665197-.38648413-.45674228-.53687096-.71535484-.18558391-.30078891-.32953959-.6253457-.42793549-.96480645z" opacity=".48"/></g></svg>