<svg height="24" viewBox="0 0 24 24" width="24" xmlns="http://www.w3.org/2000/svg"><g transform="translate(2 2)"><path d="m15.625 0c-2.4125 0-4.375 1.9625-4.375 4.375 0 2.245 3.51 6.22125 3.91 6.6675.11875.13125.2875.2075.465.2075s.34625-.07625.465-.2075c.4-.44625 3.91-4.4225 3.91-6.6675 0-2.4125-1.9625-4.375-4.375-4.375zm0 6.25c-1.035 0-1.875-.84-1.875-1.875s.84-1.875 1.875-1.875 1.875.84 1.875 1.875-.84 1.875-1.875 1.875z" opacity=".48"/><path d="m5.25 5.4769159c.55228475 0 1 .44771525 1 1v10.6436094c0 .4088755-.24891594.7765642-.62853511.928447l-4.76396489 1.9060277c-.075.03-.15375.045-.2325.045-.12375 0-.245-.0375-.35-.1075-.17125-.11625-.275-.31-.275-.5175v-11.45125c0-.25625.15625-.48625.3925-.58125l4.48617765-1.79408812c.11810077-.04723022.24412767-.07149598.37132235-.07149598zm14.75 2.4118341v9.18875c0 .255-.155.48625-.3925.58l-4.4861777 1.7940881c-.1181007.0472302-.2441276.071496-.3713223.071496-.5522847 0-1-.4477153-1-1v-7.1943341c.18875.22125.3525.4075.48.54875.355.395.86375.6225 1.395.6225s1.04-.2275 1.395-.6225c.5875-.655 1.95625-2.255 2.98-3.98875zm-12.42847669-1.78310771c.20511341-.51278352.78708385-.76219943 1.29986737-.55708602l1.52235932.60894373c.47375 1.23 1.3075 2.52625 2.10625 3.6025v8.560467c0 .1272195-.0242752.2532704-.0715233.3713907-.2051134.5127835-.7870839.7621994-1.2998674.557086l-2.99999998-1.2c-.37965838-.1518633-.62860932-.5195721-.62860932-.9284767v-10.64343404c0-.12721943.0242752-.2532704.07152331-.37139067z"/></g></svg>