<?xml version="1.0" standalone="no"?>
<!DOCTYPE svg PUBLIC "-//W3C//DTD SVG 20010904//EN"
 "http://www.w3.org/TR/2001/REC-SVG-20010904/DTD/svg10.dtd">
<svg version="1.0" xmlns="http://www.w3.org/2000/svg"
 width="50.000000pt" height="50.000000pt" viewBox="0 0 50.000000 50.000000"
 preserveAspectRatio="xMidYMid meet">

<g transform="translate(0.000000,50.000000) scale(0.100000,-0.100000)"
fill="#000000" stroke="none">
<path d="M275 460 c-31 -33 -27 -54 5 -25 20 18 20 18 20 -33 l0 -52 -69 0
-69 0 -12 50 c-16 67 -31 80 -90 80 -50 0 -71 -13 -52 -32 8 -8 15 -8 26 1 8
7 30 11 48 9 l33 -3 46 -181 c25 -100 50 -188 55 -195 4 -7 8 -24 8 -38 2 -51
67 -53 74 -2 4 27 52 31 52 3 0 -38 46 -56 70 -27 7 8 10 25 6 40 -6 24 -9 25
-94 25 -91 0 -112 8 -112 42 0 16 10 18 93 18 l93 0 33 92 c19 51 36 99 39
106 3 9 -16 12 -77 12 l-81 0 0 52 c0 51 0 51 20 33 32 -29 36 -8 5 25 -16 17
-32 30 -35 30 -3 0 -19 -13 -35 -30z m45 -165 c0 -30 -4 -55 -10 -55 -5 0 -10
25 -10 55 0 30 5 55 10 55 6 0 10 -25 10 -55z m-44 -246 c10 -17 -13 -36 -27
-22 -12 12 -4 33 11 33 5 0 12 -5 16 -11z m130 0 c10 -17 -13 -36 -27 -22 -12
12 -4 33 11 33 5 0 12 -5 16 -11z"/>
</g>
</svg>
