<?xml version="1.0" standalone="no"?>
<!DOCTYPE svg PUBLIC "-//W3C//DTD SVG 20010904//EN"
 "http://www.w3.org/TR/2001/REC-SVG-20010904/DTD/svg10.dtd">
<svg version="1.0" xmlns="http://www.w3.org/2000/svg"
 width="64.000000pt" height="64.000000pt" viewBox="0 0 64.000000 64.000000"
 preserveAspectRatio="xMidYMid meet">

<g transform="translate(0.000000,64.000000) scale(0.100000,-0.100000)"
fill="#000000" stroke="none">
<path d="M20 320 l0 -300 300 0 c193 0 300 4 300 10 0 6 -11 10 -25 10 -25 0
-25 1 -25 80 l0 80 -110 0 -110 0 0 -80 c0 -79 0 -80 -25 -80 -25 0 -25 1 -25
80 l0 80 -110 0 -110 0 0 -80 c0 -73 -2 -80 -20 -80 -19 0 -20 7 -20 90 l0 90
290 0 c187 0 290 4 290 10 0 6 -11 10 -25 10 -25 0 -25 1 -25 80 l0 80 -110 0
-110 0 0 -80 c0 -79 0 -80 -25 -80 -25 0 -25 1 -25 80 l0 80 -110 0 -110 0 0
-80 c0 -73 -2 -80 -20 -80 -19 0 -20 7 -20 90 l0 90 290 0 c187 0 290 4 290
10 0 6 -11 10 -25 10 -25 0 -25 1 -25 80 l0 80 -110 0 -110 0 0 -80 c0 -79 0
-80 -25 -80 -25 0 -25 1 -25 80 l0 80 -110 0 -110 0 0 -80 c0 -73 -2 -80 -20
-80 -19 0 -20 7 -20 90 0 53 -4 90 -10 90 -6 0 -10 -107 -10 -300z m200 230
c0 -27 -3 -30 -30 -30 -27 0 -30 3 -30 30 0 27 3 30 30 30 27 0 30 -3 30 -30z
m270 0 c0 -27 -3 -30 -30 -30 -27 0 -30 3 -30 30 0 27 3 30 30 30 27 0 30 -3
30 -30z m-270 -200 c0 -27 -3 -30 -30 -30 -27 0 -30 3 -30 30 0 27 3 30 30 30
27 0 30 -3 30 -30z m270 0 c0 -27 -3 -30 -30 -30 -27 0 -30 3 -30 30 0 27 3
30 30 30 27 0 30 -3 30 -30z m-270 -200 c0 -27 -3 -30 -30 -30 -27 0 -30 3
-30 30 0 27 3 30 30 30 27 0 30 -3 30 -30z m270 0 c0 -27 -3 -30 -30 -30 -27
0 -30 3 -30 30 0 27 3 30 30 30 27 0 30 -3 30 -30z"/>
</g>
</svg>
