<svg height="24" viewBox="0 0 24 24" width="24" xmlns="http://www.w3.org/2000/svg"><path d="m15.74 5.33-4.44-5c-.1890592-.20947944-.4578218-.32933304-.74-.3301802h-8c-.67101162-.00782364-1.31771496.25108308-1.79781843.71993413-.48010348.46885105-.75427208 1.10923333-.76218157 1.78024607v15c.00790949.6710127.28207809 1.311395.76218157 1.7802461.48010347.468851 1.12680681.7277577 1.79781843.7199341h10.88c.6710116.0078236 1.317715-.2510831 1.7978184-.7199341.4801035-.4688511.7542721-1.1092334.7621816-1.7802461v-11.5c-.000647-.24783583-.0933024-.4866017-.26-.67zm-5.1862567-2.73776121 2.6827125 2.86921125c.1207018.12909285.1138995.33159142-.0151933.45229323-.0592772.05542421-.1373981.08625673-.21855.08625673h-2.2627125c-.2115386-.0127711-.409076-.1099982-.5482289-.26983602-.1391529-.15983783-.20825173-.36888204-.1917711-.58016398v-2.33921125c0-.17673112.1432689-.32.32-.32.0885991 0 .1732329.03673305.2337433.10145004z" transform="translate(4 2)"/></svg>