<svg height="24" viewBox="0 0 24 24" width="24" xmlns="http://www.w3.org/2000/svg"><g transform="translate(1 3)"><path d="m14.634552 9.5157318-2.4649963-2.51535032c-.001175-.00117494-.002182-.002182-.003357-.00335693-.002182-.00234988-.0045318-.00469971-.0068817-.00704959-.0016785-.0015106-.0031891-.00318909-.0046997-.0046997-.002182-.002182-.004364-.00419616-.006546-.00637815-.0013428-.00117494-.0025177-.00234988-.0036927-.00352477-.2281036-.22004701-.5382842-.35549929-.8801879-.35549929-.350296 0-.6671906.14199831-.896637.37161257l-2.53515624 2.53515625c-.49497985.49497983-.49497985 1.29762263 0 1.79277033.24757386.2475739.57202149.3712769.89646911.3712769.32427978 0 .64872745-.123703.89630127-.3712769l.28550723-.2855072c.03172301-.031723.08576962-.0092315.08576962.0355835v4.9576874c0 .7106628.58158881 1.309372 1.29208381 1.2959442.6888427-.013092 1.2432403-.5755462 1.2432403-1.2674103v-4.9402313c0-.0449829.054718-.0673065.0862732-.0352478l.2254181.2301178c.2482452.2532807.5767212.3803406.905365.3803406s.6574554-.1268921.9065399-.3816834c.4855804-.4961548.4651031-1.2976226-.020813-1.7932739z" opacity=".48"/><path d="m18.4748841 5.59164427c-.2009126-3.11708066-2.8000184-5.59164427-5.9662781-5.59164427-.5731965 0-1.141861.08157351-1.6902161.24237061-1.43273924.42079163-2.65869139 1.37197873-3.42726135 2.64375306-.44512939-.22155762-.93490603-.33720401-1.44046023-.33720401-1.63348388 0-2.9913635 1.20463565-3.21107484 2.7922974-.77259823.36087034-1.43055721.92047115-1.91462704 1.63130185-.53962708.79273988-.82496644 1.71791078-.82496644 2.67547607 0 2.58634952 2.02439879 4.67369082 4.60890199 4.75190732l4.31433105.0005036v-1.643219c-.06411745.0052032-.12873841.0077209-.19352725.0077209-.62556454 0-1.21369931-.2435455-1.65597532-.6859893-.91308594-.9129181-.91308594-2.39869695 0-3.31178289l2.53515625-2.53515625c.44210818-.44244385 1.03041078-.68615723 1.65614318-.68615723.6099548 0 1.1875153.23313907 1.6262665.65678405.0008392.00083927.0070496.00671387.0134277.01309206l2.4978943 2.54824831c.8957977.91392516.9055328 2.39282225.0216522 3.29634095-.4446258.4545288-1.0393066.7046203-1.6744384.7046203-.0478364 0-.0955048-.0013427-.1428376-.0041962v1.6398621l4.0999909-.0008392c2.407257-.0861053 4.2930145-2.0413513 4.2930145-4.45129394 0-2.11839297-1.489975-3.92610169-3.5251159-4.35679629z"/></g></svg>