<?xml version="1.0" encoding="iso-8859-1"?>
<!-- Generator: Adobe Illustrator 19.0.0, SVG Export Plug-In . SVG Version: 6.00 Build 0)  -->
<svg version="1.1" id="Layer_1" xmlns="http://www.w3.org/2000/svg" xmlns:xlink="http://www.w3.org/1999/xlink" x="0px" y="0px"
	 viewBox="0 0 512 512" style="enable-background:new 0 0 512 512;" xml:space="preserve">
<g>
	<g>
		<path d="M499.933,163.855L260.501,1.383c-2.716-1.845-6.284-1.844-9.002,0L12.067,163.855c-2.199,1.492-3.516,3.976-3.516,6.634
			v333.495c0,4.427,3.589,8.017,8.017,8.017h478.864c4.428,0,8.017-3.589,8.017-8.017V170.489
			C503.449,167.831,502.133,165.347,499.933,163.855z M196.676,495.967h-86.58v-86.58h18.171v43.29c0,4.427,3.589,8.017,8.017,8.017
			h34.205c4.427,0,8.017-3.589,8.017-8.017v-43.29h18.171V495.967z M92.994,205.228v-18.171h326.013v18.171H92.994z M144.301,444.66
			v-35.273h18.171v35.273H144.301z M196.676,393.353h-26.188h-34.205h-26.188v-86.58h18.171v43.29c0,4.427,3.589,8.017,8.017,8.017
			h34.205c4.427,0,8.017-3.589,8.017-8.017v-43.29h18.171V393.353z M144.301,342.046v-35.273h18.171v35.273H144.301z
			 M299.29,495.967h-86.58v-86.58h18.171v43.29c0,4.427,3.589,8.017,8.017,8.017h34.205c4.428,0,8.017-3.589,8.017-8.017v-43.29
			h18.171V495.967z M246.914,444.66v-35.273h18.171v35.273H246.914z M487.416,495.967h-69.478V324.409
			c0-4.427-3.588-8.017-8.017-8.017c-4.428,0-8.017,3.589-8.017,8.017v171.557h-86.58V401.37c0-4.427-3.588-8.017-8.017-8.017
			H212.71v-94.597c0-4.427-3.589-8.017-8.017-8.017h-94.597v-69.478h291.808v68.944c0,4.427,3.588,8.017,8.017,8.017
			c4.428,0,8.017-3.589,8.017-8.017v-68.944h9.086c4.428,0,8.017-3.589,8.017-8.017V179.04c0-4.427-3.588-8.017-8.017-8.017H84.977
			c-4.427,0-8.017,3.589-8.017,8.017v34.205c0,4.427,3.589,8.017,8.017,8.017h9.086v274.706H24.585V174.737L256,17.705
			l231.415,157.032V495.967z"/>
	</g>
</g>
<g>
	<g>
		<path d="M290.205,68.409h-68.409c-4.427,0-8.017,3.589-8.017,8.017s3.589,8.017,8.017,8.017h68.409
			c4.428,0,8.017-3.589,8.017-8.017S294.633,68.409,290.205,68.409z"/>
	</g>
</g>
<g>
	<g>
		<path d="M290.205,102.614h-68.409c-4.427,0-8.017,3.589-8.017,8.017s3.589,8.017,8.017,8.017h68.409
			c4.428,0,8.017-3.589,8.017-8.017S294.633,102.614,290.205,102.614z"/>
	</g>
</g>
<g>
	<g>
		<path d="M290.205,136.818h-68.409c-4.427,0-8.017,3.589-8.017,8.017s3.589,8.017,8.017,8.017h68.409
			c4.428,0,8.017-3.589,8.017-8.017S294.633,136.818,290.205,136.818z"/>
	</g>
</g>
<g>
	<g>
		<path d="M170.489,367.7h-34.205c-4.427,0-8.017,3.589-8.017,8.017c0,4.427,3.589,8.017,8.017,8.017h34.205
			c4.427,0,8.017-3.589,8.017-8.017C178.505,371.289,174.916,367.7,170.489,367.7z"/>
	</g>
</g>
<g>
	<g>
		<path d="M170.489,470.313h-34.205c-4.427,0-8.017,3.589-8.017,8.017c0,4.427,3.589,8.017,8.017,8.017h34.205
			c4.427,0,8.017-3.589,8.017-8.017C178.505,473.903,174.916,470.313,170.489,470.313z"/>
	</g>
</g>
<g>
	<g>
		<path d="M273.102,470.313h-34.205c-4.427,0-8.017,3.589-8.017,8.017c0,4.427,3.589,8.017,8.017,8.017h34.205
			c4.428,0,8.017-3.589,8.017-8.017C281.119,473.903,277.531,470.313,273.102,470.313z"/>
	</g>
</g>
<g>
</g>
<g>
</g>
<g>
</g>
<g>
</g>
<g>
</g>
<g>
</g>
<g>
</g>
<g>
</g>
<g>
</g>
<g>
</g>
<g>
</g>
<g>
</g>
<g>
</g>
<g>
</g>
<g>
</g>
</svg>
