<svg height="24" viewBox="0 0 24 24" width="24" xmlns="http://www.w3.org/2000/svg" xmlns:xlink="http://www.w3.org/1999/xlink"><linearGradient id="a"><stop offset="0" stop-color="#00ab55" stop-opacity="0"/><stop offset="1" stop-color="#005249"/></linearGradient><linearGradient id="b" x1="55.396%" x2="46.138%" xlink:href="#a" y1="81.317%" y2="28.314%"/><linearGradient id="c" x1="0%" x2="100%" y1=".736%" y2="99.264%"><stop offset="0" stop-color="#5be584"/><stop offset="1" stop-color="#00ab55"/></linearGradient><linearGradient id="d" x1="50%" x2="50%" xlink:href="#a" y1="26.273%" y2="105.236%"/><g fill="none" fill-rule="evenodd" transform="translate(3)"><g fill-rule="nonzero"><path d="m.008 1.50023529v21.00000001c0 .8248941.67487059 1.4997647 1.49976471 1.4997647h14.58399999c.8251294 0 1.5002353-.6751059 1.5002353-1.5002353v-16.97529411c0-.46056471-.1829647-.90225883-.5086118-1.22795294l-3.7879058-3.78790588c-.3256942-.32564706-.7673883-.50861177-1.227953-.50861177h-10.55929411c-.82512941 0-1.50023529.67510588-1.50023529 1.50023529z" fill="#00ab55"/><path d="m.47581177 1.93134118h9.58955293c.2390118 0 .4327529-.19374118.4327529-.43275294v-1.05529412c0-.23901177-.1937411-.43275294-.4327529-.43275294h-9.58955293c-.23901177 0-.43275295.19374117-.43275295.43275294v1.05529412c0 .23901176.19374118.43275294.43275295.43275294zm0 2.99835294h9.58955293c.2390118 0 .4327529-.19374118.4327529-.43275294v-1.05529412c0-.23901177-.1937411-.43275294-.4327529-.43275294h-9.58955293c-.23901177 0-.43275295.19374117-.43275295.43275294v1.05529412c0 .23901176.19374118.43275294.43275295.43275294zm0 2.99830588h9.58955293c.2390118 0 .4327529-.19374118.4327529-.43275294v-1.05524706c0-.23901176-.1937411-.43275294-.4327529-.43275294h-9.58955293c-.23901177 0-.43275295.19374118-.43275295.43275294v1.05529412c0 .2389647.19374118.43270588.43275295.43270588zm-.1194353 2.9983529h4.85435294c.1730353 0 .31331765-.1402823.31331765-.3133176v-1.29411765c0-.1730353-.14028235-.31331765-.31331765-.31331765h-4.85435294c-.17303529 0-.31331765.14028235-.31331765.31331765v1.29411765c0 .1730353.14028236.3133176.31331765.3133176z" fill="#c8facd" transform="translate(3.53 9.647)"/><path d="m13.2954353.50861177c-.2230588-.22305883-.5006118-.37910589-.8013177-.45534118v4.89044706l5.0978824 5.09788235v-4.51717647c0-.46056471-.1829647-.90225882-.5086118-1.22795294z" fill="url(#b)"/></g><path d="m17.5405647 5.1032c.0055529.02409412.0106824.04757647.0153412.07021176h-4.5952c-.3253647 0-.5891765-.2637647-.5891765-.58917647v-4.55689411c.0359059.0064.0736471.01388235.1125647.02249411.3425412.07576471.6548706.25190589.9029647.49995294l3.654353 3.65435295c.2471058.24710588.4206117.55858823.4991529.89905882z" fill="url(#c)"/><path d="m17.584 20v1.9693944c0 1.1168331-.6751059 2.0306056-1.5002353 2.0306056h-14.58399999c-.82489412 0-1.49976471-.9135177-1.49976471-2.0299686v-1.9700314z" fill="url(#d)" fill-rule="nonzero"/></g></svg>