<svg height="139" viewBox="0 0 120 139" width="120" xmlns="http://www.w3.org/2000/svg" xmlns:xlink="http://www.w3.org/1999/xlink"><linearGradient id="a" x1="49.662%" x2="52.228%" y1="37.111%" y2="76.847%"><stop offset="0" stop-color="#00ab55"/><stop offset="1" stop-color="#007b55"/></linearGradient><g fill="none" fill-rule="evenodd"><path d="m39.2587509 65.3868423c-.3999511.1077588-.8115314-.1291099-.9192901-.5290611-.1077588-.3999511.1291099-.8115313.529061-.9192901.583801-.1572935 1.1921728-.3209213 1.930958-.5194073.4000279-.1074736.8114392.1296886.9189127.5297164.1074736.4000279-.1296885.8114391-.5297164.9189127-.7384686.1984009-1.346515.3619412-1.9299252.5191294zm7.7263438-2.0788705c-.3998379.1081779-.8116662-.1282593-.9198441-.5280973s.1282593-.8116663.5280973-.9198442c.673278-.1821583 1.3113203-.3553733 1.9284881-.5235999.3996334-.1089314.8119066.126729.920838.5263624s-.1267291.8119066-.5263625.920838c-.6181194.168486-1.2570644.3419461-1.9312168.524341zm7.7204107-2.1290572c-.3985746.1127435-.81308-.1189683-.9258235-.517543-.1127436-.3985747.1189683-.81308.5175429-.9258236.6523479-.1845276 1.291367-.3667767 1.9195535-.5475152.3980653-.1145292.8136052.1153221.9281344.5133874.1145292.3980652-.1153221.8136051-.5133874.9281343-.630381.1813699-1.2715528.364233-1.9260199.5493601zm7.6920061-2.2596104c-.396016.1214257-.8154854-.1011737-.9369111-.4971897s.1011737-.8154854.4971897-.9369111c.6431179-.1971916 1.2776818-.3941688 1.9046727-.5912925.3951447-.124232.8161826.095386.9404147.4905306.124232.3951447-.095386.8161826-.4905307.9404147-.6304145.1982-1.2683642.3962283-1.9148353.594448zm7.6396928-2.4709137c-.3918842.1341629-.8183296-.0747614-.9524925-.4666455-.134163-.3918842.0747614-.8183296.4666455-.9524925.6337808-.2169772 1.2609674-.4350464 1.8820691-.6544419.3905632-.137961.8190168.0668136.9569778.4573768.1379609.3905632-.0668136.8190168-.4573769.9569778-.6257176.2210259-1.2574876.4406889-1.895823.6592253zm7.543931-2.756708c-.3857986.1507724-.8207754-.039754-.9715478-.4255526-.1507723-.3857986.0397541-.8207753.4255527-.9715477.531361-.2076591 1.058642-.4168713 1.5787458-.6264147.1344567-.0549898.1344567-.0549898.2674799-.1097029.3829964-.157755.821362.0248394.9791169.4078358s-.0248394.821362-.4078358.9791169c-.1351263.0555781-.1351263.0555781-.2749043.1127333-.5282669.2128414-1.0604052.4239809-1.5966074.6335319zm7.3792599-3.3428226c-.3617449.201776-.8185687.0720956-1.0203447-.2896493-.201776-.3617448-.0720955-.8185687.2896493-1.0203447.5844909-.3260204 1.1412718-.6595622 1.6730768-1.0034423.3478297-.2249164.8121321-.1252756 1.0370486.2225541.2249164.3478297.1252755.8121321-.2225541 1.0370485-.5599221.3620614-1.1446049.7123179-1.7568759 1.0538337zm6.4882183-5.1420554c-.2506565.3297638-.7211801.3938931-1.050944.1432366-.3297639-.2506564-.3938931-.7211801-.1432367-1.050944.3840399-.5052432.7001058-1.0330122.932741-1.5652123.1659035-.3795377.608071-.5527225.9876087-.386819.3795378.1659035.5527226.608071.3868191.9876087-.2821687.645518-.6593085 1.2752686-1.1129881 1.87213zm.3873309-8.3567505c.2258857.347201.1275402.8117795-.2196608 1.0376652s-.8117796.1275402-1.0376652-.2196608c-.325988-.5010647-.7144465-.9808139-1.1642757-1.4427557-.2889767-.2967581-.2826687-.7715899.0140893-1.0605666.2967581-.2889767.7715899-.2826687 1.0605666.0140893.5159965.5298908.9658625 1.0854787 1.3469458 1.6712286zm-6.4790808-5.277786c.3665966.1928206.5074698.6463179.3146491 1.0129145-.1928206.3665966-.6463179.5074699-1.0129145.3146492-.1069503-.0562531-.2156596-.112807-.3111736-.1622049-.476957-.2319751-.9582557-.4504196-1.4493617-.6581449-.3814912-.1613611-.5599419-.6014297-.3985808-.9829208.161361-.3814912.6014297-.5599419.9829208-.3985808.5151351.217889 1.02035.4471882 1.5363811.6983843.114624.0590181.2272.1175835.3380796.1759034zm-7.708929-2.7639769c.4029205.0960622.6516783.5005676.5556161.9034881s-.5005676.6516783-.9034881.5556161c-.6274347-.1495897-1.2680688-.2869692-1.9234201-.4129129-.4067702-.078172-.6731517-.4712954-.5949797-.8780656s.4712954-.6731517.8780656-.5949797c.6767094.1300482 1.3389251.2720558 1.9882062.426854zm-8.0102313-1.2535243c.41249.0377481.7162782.4027382.6785301.8152282-.0377482.4124899-.4027383.7162781-.8152283.67853-.6393364-.0585076-1.2962274-.1109318-1.9772118-.158223-.4132183-.0286961-.7249352-.3869385-.6962391-.8001569.0286961-.4132183.3869385-.7249352.8001569-.6962391.6916129.0480293 1.3593924.1013225 2.0099922.1608608zm-8.0578528-.4519335c.4139654.0143372.737928.361545.7235908.7755104-.0143372.4139653-.3615451.737928-.7755104.7235907-.2979415-.0103188-.6039983-.0206832-.9881992-.0336507-.3170879-.0048223-.6368862-.008824-.9596983-.0120237-.4141932-.0041055-.746635-.3432035-.7425295-.7573968.0041054-.4141932.3432035-.746635.7573968-.7425295.3254365.0032257.6478813.0072605.9812929.0124554.3984038.0133179.7050123.0237009 1.0036569.0340442zm-8.0033556-.0251028c.4141694-.006046.7548213.3248034.7608673.7389729.0060461.4141694-.3248033.7548213-.7389728.7608673-.6399319.0093417-1.3007246.0207493-1.9960091.0343236-.4141346.0080853-.7564116-.3210827-.7644969-.7352173-.0080853-.4141347.3210827-.7564116.7352173-.7644969.6976538-.0136206 1.3608914-.0250704 2.0033942-.0344496zm-8.0062894.1740796c.4140887-.0101721.75802.317267.768192.7313556.0101721.4140887-.3172669.75802-.7313556.7681921-.7833902.019244-1.402186.0340862-2.0004886.0478476-.4141041.0095247-.757523-.3184517-.7670477-.7325557-.0095247-.4141041.3184517-.757523.7325557-.7670477.597399-.0137406 1.2154696-.0285654 1.9981442-.0477919zm-7.985886.1496273c.4141983-.0035529.7528526.329341.7564336.7435394.0035247.4141983-.3293692.7528525-.7435675.7564054-.4191264.0035952-.8309868.0061768-1.2341167.0077055-.2511094.0018785-.504497.0046031-.7622332.0081601-.4141741.0057161-.7545623-.3254046-.7602784-.7395787-.005716-.4141741.3254047-.7545624.7395788-.7602784.2608418-.0035999.5173849-.0063584.7744688-.0082766.4034608-.001535.8129374-.0041017 1.2297146-.0076767zm-8.0110595.1710739c.4140872-.0102303.7580644.3171604.7682947.7312476s-.3171605.7580645-.7312477.7682948c-.7345229.0181468-1.385738.0299796-2.0114361.0357036-.4141962.0037891-.7530403-.3289115-.7568615-.7431078-.0037571-.4141962.3289436-.7530403.7431398-.7568294.6172143-.0056464 1.2608583-.0173416 1.9881108-.0353088zm-7.9208056-.1604208c.4127646.0346164.7193142.3972903.6846978.8100549-.0346164.4127645-.3972904.7193142-.8100549.6846977-.670928-.0562672-1.3419231-.1250563-2.0177667-.2073545-.4111762-.0500694-.7039112-.4239829-.6538418-.8351591.0500694-.4111763.4239829-.7039113.8351592-.6538419.6570965.0800154 1.309438.1468921 1.9618064.2016029zm-7.7889218-1.229354c.4038503.0920749.6565943.4941017.5645194.897952s-.4941017.6565943-.897952.5645194c-.6115514-.1394292-1.2328595-.2901034-1.8652012-.4524853-.0541905-.0139873-.0541905-.0139873-.1058498-.0276032-.4004011-.1060749-.6389995-.5166548-.5329245-.9170558.106075-.4004011.5166549-.6389995.9170559-.5329245.0460296.0121324.0460296.0121324.0948309.0247286.6192169.1590116 1.2273079.3064806 1.8255213.4428688zm-6.98726917-3.0589699c.32282096.2595371.37412266.7316316.11458556 1.0544525-.2595371.322821-.73163158.3741227-1.05445254.1145856-.54699549-.4397658-1.06398806-.9152067-1.54556905-1.4214859-.28548117-.3001222-.2736122-.7748476.02651007-1.0603288s.77484766-.2736122 1.06032883.0265101c.43557219.4579108.9034559.8881898 1.39859713 1.2862665zm-4.35949075-6.1766334c.12728315.3941724-.08907332.8168956-.48324571.9441788-.39417239.1272831-.81689563-.0890734-.94417879-.4832458-.21992063-.6810535-.38124793-1.3734468-.48141306-2.0719462-.05879695-.4100193.22592499-.7900699.63594425-.8488669.41001926-.0587969.79006989.225925.84886684.6359443.08798757.6135794.22999624 1.22306.42402647 1.8239358zm.1965193-7.33602718c-.13810045.39051398-.56662709.59513548-.95714104.45703508-.39051394-.1381005-.5951355-.56662714-.45703504-.95714108.23001611-.65042868.50709869-1.29223422.82979073-1.92661026.18780009-.36919372.63933278-.51624232 1.0085265-.32844223.36919372.18780008.51624232.63933278.32844223 1.0085265-.29356956.57712453-.54475477 1.1589441-.75258338 1.74663199zm4.14986091-6.4613319c-.28208289.30331851-.75664449.32053339-1.059963.0384505s-.32053339-.75664449-.0384505-1.059963c.45137011-.48534994.92976055-.96867103 1.43705071-1.45373245.29937894-.28626059.77413358-.27562606 1.06039417.02375289.28626058.29937894.27562605.77413358-.02375289 1.06039417-.48670117.46537462-.94453271.92792492-1.37527849 1.39109789z" fill="#00ab55" opacity=".481" transform="translate(25 73)"/><path d="m118.932955.28622222c.760227.19081482.9375 1.11081482.743181 1.77185185-.436363 1.94222223-1.193181 3.79585186-1.789772 5.69377778-8.301137 25.91333335-16.602273 51.82666665-24.9034095 77.74000005-.1840909 1.0222222-1.2579545 1.782074-2.2704545 1.5605925-10.5579545-8.6309629-21.1431818-17.238074-31.7215909-25.8451851-4.7931818 5.0191111-9.5147727 10.1268148-14.7170455 14.7268148-1.3295454 1.0903703-2.6522727 2.242074-4.2306818 2.9508148-.4227273.1294815-1.1795454.3782222-1.3738636-.1942222-.0579546-1.0358519.2045454-2.0546667.3102273-3.0768889 1.2715909-9.9155556 2.5602272-19.8311111 3.9136363-29.7364445-13.6193182-2.0137777-27.2352273-4.0241481-40.85454544-6.0242963-.72613636-.1226666-1.69090909-.2555555-1.95340909-1.0699259-.14318182-1.029037.86590909-1.656 1.71136364-1.9217778 5.56704545-1.5912592 11.04886359-3.4585185 16.57840909-5.1758518 32.625-10.3619259 65.2534091-20.7170371 97.878409-31.07896298.8625-.24874074 1.776136-.54518519 2.679546-.3202963z" fill="url(#a)" fill-rule="nonzero"/><path d="m51.6238636 55.217037c2.1204546 1.7343704 4.2238637 3.4925926 6.3818182 5.1792593-4.9738636 5.704-10.2852273 11.1626667-16.0295454 16.1034074 3.5761363-6.9238518 6.6681818-14.0862222 9.6477272-21.2826667zm60.0852274-49.23362959c-8.522727 6.85570369-17.209091 13.51718519-25.796591 20.29792589-10.8170455 8.4810371-21.6306818 16.9654815-32.4511364 25.4431111-.9477272.7598519-2.0113636 1.3902223-2.8465909 2.282963-.8829545.9677037-1.1897727 2.2761482-1.6670454 3.4619259-1.2920455 3.2983704-2.7306818 6.5422223-4.0840909 9.8201482-1.3022728 3.1314074-2.6829546 6.2491852-4.4965909 9.1284444.48-3.9675852.9905454-7.9308089 1.5115636-11.892506l1.5744-11.883347.7731273-5.9435544c.0852272-.4634074.0375-1.0562963.5420454-1.2948148 10.7079546-6.1605926 21.3034091-12.5358518 31.9636364-18.785037 11.6590909-6.8761482 23.3181818-13.7557037 34.9772728-20.63525929z" fill="#007b55"/></g></svg>