<svg height="80" viewBox="0 0 80 80" width="80" xmlns="http://www.w3.org/2000/svg" xmlns:xlink="http://www.w3.org/1999/xlink"><mask id="a" fill="#fff"><path d="m0 0h80v80h-80z" fill="#fff" fill-rule="evenodd"/></mask><g fill="none" fill-rule="evenodd" mask="url(#a)"><g transform="translate(9.167 20)"><path d="m53.333 17.5h8.333v7.5h-8.333z" fill="#007b55"/><path d="m.93516195 20.4888414 25.02815805-12.46006134c1.4247424-.70929622 3.0996699-.70478963 4.5205903.01216319l30.255652 15.26607355c.8307823.4191873 1.1651307 1.4338476.7467881 2.2663072-.1597024.3177916-.415559.5768747-.7310136.740232l-25.3381746 13.1213092c-1.474596.7636158-3.2294396.7527997-4.694549-.0289351l-29.82966289-15.9161401c-.82102171-.4380706-1.1321805-1.4601103-.69499262-2.2827896.16502225-.3105309.42277117-.5616211.73720426-.718159z" fill="#005249"/><path d="m32.5 34.267591v4.1932894c0 .6264599-.507846 1.1343059-1.1343059 1.1343059-.1485101 0-.2952045-.0291593-.4318702-.085431l-.1004906-.0472553-.0001743-7.5507337c.9988582.3525004 1.666841 1.2965919 1.666841 2.3558247zm-31.66666667-18.3059243 29.99999997 15.9500996v7.5507337l-30.00017432-15.9524003-.00065898-.0192664-.114043-.0666589c-.44538004-.2877021-.718457-.7835428-.718457-1.3197631v-7.9377446z" fill="#007b55"/><path d="m.93516195 12.9888414 25.02815805-12.46006134c1.4247424-.70929622 3.0996699-.70478963 4.5205903.01216319l30.255652 15.26607355c.8307823.4191873 1.1651307 1.4338476.7467881 2.2663072-.1597024.3177916-.415559.5768747-.7310136.740232l-25.3381746 13.1213092c-1.474596.7636158-3.2294396.7527997-4.694549-.0289351l-29.82966289-15.9161401c-.82102171-.4380706-1.1321805-1.4601103-.69499262-2.2827896.16502225-.3105309.42277117-.5616211.73720426-.718159z" fill="#00ab55" fill-rule="nonzero"/></g></g></svg>