<svg height="80" viewBox="0 0 80 80" width="80" xmlns="http://www.w3.org/2000/svg" xmlns:xlink="http://www.w3.org/1999/xlink"><mask id="a" fill="#fff"><path d="m0 0h80v80h-80z" fill="#fff" fill-rule="evenodd"/></mask><mask id="b" fill="#fff"><path d="m0 0h80v79.85h-80z" fill="#fff" fill-rule="evenodd"/></mask><mask id="c" fill="#fff"><path d="m0 0h80v79.85h-80z" fill="#fff" fill-rule="evenodd"/></mask><g fill="none" fill-rule="evenodd" mask="url(#a)"><g transform="translate(0 -5)"><g mask="url(#b)" transform="translate(0 9.15)"><g transform="translate(9.167 19.963)"><path d="m53.333 17.467h8.333v7.486h-8.333z" fill="#007b55"/><path d="m.93516195 20.4505445 25.02815805-12.4367715c1.4247424-.70797044 3.0996699-.70347227 4.5205903.01214045l30.255652 15.23753885c.8307823.4184038 1.1651307 1.4311675.7467881 2.2620711-.1597024.3171976-.415559.5757964-.7310136.7388484l-25.3381746 13.0967834c-1.474596.7621885-3.2294396.7513926-4.694549-.0288811l-29.82966289-15.8863903c-.82102171-.4372517-1.1321805-1.457381-.69499262-2.2785226.16502225-.3099506.42277117-.5605714.73720426-.7168167z" fill="#005249"/><path d="m32.5 34.2035394v4.1854515c0 .6252889-.507846 1.1321857-1.1343059 1.1321857-.1485101 0-.2952045-.0291048-.4318702-.0852713l-.1004906-.047167-.0001743-7.5366201c.9988582.3518414 1.666841 1.2941683 1.666841 2.3514212zm-31.66666667-18.2717076 29.99999997 15.9202864v7.5366201l-30.00017432-15.9225827-.00065898-.0192304-.114043-.0665343c-.44538004-.2871644-.718457-.7820783-.718457-1.3172963v-7.9229077z" fill="#007b55"/><path d="m.93516195 12.9645632 25.02815805-12.43677151c1.4247424-.70797044 3.0996699-.70347227 4.5205903.01214045l30.255652 15.23753886c.8307823.4184037 1.1651307 1.4311675.7467881 2.2620711-.1597024.3171976-.415559.5757964-.7310136.7388484l-25.3381746 13.0967834c-1.474596.7621885-3.2294396.7513926-4.694549-.0288811l-29.82966289-15.8863903c-.82102171-.4372517-1.1321805-1.457381-.69499262-2.2785226.16502225-.3099506.42277117-.5605714.73720426-.7168167z" fill="#00ab55" fill-rule="nonzero"/></g></g><g mask="url(#c)"><g transform="translate(9.167 19.963)"><path d="m53.333 17.467h8.333v7.486h-8.333z" fill="#007b55"/><path d="m.93516195 20.4505445 25.02815805-12.4367715c1.4247424-.70797044 3.0996699-.70347227 4.5205903.01214045l30.255652 15.23753885c.8307823.4184038 1.1651307 1.4311675.7467881 2.2620711-.1597024.3171976-.415559.5757964-.7310136.7388484l-25.3381746 13.0967834c-1.474596.7621885-3.2294396.7513926-4.694549-.0288811l-29.82966289-15.8863903c-.82102171-.4372517-1.1321805-1.457381-.69499262-2.2785226.16502225-.3099506.42277117-.5605714.73720426-.7168167z" fill="#005249"/><path d="m32.5 34.2035394v4.1854515c0 .6252889-.507846 1.1321857-1.1343059 1.1321857-.1485101 0-.2952045-.0291048-.4318702-.0852713l-.1004906-.047167-.0001743-7.5366201c.9988582.3518414 1.666841 1.2941683 1.666841 2.3514212zm-31.66666667-18.2717076 29.99999997 15.9202864v7.5366201l-30.00017432-15.9225827-.00065898-.0192304-.114043-.0665343c-.44538004-.2871644-.718457-.7820783-.718457-1.3172963v-7.9229077z" fill="#007b55"/><path d="m.93516195 12.9645632 25.02815805-12.43677151c1.4247424-.70797044 3.0996699-.70347227 4.5205903.01214045l30.255652 15.23753886c.8307823.4184037 1.1651307 1.4311675.7467881 2.2620711-.1597024.3171976-.415559.5757964-.7310136.7388484l-25.3381746 13.0967834c-1.474596.7621885-3.2294396.7513926-4.694549-.0288811l-29.82966289-15.8863903c-.82102171-.4372517-1.1321805-1.457381-.69499262-2.2785226.16502225-.3099506.42277117-.5605714.73720426-.7168167z" fill="#00ab55" fill-rule="nonzero"/></g></g></g></g></svg>