<svg height="80" viewBox="0 0 80 80" width="80" xmlns="http://www.w3.org/2000/svg" xmlns:xlink="http://www.w3.org/1999/xlink"><mask id="a" fill="#fff"><path d="m0 0h80v80h-80z" fill="#fff" fill-rule="evenodd"/></mask><mask id="b" fill="#fff"><path d="m0 0h80v79.729h-80z" fill="#fff" fill-rule="evenodd"/></mask><mask id="c" fill="#fff"><path d="m0 0h80v79.729h-80z" fill="#fff" fill-rule="evenodd"/></mask><mask id="d" fill="#fff"><path d="m0 0h80v79.729h-80z" fill="#fff" fill-rule="evenodd"/></mask><g fill="none" fill-rule="evenodd" mask="url(#a)"><g transform="translate(0 -9)"><g mask="url(#b)" transform="translate(0 18.271)"><g transform="translate(9.167 19.932)"><path d="m53.333 17.441h8.333v7.475h-8.333z" fill="#007b55"/><path d="m.93516195 20.4193877 25.02815805-12.41782384c1.4247424-.70689183 3.0996699-.70240051 4.5205903.01212196l30.255652 15.21432418c.8307823.4177663 1.1651307 1.4289871.7467881 2.2586248-.1597024.3167143-.415559.5749192-.7310136.7377227l-25.3381746 13.0768302c-1.474596.7610273-3.2294396.7502478-4.694549-.0288371l-29.82966289-15.862187c-.82102171-.4365856-1.1321805-1.4551607-.69499262-2.2750513.16502225-.3094783.42277117-.5597173.73720426-.7157246z" fill="#005249"/><path d="m32.5 34.1514296v4.179075c0 .6243362-.507846 1.1304607-1.1343059 1.1304607-.1485101 0-.2952045-.0290605-.4318702-.0851414l-.1004906-.0470951-.0001743-7.5251379c.9988582.3513054 1.666841 1.2921966 1.666841 2.3478387zm-31.66666667-18.2438703 29.99999997 15.8960316v7.5251379l-30.00017432-15.8983244-.00065898-.019201-.114043-.066433c-.44538004-.2867269-.718457-.7808867-.718457-1.3152894v-7.9108369z" fill="#007b55"/><path d="m.93516195 12.9448114 25.02815805-12.41782381c1.4247424-.70689183 3.0996699-.70240052 4.5205903.01212196l30.255652 15.21432415c.8307823.4177663 1.1651307 1.4289871.7467881 2.2586248-.1597024.3167143-.415559.5749192-.7310136.7377228l-25.3381746 13.0768302c-1.474596.7610272-3.2294396.7502478-4.694549-.0288371l-29.82966289-15.8621871c-.82102171-.4365856-1.1321805-1.4551607-.69499262-2.2750513.16502225-.3094783.42277117-.5597173.73720426-.7157246z" fill="#00ab55" fill-rule="nonzero"/></g></g><g mask="url(#c)" transform="translate(0 9.136)"><g transform="translate(9.167 19.932)"><path d="m53.333 17.441h8.333v7.475h-8.333z" fill="#007b55"/><path d="m.93516195 20.4193877 25.02815805-12.41782384c1.4247424-.70689183 3.0996699-.70240051 4.5205903.01212196l30.255652 15.21432418c.8307823.4177663 1.1651307 1.4289871.7467881 2.2586248-.1597024.3167143-.415559.5749192-.7310136.7377227l-25.3381746 13.0768302c-1.474596.7610273-3.2294396.7502478-4.694549-.0288371l-29.82966289-15.862187c-.82102171-.4365856-1.1321805-1.4551607-.69499262-2.2750513.16502225-.3094783.42277117-.5597173.73720426-.7157246z" fill="#005249"/><path d="m32.5 34.1514296v4.179075c0 .6243362-.507846 1.1304607-1.1343059 1.1304607-.1485101 0-.2952045-.0290605-.4318702-.0851414l-.1004906-.0470951-.0001743-7.5251379c.9988582.3513054 1.666841 1.2921966 1.666841 2.3478387zm-31.66666667-18.2438703 29.99999997 15.8960316v7.5251379l-30.00017432-15.8983244-.00065898-.019201-.114043-.066433c-.44538004-.2867269-.718457-.7808867-.718457-1.3152894v-7.9108369z" fill="#007b55"/><path d="m.93516195 12.9448114 25.02815805-12.41782381c1.4247424-.70689183 3.0996699-.70240052 4.5205903.01212196l30.255652 15.21432415c.8307823.4177663 1.1651307 1.4289871.7467881 2.2586248-.1597024.3167143-.415559.5749192-.7310136.7377228l-25.3381746 13.0768302c-1.474596.7610272-3.2294396.7502478-4.694549-.0288371l-29.82966289-15.8621871c-.82102171-.4365856-1.1321805-1.4551607-.69499262-2.2750513.16502225-.3094783.42277117-.5597173.73720426-.7157246z" fill="#00ab55" fill-rule="nonzero"/></g></g><g mask="url(#d)"><g transform="translate(9.167 19.932)"><path d="m53.333 17.441h8.333v7.475h-8.333z" fill="#007b55"/><path d="m.93516195 20.4193877 25.02815805-12.41782384c1.4247424-.70689183 3.0996699-.70240051 4.5205903.01212196l30.255652 15.21432418c.8307823.4177663 1.1651307 1.4289871.7467881 2.2586248-.1597024.3167143-.415559.5749192-.7310136.7377227l-25.3381746 13.0768302c-1.474596.7610273-3.2294396.7502478-4.694549-.0288371l-29.82966289-15.862187c-.82102171-.4365856-1.1321805-1.4551607-.69499262-2.2750513.16502225-.3094783.42277117-.5597173.73720426-.7157246z" fill="#005249"/><path d="m32.5 34.1514296v4.179075c0 .6243362-.507846 1.1304607-1.1343059 1.1304607-.1485101 0-.2952045-.0290605-.4318702-.0851414l-.1004906-.0470951-.0001743-7.5251379c.9988582.3513054 1.666841 1.2921966 1.666841 2.3478387zm-31.66666667-18.2438703 29.99999997 15.8960316v7.5251379l-30.00017432-15.8983244-.00065898-.019201-.114043-.066433c-.44538004-.2867269-.718457-.7808867-.718457-1.3152894v-7.9108369z" fill="#007b55"/><path d="m.93516195 12.9448114 25.02815805-12.41782381c1.4247424-.70689183 3.0996699-.70240052 4.5205903.01212196l30.255652 15.21432415c.8307823.4177663 1.1651307 1.4289871.7467881 2.2586248-.1597024.3167143-.415559.5749192-.7310136.7377228l-25.3381746 13.0768302c-1.474596.7610272-3.2294396.7502478-4.694549-.0288371l-29.82966289-15.8621871c-.82102171-.4365856-1.1321805-1.4551607-.69499262-2.2750513.16502225-.3094783.42277117-.5597173.73720426-.7157246z" fill="#00ab55" fill-rule="nonzero"/></g></g></g></g></svg>