<svg height="341" viewBox="0 0 444 341" width="444" xmlns="http://www.w3.org/2000/svg" xmlns:xlink="http://www.w3.org/1999/xlink"><defs><filter id="a"><feColorMatrix in="SourceGraphic" type="matrix" values="0 0 0 0 0.568627 0 0 0 0 0.619608 0 0 0 0 0.670588 0 0 0 1.000000 0"/></filter><linearGradient id="b"><stop offset="0"/><stop offset="1" stop-opacity="0"/></linearGradient><linearGradient id="c" x1="19.495903%" x2="77.479035%" xlink:href="#b" y1="59.931202%" y2="34.840928%"/><linearGradient id="d" x1="19.495903%" x2="77.479035%" xlink:href="#b" y1="59.696079%" y2="35.199823%"/><linearGradient id="e" x1="19.495903%" x2="77.479035%" xlink:href="#b" y1="59.69608%" y2="35.199822%"/><linearGradient id="f" x1="19.495903%" x2="77.479035%" xlink:href="#b" y1="59.931203%" y2="34.840927%"/><linearGradient id="g" x1="19.495903%" x2="77.479035%" xlink:href="#b" y1="60.353258%" y2="34.196699%"/><linearGradient id="h" x1="19.495903%" x2="77.479035%" xlink:href="#b" y1="59.856342%" y2="34.955196%"/><filter id="i" height="206%" width="161.1%" x="-30.5%" y="-51.9%"><feOffset dx="12" dy="24" in="SourceAlpha" result="shadowOffsetOuter1"/><feGaussianBlur in="shadowOffsetOuter1" result="shadowBlurOuter1" stdDeviation="12"/><feColorMatrix in="shadowBlurOuter1" result="shadowMatrixOuter1" type="matrix" values="0 0 0 0 0.129411765   0 0 0 0 0.168627451   0 0 0 0 0.211764706  0 0 0 0.16 0"/><feMerge><feMergeNode in="shadowMatrixOuter1"/><feMergeNode in="SourceGraphic"/></feMerge></filter><rect id="j" height="182" rx="12" width="316"/><filter id="k" height="108.2%" width="104.7%" x="-2.4%" y="-3%"><feMorphology in="SourceAlpha" operator="dilate" radius="0.5" result="shadowSpreadOuter1"/><feOffset dx="0" dy="2" in="shadowSpreadOuter1" result="shadowOffsetOuter1"/><feGaussianBlur in="shadowOffsetOuter1" result="shadowBlurOuter1" stdDeviation="2"/><feComposite in="shadowBlurOuter1" in2="SourceAlpha" operator="out" result="shadowBlurOuter1"/><feColorMatrix in="shadowBlurOuter1" type="matrix" values="0 0 0 0 0.129411765   0 0 0 0 0.168627451   0 0 0 0 0.211764706  0 0 0 0.04 0"/></filter><linearGradient id="l" x1="50%" x2="50%" y1="0%" y2="100%"><stop offset="0" stop-color="#00ab55" stop-opacity=".8"/><stop offset="1" stop-color="#00ab55"/></linearGradient><filter id="m" height="171.9%" width="151.1%" x="-25.6%" y="-35.9%"><feOffset dx="-2" dy="4" in="SourceAlpha" result="shadowOffsetOuter1"/><feGaussianBlur in="shadowOffsetOuter1" result="shadowBlurOuter1" stdDeviation="4"/><feColorMatrix in="shadowBlurOuter1" result="shadowMatrixOuter1" type="matrix" values="0 0 0 0 0   0 0 0 0 0.321568627   0 0 0 0 0.28627451  0 0 0 0.12 0"/><feMerge><feMergeNode in="shadowMatrixOuter1"/><feMergeNode in="SourceGraphic"/></feMerge></filter><circle id="n" cx="13" cy="13" r="13"/><filter id="o" height="300%" width="300%" x="-123.1%" y="-50%"><feOffset dx="-6" dy="13" in="SourceAlpha" result="shadowOffsetOuter1"/><feGaussianBlur in="shadowOffsetOuter1" result="shadowBlurOuter1" stdDeviation="6.5"/><feColorMatrix in="shadowBlurOuter1" type="matrix" values="0 0 0 0 0   0 0 0 0 0.250980392   0 0 0 0 0.501960784  0 0 0 0.12 0"/></filter><circle id="p" cx="13" cy="13" r="13"/><filter id="q" height="300%" width="300%" x="-123.1%" y="-50%"><feOffset dx="-6" dy="13" in="SourceAlpha" result="shadowOffsetOuter1"/><feGaussianBlur in="shadowOffsetOuter1" result="shadowBlurOuter1" stdDeviation="6.5"/><feColorMatrix in="shadowBlurOuter1" type="matrix" values="0 0 0 0 0   0 0 0 0 0.250980392   0 0 0 0 0.501960784  0 0 0 0.12 0"/></filter><circle id="r" cx="13" cy="13" r="13"/><filter id="s" height="300%" width="300%" x="-123.1%" y="-50%"><feOffset dx="-6" dy="13" in="SourceAlpha" result="shadowOffsetOuter1"/><feGaussianBlur in="shadowOffsetOuter1" result="shadowBlurOuter1" stdDeviation="6.5"/><feColorMatrix in="shadowBlurOuter1" type="matrix" values="0 0 0 0 0   0 0 0 0 0.250980392   0 0 0 0 0.501960784  0 0 0 0.12 0"/></filter><circle id="t" cx="13" cy="13" r="13"/><filter id="u" height="300%" width="300%" x="-123.1%" y="-50%"><feOffset dx="-6" dy="13" in="SourceAlpha" result="shadowOffsetOuter1"/><feGaussianBlur in="shadowOffsetOuter1" result="shadowBlurOuter1" stdDeviation="6.5"/><feColorMatrix in="shadowBlurOuter1" type="matrix" values="0 0 0 0 0   0 0 0 0 0.250980392   0 0 0 0 0.501960784  0 0 0 0.12 0"/></filter><path id="v" d="m116.86317 3.94539814 13.056142 1.45313769v9.63951647l-13.056142 1.4790205c-2.15968 0-4.06447-1.0934671-5.193002-2.7580018l-72.3098493-.0003715v-7.09929865l72.3400703-.00016967c1.13213-1.63968264 3.022262-2.71383304 5.162781-2.71383304z"/><filter id="w" height="115.9%" width="102.2%" x="-1.1%" y="-8%"><feOffset dx="0" dy="-2" in="SourceAlpha" result="shadowOffsetInner1"/><feComposite in="shadowOffsetInner1" in2="SourceAlpha" k2="-1" k3="1" operator="arithmetic" result="shadowInnerInner1"/><feColorMatrix in="shadowInnerInner1" type="matrix" values="0 0 0 0 0.717647059   0 0 0 0 0.505882353   0 0 0 0 0.0117647059  0 0 0 1 0"/></filter><linearGradient id="x" x1="50%" x2="50%" y1="0%" y2="100%"><stop offset="0" stop-color="#fff"/><stop offset="1" stop-color="#dfe3e8"/></linearGradient><path id="y" d="m34.6663073 0-9.4544475 5.12029294v10.24405026l9.4544475 5.1202929 9.4544474-5.1202929v-10.24058592zm0 12.8180541c-1.5225554-.0000013-2.7570198-1.1579231-2.7576985-2.586708-.0006783-1.42878487 1.2326859-2.58773868 2.7552406-2.58901443 1.5225548-.00127366 2.7581206 1.15561313 2.7601589 2.58439683.004917.6893398-.2834536 1.3520311-.8011568 1.8411021-.5177031.4890709-1.221947.7640808-1.9565442.7640808z"/><filter id="z" height="119.5%" width="110.6%" x="-5.3%" y="-4.9%"><feOffset dx="0" dy="2" in="SourceAlpha" result="shadowOffsetOuter1"/><feColorMatrix in="shadowOffsetOuter1" type="matrix" values="0 0 0 0 0.568627451   0 0 0 0 0.619607843   0 0 0 0 0.670588235  0 0 0 1 0"/></filter><path id="A" d="m9.45444744 0-9.45444744 5.12029294v10.24405026l9.45444744 5.1202929 9.45444746-5.1202929v-10.24058592zm0 12.8180541c-1.5230362 0-2.75770099-1.158625-2.75770099-2.5878612 0-1.42923629 1.23466479-2.58786121 2.75770099-2.58786121 1.52303616 0 2.75774056 1.15862492 2.75774056 2.58786121.0038906.6887413-.2849162 1.3505395-.802512 1.8388588-.5175959.4883193-1.2212751.7628597-1.95522856.7628597z"/><filter id="B" height="119.5%" width="110.6%" x="-5.3%" y="-4.9%"><feOffset dx="0" dy="2" in="SourceAlpha" result="shadowOffsetOuter1"/><feColorMatrix in="shadowOffsetOuter1" type="matrix" values="0 0 0 0 0.568627451   0 0 0 0 0.619607843   0 0 0 0 0.670588235  0 0 0 1 0"/></filter><path id="C" d="m22.0603774 0-9.4544475 5.12029294v10.24405026l9.4544475 5.1202929 9.4544474-5.1202929v-10.24058592zm0 12.8180541c-1.5230362 0-2.757701-1.158625-2.757701-2.5878612 0-1.42923629 1.2346648-2.58786121 2.757701-2.58786121s2.7577405 1.15862492 2.7577405 2.58786121c.0038906.6887413-.2849161 1.3505395-.802512 1.8388588-.5175958.4883193-1.221275.7628597-1.9552285.7628597z"/><filter id="D" height="119.5%" width="110.6%" x="-5.3%" y="-4.9%"><feOffset dx="0" dy="2" in="SourceAlpha" result="shadowOffsetOuter1"/><feColorMatrix in="shadowOffsetOuter1" type="matrix" values="0 0 0 0 0.568627451   0 0 0 0 0.619607843   0 0 0 0 0.670588235  0 0 0 1 0"/></filter><filter id="E"><feColorMatrix in="SourceGraphic" type="matrix" values="0 0 0 0 0.568627 0 0 0 0 0.619608 0 0 0 0 0.670588 0 0 0 1.000000 0"/></filter><linearGradient id="F"><stop offset="0" stop-opacity=".2"/><stop offset="1" stop-opacity=".968381"/><stop offset="1"/></linearGradient><linearGradient id="G" x1="100%" x2="0%" xlink:href="#F" y1="100%" y2="100%"/><linearGradient id="H" x1="0%" x2="100%" xlink:href="#F" y1="100%" y2="100%"/><mask id="I" fill="#fff"><use fill="#fff" fill-rule="evenodd" xlink:href="#n"/></mask><mask id="J" fill="#fff"><use fill="#fff" fill-rule="evenodd" xlink:href="#p"/></mask><mask id="K" fill="#fff"><use fill="#fff" fill-rule="evenodd" xlink:href="#r"/></mask><mask id="L" fill="#fff"><use fill="#fff" fill-rule="evenodd" xlink:href="#t"/></mask></defs><g fill="none" fill-rule="evenodd"><g filter="url(#a)" opacity=".64" transform="translate(31 130)"><path d="m37.8278174 150.304288 23.8939718-11.712526 28.0355937 13.92841-24.2125582 12.345636z" fill="url(#c)" opacity=".231235"/><path d="m0 42.7042299 16.0375456-7.767787 18.8173869 9.2373684-16.2513796 8.1876673z" fill="url(#d)" opacity=".231235"/><path d="m303.478292 164.614325 17.143583-8.303496 20.115138 9.874428-17.372165 8.752335z" fill="url(#e)" opacity=".231235"/><path d="m170.576646 200.186612 17.418532-8.538348 20.437747 10.153711-17.650781 8.99988z" fill="url(#f)" opacity=".231235"/><path d="m344.342696 66.0727446 16.590564-8.3034963 19.466262 9.8744281-16.811772 8.7523341z" fill="url(#g)" opacity=".231235"/><path d="m228.200382 6.30299531 12.858336-6.30299531 15.087113 7.49545388-13.02978 6.64369782z" fill="#19bb56" opacity=".04"/><g fill="url(#h)"><path d="m64.3210051 93.4358926 134.3835719-65.6244071 157.676725 78.0398355-136.175354 69.171673z" opacity=".231235"/><path d="m68.311534 109.058338 134.383572-65.6244068 157.676724 78.0398358-136.175353 69.171672z" opacity=".231235"/></g></g><g filter="url(#i)" transform="translate(64 80)"><use fill="#000" filter="url(#k)" xlink:href="#j"/><use fill="#fff" fill-rule="evenodd" stroke="#f4f6f8" xlink:href="#j"/><g fill="#f4f6f8" transform="translate(24 29)"><rect height="4" rx="2" width="154"/><rect height="4" rx="2" width="154" y="23"/><rect height="4" rx="2" width="154" y="47"/><rect height="4" rx="2" width="154" y="71"/><rect height="4" rx="2" width="154" y="95"/><rect height="4" rx="2" width="154" y="119"/></g><g fill="url(#l)" transform="translate(28.090836 25)"><circle cx="71.909164" cy="6" r="6"/><circle cx="23.333154" cy="30" r="6"/><circle cx="128.907817" cy="54" r="6"/><circle cx="54.060108" cy="78" r="6"/><circle cx="6" cy="102" r="6"/><circle cx="103.909164" cy="126" r="6"/></g><g filter="url(#m)" transform="translate(202 101)"><rect fill="#005249" height="16" rx="3.151482" width="22"/><rect fill="#007b55" height="16" rx="3.151482" width="22" x="34"/><rect fill="#007b55" height="16" rx="3.151482" width="22" y="24"/><g fill="#00ab55"><rect height="16" rx="3.151482" width="22" x="34" y="24"/><rect height="16" rx="3.151482" width="22" y="48"/><rect height="16" rx="3.151482" width="22" x="68"/></g><rect fill="#5be584" height="16" rx="3.151482" width="22" x="68" y="24"/><rect fill="#5be584" height="16" rx="3.151482" width="22" x="34" y="48"/><rect fill="#c8facd" height="16" rx="3.151482" width="22" x="68" y="48"/></g><g transform="translate(215 17)"><use fill="#000" filter="url(#o)" xlink:href="#n"/><use fill="#fff" fill-rule="evenodd" xlink:href="#n"/><path d="m15 12.7586366c-.0019036 4.54826 2.20809 8.7936827 5.8832265 11.3017408 3.3702682-2.6638584 5.2848546-6.8458028 5.1392136-11.2253514-.1456411-4.37954866-2.3335314-8.4160794-5.8728274-10.835026-3.2474436 2.56111773-5.1517627 6.53964692-5.1496127 10.7586366z" fill="#919eab" mask="url(#I)" opacity=".16"/><path d="m21.2921735 4.87786504.7835946.78204954-7.6172494 7.63160332c.0048186.0378799.0073025.0764906.0073025.1156825 0 .5003148-.4047855.9059001-.9041138.9059001s-.9041138-.4055853-.9041138-.9059001.4047855-.9059001.9041138-.9059001c.0391146 0 .0776491.0024888.1154543.0073169z" fill="#212b36" mask="url(#I)"/><g transform="translate(38)"><use fill="#000" filter="url(#q)" xlink:href="#p"/><use fill="#fff" fill-rule="evenodd" xlink:href="#p"/><path d="m15.606469 12.7586366c-.0019036 4.54826 2.20809 8.7936827 5.8832265 11.3017408 3.3702682-2.6638584 5.2848546-6.8458028 5.1392136-11.2253514-.1456411-4.37954866-2.3335314-8.4160794-5.8728274-10.835026-3.2474436 2.56111773-5.1517627 6.53964692-5.1496127 10.7586366z" fill="#919eab" mask="url(#J)" opacity=".16"/><path d="m21.484067 4.87786504.7835947.78204954-7.6172495 7.63160332c.0048187.0378799.0073026.0764906.0073026.1156825 0 .5003148-.4047856.9059001-.9041139.9059001-.4993282 0-.9041138-.4055853-.9041138-.9059001s.4047856-.9059001.9041138-.9059001c.0391147 0 .0776492.0024888.1154544.0073169z" fill="#212b36" mask="url(#J)"/></g><g transform="translate(0 34)"><use fill="#000" filter="url(#s)" xlink:href="#r"/><use fill="#fff" fill-rule="evenodd" xlink:href="#r"/><g fill="#919eab"><path d="m15 13.0923293c-.0019036 4.54826 2.20809 8.7936827 5.8832265 11.3017408 3.3702682-2.6638584 5.2848546-6.8458028 5.1392136-11.2253514-.1456411-4.37954864-2.3335314-8.41607938-5.8728274-10.83502598-3.2474436 2.56111773-5.1517627 6.53964692-5.1496127 10.75863658z" mask="url(#K)" opacity=".16"/><path d="m13.5617074 12.6403363c.4993283 0 .9041138.4055853.9041138.9059001s-.4047855.9059001-.9041138.9059001c-.0391146 0-.0776491-.0024888-.1154544-.007317l-8.12795789 8.1447119-.78359464-.7820496 8.13019563-8.145563c-.0048186-.0378799-.0073025-.0764905-.0073025-.1156824 0-.5003148.4047855-.9059001.9041138-.9059001z" mask="url(#K)"/></g></g><g transform="translate(38 34)"><use fill="#000" filter="url(#u)" xlink:href="#t"/><use fill="#fff" fill-rule="evenodd" xlink:href="#t"/><path d="m15.606469 13.0923293c-.0019036 4.54826 2.20809 8.7936827 5.8832265 11.3017408 3.3702682-2.6638584 5.2848546-6.8458028 5.1392136-11.2253514-.1456411-4.37954864-2.3335314-8.41607938-5.8728274-10.83502598-3.2474436 2.56111773-5.1517627 6.53964692-5.1496127 10.75863658z" fill="#919eab" mask="url(#L)" opacity=".16"/><path d="m21.484067 5.01690103.7835947.78204954-7.6172495 7.63160333c.0048187.0378799.0073026.0764906.0073026.1156825 0 .5003148-.4047856.9059001-.9041139.9059001-.4993282 0-.9041138-.4055853-.9041138-.9059001s.4047856-.9059001.9041138-.9059001c.0391147 0 .0776492.0024888.1154544.0073169z" fill="#212b36" mask="url(#L)"/></g></g></g><g transform="translate(86 278)"><g fill-rule="nonzero"><use fill="#ffc107" xlink:href="#v"/><use fill="#000" filter="url(#w)" xlink:href="#v"/></g><path d="m5.6165765 3.40185809h53.0622559v13.08193681h-53.0622559c-2.75140071 0-4.98185169-2.2348577-4.98185169-4.9916944v-3.10964071c.00610463-2.75250372 2.23476859-4.9806017 4.98185169-4.9806017z" fill="#b78103"/><g fill="#7a4f01"><rect height="19.378867" rx="1.84513" width="4.834241" x="57.711984" y=".495583"/><path d="m57.7119842 3.40185809v13.08193681h-.9668483v-13.08193681zm-4.3545074 9.20690291v.9687585h-44.48609052v-.9687585zm0-3.39435215v.96875845h-44.48609052v-.96875845zm0-3.39065461v.96875846h-44.48609052v-.96875846z"/></g></g><g fill-rule="nonzero" transform="translate(287.755256 41.121024)"><g><use fill="#000" filter="url(#z)" xlink:href="#y"/><use fill="url(#x)" xlink:href="#y"/></g><g><use fill="#000" filter="url(#B)" xlink:href="#A"/><use fill="url(#x)" xlink:href="#A"/></g><g><use fill="#000" filter="url(#D)" xlink:href="#C"/><use fill="url(#x)" xlink:href="#C"/></g></g><g filter="url(#E)"><g transform="translate(95.514825 23)"><path d="m111.99956 292.020834.799131.763638c-1.134129 1.191847-2.701123 1.87914-4.376041 1.87914v-1.106547c1.369713 0 2.649008-.561107 3.57691-1.536231zm-8.481501-2.778721c.176375 1.350121.898998 2.558659 1.983975 3.35713l-.653606.891876c-1.325829-.975722-2.209457-2.45353-2.425247-4.105372zm144.1942-1.402414v1.106546h-4.416883v-1.106546zm-8.833767 0v1.106546h-4.416884v-1.106546zm-8.833767 0v1.106546h-4.416884v-1.106546zm-8.833767 0v1.106546h-4.416884v-1.106546zm-8.833768 0v1.106546h-4.416883v-1.106546zm-8.833767 0v1.106546h-4.416883v-1.106546zm-8.833767 0v1.106546h-4.416884v-1.106546zm-8.833767 0v1.106546h-4.416884v-1.106546zm-8.833767 0v1.106546h-4.416884v-1.106546zm-8.833768 0v1.106546h-4.416883v-1.106546zm-8.833767 0v1.106546h-4.416883v-1.106546zm-8.833767 0v1.106546h-4.416884v-1.106546zm-8.833767 0v1.106546h-4.416884v-1.106546zm-8.833767 0v1.106546h-4.416884v-1.106546zm-8.833767 0v1.106546h-2.855756v-1.106546zm-11.628271-3.819245c1.233915 1.086539 1.984844 2.629688 2.056813 4.302095l-1.103196.047674c-.058872-1.368072-.672591-2.629257-1.682493-3.518538zm139.70735-.617509v4.426187h-1.104221v-4.426187zm-144.227214-.865737.095972 1.102359c-1.355168.118479-2.586892.79125-3.428048 1.845906l-.86257-.690855c1.027981-1.288901 2.535595-2.112364 4.194646-2.25741zm144.227214-7.986637v4.426187h-1.104221v-4.426187zm0-8.852375v4.426187h-1.104221v-4.426187zm0-8.852374v4.426187h-1.104221v-4.426187z" fill="url(#G)"/><path d="m1.10388213 33.3888946v4.4288952h-1.10388213v-4.4288952zm0-8.8577902v4.4288951h-1.10388213v-4.4288951zm0-8.8577903v4.4288951h-1.10388213v-4.4288951zm146.12379287-6.18388579.798885.76410509c-1.133781 1.1925765-2.700294 1.8802899-4.374699 1.8802899v-1.1072238c1.369293 0 2.648196-.5614501 3.575814-1.53717119zm-146.12379287-2.67390445v4.42889514h-1.10388213v-4.42889514zm137.64489387-.10651682c.176321 1.35094708.898722 2.56022442 1.983366 3.35918436l-.653406.8924221c-1.325422-.97631984-2.208779-2.45503175-2.424503-4.10788439zm-129.92826022-1.01128001v1.1072238h-4.41552845v-1.1072238zm8.83105692 0v1.1072238h-4.4155285v-1.1072238zm8.8310569 0v1.1072238h-4.4155285v-1.1072238zm8.8310569 0v1.1072238h-4.4155284v-1.1072238zm8.8310569 0v1.1072238h-4.4155284v-1.1072238zm8.8310569 0v1.1072238h-4.4155284v-1.1072238zm8.8310569 0v1.1072238h-4.4155284v-1.1072238zm8.8310569 0v1.1072238h-4.4155284v-1.1072238zm8.8310569 0v1.1072238h-4.4155284v-1.1072238zm8.831057 0v1.1072238h-4.4155285v-1.1072238zm8.8310569 0v1.1072238h-4.4155285v-1.1072238zm8.8310571 0v1.1072238h-4.415529v-1.1072238zm8.831057 0v1.1072238h-4.415529v-1.1072238zm8.831057 0v1.1072238h-4.415529v-1.1072238zm7.266728 0v1.1072238h-2.8512v-1.1072238zm16.748252-4.21357318c1.233536 1.08720351 1.984235 2.63129677 2.056182 4.30472664l-1.102857.04770329c-.058855-1.36890835-.672386-2.63086528-1.681978-3.52069069zm-4.518477-1.48415385.095942 1.10303394c-1.354752.11855095-2.586098.79173389-3.426996 1.84703537l-.862305-.6912782c1.027665-1.28968926 2.534817-2.11365621 4.193359-2.25879111z" fill="url(#H)"/></g></g></g></svg>