<svg height="217" viewBox="0 0 294 217" width="294" xmlns="http://www.w3.org/2000/svg" xmlns:xlink="http://www.w3.org/1999/xlink"><linearGradient id="a" x1="19.495903%" x2="77.479035%" y1="70.80977%" y2="18.23579%"><stop offset="0" stop-color="#00ab55"/><stop offset="1" stop-color="#00ab55" stop-opacity="0"/></linearGradient><filter id="b" height="186.8%" width="164.2%" x="-32.1%" y="-43.4%"><feOffset dx="12" dy="12" in="SourceAlpha" result="shadowOffsetOuter1"/><feGaussianBlur in="shadowOffsetOuter1" result="shadowBlurOuter1" stdDeviation="12"/><feColorMatrix in="shadowBlurOuter1" result="shadowMatrixOuter1" type="matrix" values="0 0 0 0 0   0 0 0 0 0.321568627   0 0 0 0 0.28627451  0 0 0 0.32 0"/><feMerge><feMergeNode in="shadowMatrixOuter1"/><feMergeNode in="SourceGraphic"/></feMerge></filter><linearGradient id="c" x1="50%" x2="50%" y1="100%" y2="0%"><stop offset="0" stop-color="#808080" stop-opacity=".25"/><stop offset=".54" stop-color="#808080" stop-opacity=".12"/><stop offset="1" stop-color="#808080" stop-opacity=".1"/></linearGradient><linearGradient id="d" x1="87.086349%" x2="31.185114%" y1="26.172827%" y2="80.473795%"><stop offset="0" stop-color="#00ab55"/><stop offset="1" stop-color="#007b55"/></linearGradient><g fill="none" fill-rule="evenodd"><path d="m0 119.268431c0 24.874295 9.18278652 47.540891 24.2937011 64.671457 17.3355769 19.658727 42.4739393 32.018556 70.4949993 32.060112 12.2462986.017667 23.9559656-2.332168 34.7118376-6.621883 5.561333-2.218887 11.785867-1.964228 17.172198.664613 6.31817 3.079593 13.393178 4.806271 20.86404 4.806271 3.086114 0 6.108296-.296773 9.031677-.860049 8.344583-1.60231 15.93814-5.393894 22.174299-10.764099 3.919151-3.376366 8.938687-5.073433 14.068649-5.06751h.087178c16.951346 0 32.697048-5.239257 45.769927-14.217455 11.687065-8.016155 21.230835-19.017804 27.589688-31.934987 5.543898-11.256307 8.664883-23.972132 8.664883-37.430217 0-46.1583636-36.726626-83.5826587-82.024498-83.5826587-4.61787 0-9.142103.3974517-13.555911 1.1390546-11.687066-19.2790427-32.615682-32.1310799-56.490281-32.1310799-10.079755 0-19.635794 2.29061192-28.189605 6.39673612-8.134709 3.89226358-15.3672836 9.42302858-21.2837878 16.16325778-20.0897672.3263843-38.6658598 7.0139709-53.8697646 18.1748639-23.9327181 17.5582872-39.5092296 46.1945553-39.5092296 78.5335732z" fill="url(#a)" opacity=".24" transform="translate(0 1)"/><g filter="url(#b)" transform="translate(39 30)"><path d="m160.6415 30.0821614c.029608-.0671108.053294-.1381693.07698-.2092278-.075386.157114-.141299.3186003-.197385.4835924.041451-.0927708.082902-.1835677.120405-.2743646z" fill="url(#c)" fill-rule="nonzero"/><path d="m143.763138 104.30866c-.071058.878362-2.23242.546756-2.23242.546756-3.584505.497409-2.992351-3.016038-2.992351-3.016038v-.17962l.124352-3.276585.035529-.913891s3.947693-1.8040957 3.847027-1.4251172c-.037503.142117.045399.4835924.159882.8527017.197384.6138663.479644 1.3086603.479644 1.3086603s.023687 1.4488033-.094744 1.8751542c-.118431.426351.617814 1.567234.617814 1.567234s0 .071059.011843.197385c.058416.819757.072911 1.642053.043424 2.46336z" fill="#b77983" fill-rule="nonzero"/><path d="m150.673575 105.25808s-2.161362.33358-2.23242-.546755c-.032821-.823159-.020301-1.6475.037503-2.469282 0-.118431.009869-.197385.009869-.197385s.736245-1.140883.617814-1.567234-.094745-1.8771279-.094745-1.8771279.07698-.1835678.177647-.4480632c.211201-.5546509.52899-1.4547249.463853-1.7113249-.094744-.3809524 3.847027 1.4231433 3.847027 1.4231433l.039477 1.0224525.120405 3.1680242v.17962s.600049 3.523316-2.98643 3.023932z" fill="#b77983" fill-rule="nonzero"/><path d="m164.630644 43.4451024h-.041451c.075006-.1973847.041451 0 .041451 0z"/><g fill-rule="nonzero"><path d="m142.720947 96.8968665c-1.484332 1.7646188-3.087096 1.7350111-4.042437 1.4863065l.035529-.913891s3.947693-1.8040957 3.847027-1.4251172c-.037503.142117.037503.4835924.159881.8527017z" fill="#000" opacity=".05"/><path d="m153.5396 98.8943992c-2.520602 1.4566988-3.999013-.2506785-4.342462-.7342709.211202-.5546509.528991-1.4547249.463854-1.7113249-.094745-.3809524 3.847027 1.4231433 3.847027 1.4231433z" fill="#000" opacity=".05"/><path d="m150.839378 84.3609672s2.398224-1.3816926 2.921293-.7599309c.523069.6217616-2.921293.7599309-2.921293.7599309z" fill="#000" opacity=".05"/><path d="m152.288182 85.1208981s-.39477.1973847.475697.450037c.870466.2526524-.475697-.450037-.475697-.450037z" fill="#000" opacity=".05"/><path d="m137.786331 81.3212435c-.080928.0236862 1.995559 1.4014311 3.870713.2605478-.007895 0-3.402911-.4026647-3.870713-.2605478z" fill="#000" opacity=".05"/><path d="m141.554404 83.9563286s-.568468 1.1171972-1.733037 1.2830003c-1.16457.1658031 1.733037-1.2830003 1.733037-1.2830003z" fill="#000" opacity=".05"/><path d="m149.177399 86.3802122s2.731804 4.3424624 2.208735 5.3668887c-.52307 1.0244264-2.208735-5.3668887-2.208735-5.3668887z" fill="#000" opacity=".05"/><path d="m143.786825 103.647422c0 .242783 0 .469775-.023687.657291-.071058.878361-2.23242.546755-2.23242.546755-1.973847.274365-2.684431-.673082-2.919319-1.579077-.073823-.294279-.110298-.596682-.108562-.900074-.001278-.180901.010596-.361655.03553-.540834v-.17962c.425356-.128297.886717-.034096 1.227732.250678.878362.712559 2.042931.165803 2.042931.165803s.854676.071059 1.184308.355293c.185542.159881.491488-.225019.724402-.592154.013817.236861.035529.665186.049346 1.123119.015791.234887.019739.471749.019739.69282z" fill="#000" opacity=".05"/><path d="m140.32075 103.596102s-.592154.580311-1.709351-.315816c-.073823-.294278-.110298-.596682-.108562-.900074.570442.434246 1.628424 1.21589 1.817913 1.21589z" fill="#000" opacity=".05"/><path d="m143.786825 103.647422c-.097391.075117-.221474.106691-.342923.087259s-.229487-.088145-.298578-.189899c.23028-.175219.441936-.373647.631631-.592154.005922.236861.00987.473723.00987.694794z" fill="#000" opacity=".05"/><path d="m148.419442 104.054034c0 .244757 0 .471749.021713.657291.071058.880335 2.23242.546755 2.23242.546755 1.973847.276339 2.684431-.671107 2.919319-1.579077.116339-.471202.141132-.960358.073032-1.440908v-.17962c-.426085-.126092-.886977-.032138-1.229706.250679-.878362.712558-2.040957.165803-2.040957.165803s-.854676.073032-1.184308.357266c-.185542.159882-.491488-.225018-.722428-.592154-.013817.236862-.037503.665186-.05132 1.123119-.015791.23094-.019738.467801-.017765.690846z" fill="#000" opacity=".05"/><path d="m151.885517 103.998766s.592154.580311 1.707377-.315815c.074469-.293527.111607-.595276.110536-.8981-.572416.432272-1.630398 1.213915-1.817913 1.213915z" fill="#000" opacity=".05"/><path d="m148.419442 104.054034c.097068.07503.220848.106563.341983.087122.121134-.019441.22883-.088126.297544-.189762-.230498-.17496-.44218-.373411-.631631-.592154-.005922.234888-.009869.471749-.007896.694794z" fill="#000" opacity=".05"/><path d="m.64347397.9375771c.04145078-.09079694.08092771-.18159388.11843079-.27041697.03750309-.0888231.05132001-.13816926.07303232-.20922773-.07262663.15622444-.13654555.3163512-.19146311.4796447z" fill="#000" opacity=".05" transform="translate(159.644708 29.989391)"/></g><path d="m53.3195164 145.269924c-.4783574-.575823-.6976357-1.323655-.6059709-2.066618l8.7125586-71.2894151.7224279-5.9215396c.1674756-1.3625871 1.3195265-2.3896353 2.6923266-2.4001973l25.5198619-.1697508c.7340945-.0044998 1.4354383-.3044775 1.9457302-.8322248s.7865194-1.2387804.7663349-1.9726112l-.0098692-.2704169c-.0251485-.7401135.2512527-1.458726.7658871-1.9912218.5146343-.5324959 1.223402-.8333526 1.9639426-.8333526h26.8166789c1.505334 0 2.726565 1.2185779 2.72983 2.7239082-.000153.1227553-.008064.2453782-.023686.3671354-.102815.7683108.125855 1.5441038.628956 2.1338169.503101.589713 1.233188.9377325 2.008103.9572268l25.754749.6572909c.79243.0194862 1.537194.3826988 2.040462.9951089.503267.6124101.715261 1.4134442.580806 2.1946271l-12.8754 75.2035529-.242784 1.42117c-.060011.363074-.194412.709828-.394769 1.018504z" fill="#007b55"/><g fill-rule="nonzero"><path d="m115.157708 42.168708h15.080188v51.183815h-15.080188z" fill="#f9fafb" transform="matrix(.82273974 .56841826 -.56841826 .82273974 60.265816 -57.732407)"/><path d="m127.944442 46.500505h10.646343v10.646343h-10.646343z" fill="#ffc107" transform="matrix(.82110924 .57077107 -.57077107 .82110924 53.419799 -66.794521)"/><path d="m121.112219 57.034148h10.660745v10.660745h-10.660745z" fill="#ffc107" opacity=".5" transform="matrix(.82273974 .56841826 -.56841826 .82273974 57.862379 -60.817528)"/><path d="m113.794262 67.623582h10.660745v10.660745h-10.660745z" fill="#ffc107" opacity=".3" transform="matrix(.82273974 .56841826 -.56841826 .82273974 62.584424 -54.780781)"/><path d="m106.057532 40.873252h15.080188v50.990378h-15.080188z" fill="#f9fafb" transform="matrix(.95985426 .28049919 -.28049919 .95985426 23.176754 -29.199632)"/><path d="m113.702779 42.475788h10.660745v10.660745h-10.660745z" fill="#ff4842" transform="matrix(.95985426 .28049919 -.28049919 .95985426 18.188263 -31.469489)"/><path d="m110.092184 54.829492h10.660745v10.660745h-10.660745z" fill="#ff4842" opacity=".5" transform="matrix(.95985426 .28049919 -.28049919 .95985426 21.508517 -29.960771)"/><path d="m106.482142 67.1813h10.660745v10.660745h-10.660745z" fill="#ff4842" opacity=".3" transform="matrix(.95985426 .28049919 -.28049919 .95985426 24.828261 -28.452285)"/><path d="m101.189334 41.076138h15.080188v50.990378h-15.080188z" fill="#f9fafb" transform="matrix(.99677888 .08019892 -.08019892 .99677888 5.689179 -8.505549)"/><path d="m104.953004 41.963455h10.660745v10.660745h-10.660745z" fill="#1890ff" transform="matrix(.99677888 .08019892 -.08019892 .99677888 4.14815 -8.692269)"/><path d="m103.91964 54.789751h10.660745v10.660745h-10.660745z" fill="#1890ff" opacity=".5" transform="matrix(.99677888 .08019892 -.08019892 .99677888 5.173477 -8.568079)"/><path d="m102.888085 67.620146h10.660745v10.660745h-10.660745z" fill="#1890ff" opacity=".3" transform="matrix(.99677888 .08019892 -.08019892 .99677888 6.199138 -8.444021)"/><path d="m97.648965 42.227338h15.080188v50.990378h-15.080188z" fill="#fff" transform="matrix(.99896264 -.04553734 .04553734 .99896264 -2.974785 4.860283)"/><path d="m98.978739 43.069068h10.660745v10.660745h-10.660745z" fill="#00ab55" transform="matrix(.99896264 -.04553734 .04553734 .99896264 -2.095775 4.800167)"/><path d="m100.004938 55.493366h10.674063v10.674063h-10.674063z" fill="#00ab55" opacity=".5" transform="matrix(.99875234 -.04993761 .04993761 .99875234 -2.906294 5.336422)"/><path d="m100.150414 68.78332h10.660745v10.660745h-10.660745z" fill="#00ab55" opacity=".3" transform="matrix(.99896264 -.04553734 .04553734 .99896264 -3.265519 4.880197)"/><path d="m102.892672 109.79398-13.3984702 5.183321-19.5825314 7.569701c-.7401925-1.381692-1.8297558-3.248951-3.177893-5.477424-4.6385393-7.686158-12.3128546-19.6417468-19.1463113-30.1485319-7.6980015-11.8430792-14.3242043-21.8366642-14.3242043-21.8366642l4.7964471-1.3816925 39.1808536-11.3752776z" fill="#e6ecf8"/><path d="m102.892672 109.79398-13.3984702 5.183321c-7.4847568 1.559363-15.1227456 2.261311-22.7663459 2.092277-4.6385393-7.686158-12.3128547-19.6417468-19.1463114-30.1485319l-9.5198618-23.2262521 39.1788798-11.3673822z" fill="#000" opacity=".1"/><path d="m112.860597 106.568715s-20.8142116 12.312854-51.8904514 9.527757l-24.7737479-60.3997042 11.8726869-2.0409573 41.0441648-7.048606 23.2913896 58.7870715z" fill="#007b55"/><path d="m112.396743 105.402171c-4.901061.24081-10.571922.217123-16.2763384-.463854-6.1741919-.726375-12.3839131-2.222551-17.7073772-4.9661976-4.4510239-2.2916358-8.2566001-4.784604-11.5746361-7.7749815-8.6316309-7.7631384-13.9728596-18.867999-18.7693067-38.533432l41.0441648-7.048606z" fill="#000" opacity=".1"/><path d="m127.66642 102.02492s-15.342709 3.004194-30.9597829 1.1547c-6.174192-.726375-12.3839132-2.222551-17.7073773-4.9661978-4.4510239-2.2916359-8.2546262-4.784604-11.5746361-7.7749815-10.6824574-9.6106588-16.3237108-24.3395016-22.1406365-54.0833951 0 0 25.5060449 6.1564274 50.7278559-7.3288921-.0078954.0098692 8.4934619 53.0629163 31.6545769 72.9987665z" fill="#fff"/><path d="m96.7066371 103.17962c-6.174192-.726375-12.3839132-2.222551-17.7073773-4.9661978-4.4510239-2.2916359-8.2546262-4.784604-11.5746361-7.7749815 9.0954849-.7382186 10.4021713-5.7103381 10.4021713-5.7103381 6.7426597 10.7002221 18.8798421 18.4515174 18.8798421 18.4515174z" fill="#000" opacity=".1"/><g fill="#00ab55"><path d="m58.4771774 47.2743647s20.7411794-1.1724649 26.5324451-5.6432273l.8783617 2.8226006s-13.7044165 6.0458919-27.4108068 6.1189242z" opacity=".3"/><path d="m58.4771774 61.2097212s20.0819146-1.0994325 35.2548729-8.4283247l.5132001 1.1724648s-12.0404638 7.0288675-35.768073 8.8684925z" opacity=".3"/><path d="m60.0937577 66.639773s20.0819146-1.0994325 35.2528991-8.4283247l.5132001 1.1724649s-12.0404639 7.0268936-35.7660992 8.8684924z" opacity=".3"/><path d="m61.7083642 72.0777202s20.0819146-1.0994325 35.2548729-8.4283247l.5112263 1.1724649s-12.0404639 7.0288675-35.7660992 8.8684924z" opacity=".3"/><path d="m63.3249445 77.5156674s20.0819146-1.0994325 35.2528991-8.4283247l.5132001 1.1724648s-12.0404639 7.0288676-35.7660992 8.8684925z" opacity=".3"/><path d="m64.9395509 82.9555885s20.0819147-1.0994326 35.2548731-8.4283247l.511226 1.1724648s-12.0404637 7.0268937-35.7660991 8.8684925z" opacity=".3"/><path d="m206.14261 150.474957s-8.345423-.503331-7.362447 5.345176c0 0-.197385 1.032322.742166 1.502097 0 0 .013817-.434246.854676-.286207.299863.050436.604662.065014.907969.043424.40926-.027425.798238-.188286 1.107328-.457932s2.346904-.969159 3.258821-4.802369c0 0 .675055-.836911.647421-1.05206l-1.407352.592154s.481618 1.016531.10264 1.859364c0 0-.045399-1.821861-.315816-1.776462-.055267 0-.732297.351344-.732297.351344s.827042 1.776462.197385 3.055515c0 0 .236861-2.181101-.46188-2.927215l-.986923.578337s.967184 1.827782.311867 3.32001c0 0 .167777-2.287688-.521095-3.179867l-.8981.700716s.909943 1.802122.355292 3.039724c0 0-.073032-2.664693-.550703-2.866026 0 0-.789539.692821-.904022.986924 0 0 .621762 1.306686.234888 1.997532 0 0-.236862-1.776461-.430299-1.776461 0 0-.789538 1.184307-.864544 1.973846 0 0 .033555-1.200099.675055-2.094251-.45193.086297-.868944.302349-1.200099.621762 0 0 .122379-.832964 1.393536-.904022 0 0 .647422-.892179.819146-.947446 0 0-1.263261-.104614-2.029114.234887 0 0 .675056-.789538 2.262028-.428324l.886257-.722428s-1.663952-.228966-2.368616.023686c0 0 .811251-.694794 2.607452-.197385l.965211-.576363s-1.417222-.305946-2.262028-.197385c0 0 .890204-.481618 2.546262.039477l.688872-.309894s-1.038243-.197384-1.342216-.236861c-.303972-.039477-.321737-.114483-.321737-.114483.658229-.111009 1.334384-.035805 1.952135.217123 0 0 1.466568-.536886 1.442881-.629657z"/><ellipse cx="200.394769" cy="157.831483" opacity=".1" rx="5.905749" ry="1"/><path d="m210.029114 131.168764s-4.703676-.284234-4.145077 3.014064c-.059047.342646.109036.684389.416481.84678 0 0 .009869-.244757.483593-.161856.1689.027821.340477.035771.511226.023686.230404-.01491.449539-.10506.623735-.2566s1.322477-.546755 1.837651-2.708117c0 0 .380953-.471749.365162-.592154l-.789539.337528s.270417.574389.057242 1.050086c0 0-.02566-1.028374-.177646-1.004688-.031582 0-.412534.197385-.412534.197385s.465828.986923.114483 1.723168c0 0 .134222-1.229706-.260548-1.65211l-.558598.327659s.544781 1.030348.175672 1.871206c0 0 .094745-1.290895-.294103-1.792252l-.505305.394769s.511226 1.016531.197385 1.713299c0 0-.041451-1.502097-.309894-1.614607-.191717.162569-.363341.347445-.511226.550704 0 0 .351344.738218.134221 1.127066 0 0-.134221-1.00074-.242783-1.004688 0 0-.442142.661239-.48754 1.115223.021425-.421255.152763-.829561.380952-1.184308-.255285.048079-.490758.170278-.677029.351345 0 0 .069085-.469775.789539-.509252 0 0 .365161-.503331.46188-.534913 0 0-.712559-.059215-1.144831.132248 0 0 .380952-.442142 1.275105-.240809l.501357-.408587s-.939551-.1283-1.336295.013817c0 0 .457933-.394769 1.470516-.106587l.544782-.325685c-.419133-.091753-.848473-.12825-1.277079-.108562 0 0 .503331-.27239 1.434987.021713l.394769-.173699s-.592154-.116457-.757957-.134221c-.165803-.017765-.181594-.065137-.181594-.065137.37139-.061776.752635-.019415 1.101406.122378 0 0 .813225-.303972.797434-.355292z"/><ellipse cx="206.792006" cy="135.315815" opacity=".1" rx="3.329879" ry="1"/><path d="m182.261041 134.030841s-5.68073-.343449-5.009622 3.6378c-.0715.413877.131726.826705.503331 1.022452 0 0 0-.296077.592154-.197385.204019.034478.411432.044418.617813.029608.278712-.018562.543617-.12813.75401-.311868s1.596842-.659264 2.218603-3.26869c0 0 .459907-.568467.440168-.716506l-.969158.41056s.327658.690847.069084 1.265236c0 0-.031581-1.239576-.215149-1.211942-.037503 0-.497409.240809-.497409.240809s.562546 1.204047.138169 2.080435c0 0 .161855-1.484333-.313842-1.993585l-.675055.394769s.657291 1.245497.211201 2.260054c0 0 .114483-1.557365-.353318-2.171231l-.611893.477671s.619788 1.225759.24081 2.068591c0 0-.047373-1.813965-.373057-1.95016 0 0-.534913.471749-.615841.665186 0 0 .422404.890205.159882 1.35998 0 0-.161855-1.207994-.294103-1.213915 0 0-.530965.801381-.592154 1.348137.026603-.50698.185135-.998225.459906-1.425117-.30741.058627-.590855.206183-.815198.424377 0 0 .082901-.566494.947446-.615841 0 0 .440168-.607944.558598-.643474 0 0-.860597-.073032-1.381692.157908 0 0 .457932-.532938 1.537626-.290155l.603997-.493462s-1.131014-.15396-1.612632.015791c0 0 .552677-.471749 1.776462-.126326l.657291-.39477s-.965211-.207253-1.541575-.132247c0 0 .607945-.327659 1.733038.027634l.469775-.211202s-.706637-.138169-.913891-.159882c-.207254-.021712-.217123-.078953-.217123-.078953.447764-.075904.907825-.025317 1.328399.146064 0 0 1.002714-.365161.984949-.426351z"/><ellipse cx="178.348877" cy="139.03849" opacity=".1" rx="4.020725" ry="1"/></g><g transform="translate(132.642487 10.606218)"><rect fill="#fff" height="60.285221" rx="4.737232" transform="matrix(.30918298 -.95100257 .95100257 .30918298 -1.144727 50.419195)" width="33.687639" x="17.288219" y="-4.145078"/><g fill="#00ab55"><circle cx="6.304466" cy="6.191957" opacity=".2" r="6.189983" transform="translate(10.777202 12.305236)"/><path d="m12.429711-8.399386h1.695534v26.968665h-1.695534z" opacity=".2" transform="matrix(.30918298 -.95100257 .95100257 .30918298 36.036485 31.800459)"/><path d="m5.986073-3.863402h1.695534v13.737972h-1.695534z" opacity=".2" transform="matrix(.30918298 -.95100257 .95100257 .30918298 32.378282 28.381161)"/><path d="m10.061897-6.824444h1.695534v22.21959h-1.695534z" opacity=".2" transform="matrix(.30918298 -.95100257 .95100257 .30918298 32.595177 37.286443)"/><path d="m12.365476-8.497802h1.695534v26.968665h-1.695534z" opacity=".2" transform="matrix(.30918298 -.95100257 .95100257 .30918298 32.138011 44.106617)"/><path d="m2.488861-.882332h3.278559v7.463114h-3.278559z" opacity=".5" transform="matrix(.30918298 -.95100257 .95100257 .30918298 44.079993 45.833253)"/></g></g><path d="m141.759135 75.964288h33.208776v51.697518h-33.208776z" fill="#fff" transform="matrix(.54075759 -.84117848 .84117848 .54075759 -12.915698 179.968857)"/></g><path d="m132.839417 95.376216h9.39551v2.210708h-9.39551z" fill="#dfe3e8" transform="matrix(.53626881 -.84404725 .84404725 .53626881 -17.654728 160.829385)"/><path d="m136.120277 92.282056h20.634592v2.02714h-20.634592z" fill="#dfe3e8" transform="matrix(.53626881 -.84404725 .84404725 .53626881 -10.838247 166.864323)"/><path d="m139.775386 94.602266h20.634592v2.02714h-20.634592z" fill="#dfe3e8" transform="matrix(.53626881 -.84404725 .84404725 .53626881 -11.101626 171.025362)"/><path d="m143.429436 96.926117h20.634592v2.02714h-20.634592z" fill="#dfe3e8" transform="matrix(.53626881 -.84404725 .84404725 .53626881 -11.368569 175.187194)"/><path d="m147.259576 100.340142h20.605683v2.0243h-20.605683z" fill="#dfe3e8" transform="matrix(.54075759 -.84117848 .84117848 .54075759 -12.896022 179.083386)"/><path d="m150.738287 101.569262h20.634592v2.02714h-20.634592z" fill="#f0f0f0" transform="matrix(.53626881 -.84404725 .84404725 .53626881 -11.89826 183.509381)"/><path d="m154.393396 103.889473h20.634592v2.02714h-20.634592z" fill="#f0f0f0" transform="matrix(.53626881 -.84404725 .84404725 .53626881 -12.16164 187.670419)"/><path d="m174.6833 99.680291h5.343203v5.343203h-5.343203z" fill="#dfe3e8" transform="matrix(.53626881 -.84404725 .84404725 .53626881 -4.144834 197.159681)"/><path d="m127.054528 72.1842017-30.2156432.3257909c-1.1310142.0118942-2.0419124.9315934-2.0429312 2.0626696v2.4969159c-.0007245 1.1197594-.8939097 2.0348364-2.0133234 2.0626696l-21.8031089.5230693c-.9508627.0238483-1.7947448-.605598-2.0429311-1.5238095l-1.0244264-3.7641253c-.2456912-.9080637-1.0746476-1.5348555-2.0152973-1.5238095l-29.1241056.3138416c-.6039057.0059146-1.1748814.2761995-1.5622575.7395318-.3873762.4633323-.5522323 1.0731599-.4510659 1.6685609l11.716753 68.958303c.1679331.989663 1.0233384 1.715133 2.0271404 1.71922l92.0088821.394781c.616554.002068 1.201773-.27151 1.595581-.745913s.554989-1.09998.439455-1.705616l-13.445843-70.3261784c-.187111-.9801791-1.049051-1.6858559-2.046878-1.6759019z" fill="url(#d)" fill-rule="nonzero"/><ellipse cx="28.231927" cy="131.539847" fill="#00ab55" fill-rule="nonzero" opacity=".1" rx="3.199605" ry="1"/><ellipse cx="15.976314" cy="132.781396" fill="#00ab55" fill-rule="nonzero" opacity=".1" rx="3.199605" ry="1"/><ellipse cx="20.881323" cy="136.320503" fill="#00ab55" fill-rule="nonzero" opacity=".1" rx="2.273871" ry="1"/><ellipse cx="8.161855" cy="136.008636" fill="#00ab55" fill-rule="nonzero" opacity=".1" rx="2.273871" ry="1"/><path d="m15.9072292 132.684678s4.4865532-14.709104-.7026894-20.601036c-3.8825561-4.4076-8.29015539-3.880583-10.26400193-3.335801-1.03292962.275927-1.89292221.990904-2.35282506 1.956082-.69084629 1.48828-.56649396 3.904268 4.30495928 6.724895 8.15396001 4.721441 8.66123861 11.197632 8.66123861 11.197632z" fill="#00ab55" fill-rule="nonzero"/><path d="m5.64520109 110.834197s13.22477181 4.145078 10.26400201 21.850481" stroke="#006b28" stroke-linecap="round" stroke-width=".5"/><path d="m13.3708364 112.316556s-1.8218603 1.227732-1.2415495 3.073279" stroke="#006b28" stroke-linecap="round" stroke-width=".5"/><path d="m6.97162596 113.410067s1.11324944-1.132988 2.46928201-.507279" stroke="#006b28" stroke-linecap="round" stroke-width=".5"/><path d="m12.2003454 119.106588s1.9560819-.986924 2.4613867.250678" stroke="#006b28" stroke-linecap="round" stroke-width=".5"/><path d="m17.0382433 121.173205s-1.4685418-.116457-1.4942018.592154" stroke="#006b28" stroke-linecap="round" stroke-width=".5"/><path d="m16.0888231 132.801135s-5.2563533-10.690353-6.69923514-10.461387c-.68492475.11251-1.00074019.789539-1.14483099 1.464594-.17716471.875853-.07712927 1.785141.28620775 2.60153.74611399 1.717247 2.74956818 4.964224 7.55785838 6.395263z" fill="#00ab55" fill-rule="nonzero"/><path d="m9.42906489 124.37281s5.51492721 7.998026 6.58080431 8.349371" stroke="#006b28" stroke-linecap="round" stroke-width=".5"/><path d="m8.921786 125.622255h1.286948" stroke="#006b28" stroke-linecap="round" stroke-width=".5"/><path d="m10.463361 128.547496 2.019245.086849" stroke="#006b28" stroke-linecap="round" stroke-width=".5"/><path d="m11.693067 126.206514-.219097 1.05206" stroke="#006b28" stroke-linecap="round" stroke-width=".5"/><path d="m13.838638 129.406119-.039477.955342" stroke="#006b28" stroke-linecap="round" stroke-width=".5"/><path d="m15.9328892 132.801135s5.2543795-10.690353 6.6972613-10.461387c.6868986.11251 1.002714.789539 1.144831 1.464594.1771647.875853.0771293 1.785141-.2862078 2.60153-.7461139 1.717247-2.751542 4.964224-7.5558845 6.395263z" fill="#00ab55" fill-rule="nonzero"/><path d="m22.5926474 124.37281s-5.5267703 7.998026-6.5827782 8.349371" stroke="#006b28" stroke-linecap="round" stroke-width=".5"/><path d="m23.099926 125.622255h-1.286948" stroke="#006b28" stroke-linecap="round" stroke-width=".5"/><path d="m21.558352 128.547496-2.019245.086849" stroke="#006b28" stroke-linecap="round" stroke-width=".5"/><path d="m20.328645 126.206514.219097 1.05206" stroke="#006b28" stroke-linecap="round" stroke-width=".5"/><path d="m18.183074 129.406119.039477.955342" stroke="#006b28" stroke-linecap="round" stroke-width=".5"/><path d="m6.90846287 135.298051c-.14300686-.116853-.24698099-.274536-.29805083-.452011-.05034272-.183703.03766589-.377156.20922773-.459906.19738466-.073033.39476931.059215.55267703.197384.15790773.13817.33752776.284234.53491241.250679-.21309249-.193055-.30904053-.483897-.25265235-.765853.00809211-.057387.03201497-.111384.06908463-.155933.10658771-.114484.30002467-.065137.42832469.02566.39476931.284233.51912164.834937.52109549 1.332346.01976642-.182376.01976642-.366354 0-.548729-.01060523-.186687.07224454-.366441.22107081-.479645.09608788-.052452.20442061-.078343.3138416-.075006.18342737-.026243.36934989.026878.51122625.146064.13824572.188245.13009721.446553-.01973846.62571-.15122581.169648-.33008378.312468-.52899088.422403-.15097493.090859-.2797728.214262-.37700468.361214-.01192761.019758-.02121779.040993-.02763386.063163h-1.14877868c-.25715695-.129733-.49553266-.293741-.7086109-.48754z" fill="#00ab55" fill-rule="nonzero"/><path d="m26.9331359 130.991118c-.1433391-.115727-.2474339-.272903-.2980508-.450037-.0506441-.183206.0364585-.376491.2072539-.459907.1973847-.073032.3947693.059216.552677.197385.1579078.138169.3355539.288182.5388601.258574-.2131386-.192238-.309794-.482205-.2546262-.763879.0087626-.057563.0333659-.111554.0710585-.155933.1065877-.114484.3000247-.065137.4283247.023686.4046386.286207.5191216.836911.5210955 1.33432.0197553-.183036.0197553-.367667 0-.550703-.017888-.184442.0558826-.365918.1973846-.485567.0965086-.051153.2046641-.076321.3138416-.073032.1830744-.025777.3685599.026503.5112263.144091.1387264.189092.1297487.448629-.0217123.627683-.1500993.170034-.3283811.312927-.527017.422403-.1510086.089972-.2798546.212747-.3770047.35924-.0115637.020638-.0208303.042481-.0276339.065137h-1.1231187c-.2590694-.130957-.4988465-.297008-.7125586-.493461z" fill="#00ab55" fill-rule="nonzero"/><path d="m20.2595608 135.298051c-.1429044-.117327-.247401-.27476-.3000247-.452011-.0503427-.183703.0376659-.377156.2092278-.459906.1973846-.073033.3947693.059215.552677.197384.1579077.13817.3335801.288182.5388601.260548-.2127969-.193299-.3093207-.483619-.2546262-.765852.0087625-.057564.0333659-.111554.0710585-.155934.1065877-.114483.3000247-.065137.4283247.02566.4046385.284234.5171478.834937.5210955 1.332346.019751-.182376.019751-.366353 0-.548729-.015519-.186179.0620778-.367977.2072539-.485566.0959831-.052724.2043911-.078633.3138416-.075007.1834098-.025987.3692299.027105.5112262.146065.1384106.18847.1294295.447287-.0217123.625709-.150502.169612-.3287061.312442-.527017.422404-.150975.090859-.2797728.214262-.3770047.361214-.0119276.019758-.0212178.040993-.0276339.063163h-1.144831c-.2544057-.131912-.4900597-.297202-.7007155-.491488z" fill="#00ab55" fill-rule="nonzero"/><circle cx="5.041204" cy="18.207501" fill="#00ab55" fill-rule="nonzero" opacity=".1" r="4.26943"/><circle cx="210.339008" cy="52.325438" fill="#00ab55" fill-rule="nonzero" opacity=".1" r="4.26943"/><circle cx="133.591907" cy="4.649149" fill="#00ab55" fill-rule="nonzero" opacity=".1" r="4.26943"/><circle cx="13.580064" cy="41.761411" fill="#00ab55" fill-rule="nonzero" opacity=".1" r="7.155194"/><path d="m85.2978041 99.3523316c-5.2653054 0-9.5336788 4.2683734-9.5336788 9.5336784 0 5.265306 4.2683734 9.533679 9.5336788 9.533679s9.5336788-4.268373 9.5336788-9.533679c0-5.265305-4.2683734-9.5336784-9.5336788-9.5336784z" fill="#007b55"/><path d="m85.2978041 100.461329c4.6528232 0 8.4246816 3.771858 8.4246816 8.424681 0 4.652824-3.7718584 8.424682-8.4246816 8.424682s-8.4246816-3.771858-8.4246816-8.424682c.0040763-4.651133 3.773548-8.420605 8.4246816-8.424681" fill="#00ab55" opacity=".72"/><path d="m81.3554187 109.582608-.4610351-.44992c-.0996293-.091047-.156165-.218299-.156165-.3515 0-.133202.0565357-.260454.156165-.3515l4.044862-3.950863c.0932959-.097227.2236914-.1524.3601836-.1524s.2668878.055173.3601836.1524l4.044862 3.947348c.0977222.092071.1529148.218941.1529148.3515s-.0551926.259428-.1529148.3515l-.461035.44992c-.0943462.095367-.2243498.149229-.3601836.149229s-.2658375-.053862-.3601836-.149229l-2.3916192-2.460501v5.838419c.0009598.129256-.0509842.253541-.144304.345271s-.2202962.143314-.3527494.143314h-.6663397c-.2765042 0-.5006552-.218747-.5006552-.488585v-5.831389l-2.3916192 2.460501c-.0948339.094908-.2251139.148137-.3609482.147474-.1358344-.000663-.2655624-.05516-.359419-.150989z" fill="#007b55"/></g></g></svg>