<svg height="260" viewBox="0 0 355 260" width="355" xmlns="http://www.w3.org/2000/svg" xmlns:xlink="http://www.w3.org/1999/xlink"><linearGradient id="a" x1="19.495903%" x2="77.479035%" y1="70.80977%" y2="18.23579%"><stop offset="0" stop-color="#00ab55"/><stop offset="1" stop-color="#00ab55" stop-opacity="0"/></linearGradient><filter id="b" height="158.5%" width="149.3%" x="-24.6%" y="-29.2%"><feOffset dx="12" dy="12" in="SourceAlpha" result="shadowOffsetOuter1"/><feGaussianBlur in="shadowOffsetOuter1" result="shadowBlurOuter1" stdDeviation="12"/><feColorMatrix in="shadowBlurOuter1" result="shadowMatrixOuter1" type="matrix" values="0 0 0 0 0   0 0 0 0 0.321568627   0 0 0 0 0.28627451  0 0 0 0.32 0"/><feMerge><feMergeNode in="shadowMatrixOuter1"/><feMergeNode in="SourceGraphic"/></feMerge></filter><linearGradient id="c"><stop offset="0" stop-opacity="0"/><stop offset=".97"/></linearGradient><linearGradient id="d" x1="41.479915%" x2="58.477801%" xlink:href="#c" y1="46.951312%" y2="56.472831%"/><linearGradient id="e" x1="49.107497%" x2="52.320508%" xlink:href="#c" y1="33.113067%" y2="105.804328%"/><linearGradient id="f" x1="49.318624%" x2="52.303699%" xlink:href="#c" y1="35.459986%" y2="98.479384%"/><linearGradient id="g" x1="50.386144%" x2="48.157255%" xlink:href="#c" y1="49.680154%" y2="51.536439%"/><linearGradient id="h" x1="52.266946%" x2="44.141853%" xlink:href="#c" y1="25.141723%" y2="113.309891%"/><linearGradient id="i" x1="87.698294%" x2="-39.434301%" xlink:href="#c" y1="23.935166%" y2="111.791043%"/><linearGradient id="j" x1="50.194019%" x2="48.971017%" xlink:href="#c" y1="49.897174%" y2="50.563638%"/><linearGradient id="k" x1="0%" x2="100%" xlink:href="#c" y1="50%" y2="50%"/><linearGradient id="l" x1="50.196754%" x2="48.95549%" xlink:href="#c" y1="49.894324%" y2="50.566806%"/><linearGradient id="m" x1="54.556307%" x2="31.817407%" xlink:href="#c" y1="50.838529%" y2="46.653923%"/><linearGradient id="n" x1="50.374274%" x2="49.625726%" xlink:href="#c" y1="49.936546%" y2="50.063373%"/><linearGradient id="o" x1="49.997158%" x2="49.997158%" xlink:href="#c" y1="-67.068758%" y2="248.914355%"/><linearGradient id="p" x1="49.997158%" x2="49.997158%" xlink:href="#c" y1="-67.108051%" y2="248.993644%"/><linearGradient id="q" x1="52.323612%" x2="42.220132%" xlink:href="#c" y1="43.7125%" y2="71.003833%"/><linearGradient id="r" x1="49.88842%" x2="50.336313%" xlink:href="#c" y1="50.032663%" y2="49.909695%"/><linearGradient id="s" x1="49.894833%" x2="50.298448%" xlink:href="#c" y1="49.248259%" y2="52.162005%"/><linearGradient id="t"><stop offset="0" stop-color="#00ab55"/><stop offset="1" stop-color="#007b55"/></linearGradient><linearGradient id="u" x1="49.756554%" x2="51.605499%" xlink:href="#t" y1="25.546385%" y2="100.936456%"/><linearGradient id="v" x1="60.878706%" x2="-12.850621%" xlink:href="#c" y1="45.000863%" y2="70.95493%"/><linearGradient id="w" x1="49.887871%" x2="50.739479%" xlink:href="#t" y1="25.546385%" y2="100.936456%"/><linearGradient id="x" x1="46.650564%" x2="65.619968%" xlink:href="#c" y1="48.437071%" y2="63.042091%"/><linearGradient id="y" x1="49.662212%" x2="52.227677%" xlink:href="#t" y1="49.63482%" y2="50.760663%"/><linearGradient id="z" x1="52.371161%" x2="45.636808%" xlink:href="#c" y1="33.383832%" y2="80.520156%"/><linearGradient id="A" x1="52.22365%" x2="45.912596%" xlink:href="#c" y1="35.288499%" y2="77.018894%"/><linearGradient id="B" x1="50.315502%" x2="49.064863%" xlink:href="#c" y1="49.132691%" y2="52.591745%"/><linearGradient id="C" x1="50.349611%" x2="48.951168%" xlink:href="#c" y1="48.871762%" y2="53.369279%"/><linearGradient id="D" x1="51.316614%" x2="47.836991%" xlink:href="#c" y1="44.958318%" y2="58.303239%"/><linearGradient id="E" x1="50.193762%" x2="48.97076%" xlink:href="#c" y1="49.893366%" y2="50.559829%"/><linearGradient id="F" x1="54.11093%" x2="40.587276%" xlink:href="#c" y1="30.564655%" y2="94.440707%"/><linearGradient id="G" x1="52.266946%" x2="44.141853%" xlink:href="#c" y1="25.140272%" y2="113.329232%"/><linearGradient id="H" x1="87.698294%" x2="-39.434301%" xlink:href="#c" y1="23.915058%" y2="111.801544%"/><linearGradient id="I" x1="49.997158%" x2="49.997158%" xlink:href="#c" y1="-67.108051%" y2="248.940678%"/><linearGradient id="J" x1="50.315502%" x2="49.064863%" xlink:href="#c" y1="49.132248%" y2="52.591745%"/><g fill="none" fill-rule="evenodd"><path d="m0 143.563853c0 29.941281 11.0533541 57.225145 29.2424179 77.845271 20.8668982 23.663283 51.1260382 38.540855 84.8550921 38.590876 14.740915.021266 28.835884-2.807239 41.782767-7.970785 6.694197-2.670882 14.186692-2.364349 20.670238.799997 7.605205 3.706917 16.121418 5.785326 25.114123 5.785326 3.714766 0 7.352579-.357227 10.871463-1.035244 10.044405-1.928706 19.184799-6.49265 26.691285-12.956786 4.717497-4.064144 10.759531-6.106909 16.934485-6.099781h.104937c20.404398 0 39.357558-6.306512 55.09343-17.113603 14.067764-9.649075 25.555635-22.891801 33.209811-38.440261 6.67321-13.54926 10.429951-28.855344 10.429951-45.054892 0-55.5609927-44.207975-100.6087554-98.733192-100.6087554-5.558547 0-11.004384.4784142-16.3173 1.3710843-14.067764-23.2062552-39.259618-38.6762999-67.997561-38.6762999-12.133038 0-23.635678 2.75721805-33.931932 7.69977496-9.791779 4.68513204-18.497656 11.34253444-25.619374 19.45577334-24.182127.3928699-46.5422385 8.4427426-64.843235 21.8771509-28.8079014 21.1349753-47.557406 55.6045578-47.557406 94.5311538z" fill="url(#a)" opacity=".24"/><g filter="url(#b)" transform="translate(32 10)"><g fill="#005249" fill-rule="nonzero" opacity=".24" transform="translate(45.689278 194.310722)"><path d="m5.71378556 39.8179431c7.70415754.7037199 15.43982494 1.0030635 23.17024074 1.0503282 6.6905908.0315099 13.5964989-.1733041 19.6831509-2.9514223 3.3347922-1.5229759 6.3439825-3.7916849 9.8468272-4.873523 3.2980306-1.0188183 6.8271335-.9295404 10.2354486-1.3864332s7.0109409-1.654267 9.0118161-4.463895l-13.0660831-4.3431072c-1.6541103-.6055243-3.3588803-1.062473-5.0940919-1.3654267-2.2162507-.2424287-4.4535135-.2195095-6.6643326.0682713-8.3829753.8080194-16.7061054 2.1481398-24.9190372 4.0122539-4.6004376 1.0503282-6.9899344 3.7811816-10.9811816 5.5352297-3.2140044 1.4126915-5.1413567.2993436-8.40262585.2100657-7.58862144-.204814-13.00306346 7.5781181-2.82013129 8.5076586z"/><path d="m77.487965 5.64551422c-1.9221007.03150985-4.5059081.63019694-4.4798484 2.5522976 6.9323648 2.14792118 14.3949469-.22582057 21.6527149.03150984 9.7575495.34660832 18.6433265 5.41444204 27.0774615 10.34573304-3.323189-.0810762-6.431421 1.6376878-8.12954 4.4954048 19.005689 2.0061269 38.042888-2.8411378 57.148359-3.1509847 19.998249-.3045952 40.03326 4.390372 59.868709 1.9273523-.346609-1.6122538-2.289716-2.2266958-3.917725-2.4735229-8.344857-1.2603939-16.847264-.687965-25.265645-1.2288841-8.418381-.540919-17.136105-2.3684901-23.700657-7.667396 6.814821-1.62144074 13.399284-4.0914965 19.599125-7.35229762-3.938731-1.85382932-8.533917-1.28665208-12.856017-.76673961-28.682502 3.46554957-57.699793 3.07698033-86.2792127-1.15536105-.9873086 1.96936543 2.0218817 3.4345733 4.2013127 3.60787746l47.894967 3.80218819c5.487965.43588621 11.42232 1.05032822 15.45558 4.80525163-21.179868 4.0647702-50.284464-.1365427-70.2354483-8.37111597-3.2770241-1.35492341 2.04814-5.17286652-1.4862145-4.8-4.1015317.43063458-11.6166302 5.30940919-16.5479212 5.39868709z"/></g><path d="m73.8275711 99.3242888c.6802548.8637152 1.0001568 1.9570272.892779 3.0512032-.0525164.4779-.1785558.950547-.204814 1.428447-.0495028.484408.1045847.967596.4253829 1.333917.2835887.273085.7299782.446389.7982495.829759.0997812.525164-.5514223.835011-.9347921 1.213129-.340908.421164-.5751122.918398-.6827134 1.449453-.2379241.775993-.5620467 1.522884-.9663019 2.226696-.3514782.740633-.9544591 1.332447-1.7015318 1.670022-.5251641.189059-1.1658643.141794-1.6647702.430634-1.1763676.677462-.8980307 2.625821-1.990372 3.460832-.3134536.210957-.6743371.340876-1.0503282.378118-.8624886.130037-1.7441746.011629-2.5417943-.341357-.3593985-.138053-.6699939-.379221-.892779-.693216-.2085577-.424661-.2836245-.902526-.2153173-1.370679.0892779-1.575492.3045952-3.182494.2520787-4.773742-.0262582-.850765-.1260393-1.701531-.1155361-2.552297.0233391-2.554959 1.1771548-4.968357 3.1509847-6.59081 2.0187686-1.5959918 4.7228604-2.0257813 7.1369803-1.1343542l-.467396-.5251642" fill="#ba8b72"/><g fill-rule="nonzero"><path d="m65.414442 103.656893c-.7366777.191292-1.1969814.923175-1.0503282 1.670022.1901845.722938.8286812 1.237992 1.5754923 1.270897l-1.6752735 3.219256c-.1417943.273085-.3781182.598687-.6774617.525164s-.3728665-.483151-.4306346-.803501c-.1785558-1.013567-.9768052-1.79081-1.4284464-2.715099-.6617067-1.349671-.5251641-2.935667-.409628-4.432385.1207878-1.333917.2573304-2.7308531.9820569-3.859956.4257492-.6072101.9492648-1.1395987 1.5492342-1.5754923.9998088-.8490257 2.2097737-1.4131922 3.5028446-1.6332604 1.0905418-.0770701 2.1856695.0584831 3.2245077.3991247 1.0425693.22457 2.0220633.6784382 2.867396 1.3286652.8476632.6782244 1.2246803 1.7867367.966302 2.8411379-1.5754924.2100659-4.6371991 0-5.8713348 1.1501089-1.0503282.992561-.336105 3.150985-1.6962801 3.828447-.0525164-.908534-.6722101-1.097593-1.4284464-1.213129z" fill="#25233a"/><path d="m78.863895 98.0218818c-.483151-.2888402-2.6258206-1.1868709-3.1142232-1.4757111-.0945296-1.7015318-1.9273523-3.922976-4.4428884-4.8630197-1.8800876-.6774617-5.7452954-.6774617-8.8122539 1.6227571-3.481838 2.6258206-2.9934354 7.0266959-3.0301969 8.1768049-.0126784.500151.2307225.972199.6455284 1.251927s.9436701.328464 1.4026116.129255c.9298732-.420254 1.8838445-.785007 2.8568928-1.092341l4.2013129-1.050329c2.9671773-.7877458 7.3155361-1.9326036 10.2932167-2.6993432z" fill="#00ab55"/><path d="m78.2231947 97.7435449-12.4201312 3.2140041 4.09628-2.1794308 1.1238512-.5934355 1.9010941-.6617068 2.137418-.7352297.687965-.2415755z" fill="url(#d)"/><path d="m65.8030635 101.372429-3.7129103 6.827133-.8507659-2.07965 1.171116-2.053391-1.3549234-.976805 1.4389496-.651204.9347922.745733.3833698-1.234136z" fill="#65657f"/><path d="m59.9842451 102.632823s.5881838.152297 2.1006564-.525164c1.2128258-.489057 2.4633135-.878956 3.7391685-1.165865l5.2201313-2.7728662s-6.6380744-3.3400438-10.5557987.4463895c-.0210065.0105033-1.5439825 2.1059077-.5041575 4.0175057z" fill="#00ab55"/><path d="m59.9054705 97.1291028s2.8411378-4.8787746 7.3943107-4.8630577c2.1476797.0170162 4.219384.7969301 5.8450766 2.2004757 0 0-7.8249453-4.9207878-13.2393873 2.662582z" fill="url(#e)"/><path d="m59.8004376 102.217943s.0525164.750985 1.3076587.262582c1.2551422-.488402 5.0363238-1.575492 5.0363238-1.575492l1.7487965-1.0503284s-7.3995623 2.8411374-8.092779 2.3632384z" fill="url(#f)"/><path d="m61.8170678 219.849453c8.5717724-16.417419 13.715805-34.406346 15.1194749-52.873523.1260394-1.680525.1943107-3.48709-.6932167-4.920788-1.69628-2.75186-5.6875273-2.589059-8.8805251-2.100656-1.449453.231072-3.087965.593435-3.8126915 1.864332-.5251641.940044-6.0551422 4.343108-5.5509847 5.298906 3.6761488 6.937418 5.1676149 15.833698 3.3295405 25.081838-1.8065645 9.101094-5.0520788 15.828447-6.3544858 24.913786.7404814.06302 6.5592998 3.271772 6.8428884 2.736105z" fill="#212b36"/><path d="m231.613129 62.883151h9.31116v133.817068h-9.31116z" fill="#00ab55"/><path d="m235.567615 62.883151h5.356674v133.817068h-5.356674z" fill="url(#g)"/><path d="m240.924289 91.3680525c0-.2940919 33.463457 11.4328225 33.463457 11.4328225l.79825 11.495843-35.002189-12.666959-.089277-10.2671469z" fill="#00ab55"/><path d="m240.089278 92.3553611c0-.294092 34.298468 12.0525159 34.298468 12.0525159l.79825 9.40569-35.002189-12.666959z" fill="url(#h)"/><path d="m238.30372 93.6577681c0-.294092 33.458206 11.4328229 33.458206 11.4328229l.798249 10.760613-35.002188-12.666959-.105033-9.5527352z" fill="#00ab55"/><path d="m237.468709 94.3929978c0-.2940919 34.293217 12.0525162 34.293217 12.0525162l.798249 9.40569-35.002188-12.666959z" fill="url(#i)"/><path d="m268.663457 74.263457h9.31116v137.897593h-9.31116z" fill="#00ab55"/><path d="m269.72954 74.263457h9.31116v137.897593h-9.31116z" fill="url(#j)"/><path d="m272.381619 74.263457h1.31291v137.897593h-1.31291z" fill="#00ab55"/><path d="m272.455142 147.014442v1.72779l-.162801 7.672648-34.587308-11.595624-.057768-.021007.446389-9.043326z" fill="#00ab55"/><path d="m272.292341 148.348359v8.885777l-34.587308-12.41488.388621-7.751422z" fill="url(#k)"/><path d="m134.694092 60.036762h9.31116v136.663457h-9.31116z" fill="#00ab55"/><path d="m135.760175 60.036762h9.31116v136.663457h-9.31116z" fill="url(#l)"/><path d="m140.418381 135.618381h92.381619v8.707221h-92.381619z" fill="#00ab55"/><path d="m140.418381 135.618381h92.381619v8.707221h-92.381619z" fill="url(#m)"/><path d="m143.915974 135.618381h87.697155v1.192123h-87.697155z" fill="url(#n)"/><path d="m140.418381 90.900657h92.381619v8.707221h-92.381619z" fill="#00ab55"/><path d="m140.418381 90.900657h92.381619v8.707221h-92.381619z" fill="url(#o)"/><path d="m141.626258 93.195624h92.381619v8.707221h-92.381619z" fill="#00ab55"/><path d="m140.418381 91.987746h92.381619v9.915098h-92.381619z" fill="url(#p)"/><path d="m171.917724 103.588621-27.912472-10.3929974v2.268709l27.912472 10.3877464z" fill="#00ab55"/><path d="m171.917724 103.588621-27.912472-10.3929974v2.268709l27.912472 10.3877464z" fill="url(#q)"/><g fill="#00ab55"><path d="m144.005252 93.195624h87.607878v1h-87.607878z"/><path d="m144.005252 90.291466h87.607878v1h-87.607878z"/><path d="m138.412254 60.036762h5.592998v136.663457h-5.592998z"/></g><path d="m138.412254 60.036762h5.592998v136.663457h-5.592998z" fill="url(#r)"/><path d="m179.910722 149.330416h92.381619v8.707221h-92.381619z" fill="#00ab55"/><path d="m179.910722 150.533042h92.381619v7.499344h-92.381619z" fill="url(#s)"/><path d="m97.7435449 126.517287c-.5251642 3.560612-1.990372 7.089715-4.6844639 9.452954-2.6940919 2.363238-6.7168491 3.413566-10.0358863 2.011378-3.4713347-1.465208-5.4512035-5.073085-7.1632385-8.402626-.0367615 8.439388 3.3505471 16.805252 2.1741795 25.139607-.087325 1.219155-.5229769 2.387578-1.2551423 3.366302-.9032822 1.050328-2.3002188 1.486214-3.628884 1.853829-4.6407309 1.26328-9.3867677 2.101747-14.1794311 2.505033-.4621444.036761-.9190372.078774-1.3811816.105032-.5566739-2.751859-.7877462-6.33873-.8297593-10.708096 0-.430634 0-.877024 0-1.323413 0-3.508097.0840263-7.478337.2153173-11.879213 0-.32035 0-.6407 0-.96105 0-.036761 0-.068271 0-.105033 0-.036761 0-.115536 0-.210065 0-.246828 0-.630197.0315099-1.050329 0-.105032 0-.215317 0-.325601 0-.110285 0-.220569 0-.336105 0-.210066 0-.420132 0-.619694 0-.115536 0-.236324 0-.346608 0-.525164 0-.924289 0-.924289.0910284-2.730854.1785558-5.605252.262582-8.623195 0-.388621 0-.771991.0262582-1.165864.014497-1.071129.1412288-2.137789.3781182-3.182495.3744939-1.737561 1.4079365-3.262312 2.883151-4.253829 1.1030307-.724141 2.2966751-1.299774 3.5501094-1.712035 5.0205689-1.7593 10.9916849-.708972 14.5838074 3.07221.6182231.658173 1.1721613 1.373896 1.654267 2.137418.7982494 1.218381 1.4599562 2.520788 2.1531728 3.812691.6923694 1.375025 1.5023913 2.687576 2.4210066 3.922976.8297593 1.050328 2.0376368 2.053392 3.3452954 1.82232 1.8800875-.336105 2.3947484-2.75186 2.4157549-4.647703.0379367-3.1435-.1375211-6.285951-.5251641-9.405689 2.4013763-.219915 4.8210222-.131671 7.2.262582.2972237 1.924655.4952969 3.863319.5934355 5.808315.0799903 1.639589.0114394 3.283053-.204814 4.910285z" fill="url(#u)"/><path d="m67.6516411 141.773304c-1.4074398 2.294967-3.3242888 4.232823-5.2516411 6.091904-.9085339.866521-.3781182 11.317287-1.3181619 12.157549-.3413567.304595-1.1763676 1.333917-2.1006565 2.415755-.4621444.036762-.9190372.078775-1.3811816.105033-.556674-2.75186-.7877462-6.338731-.8297593-10.708096 0-.430635 0-.877024 0-1.323414 0-3.508096.0840263-7.478337.2153173-11.879212 0-.32035 0-.6407 0-.961051 0-.036761 0-.068271 0-.105032 0-.036762 0-.115536 0-.210066 0-.246827 0-.630197.0315098-1.050328 0-.105033 0-.215318 0-.325602s0-.220569 0-.336105c0-.210066 0-.420131 0-.619694 0-.115536 0-.236324 0-.346608 0-.525164 0-.924289 0-.924289.6564552-.572429 1.1343545 1.827571 1.2551423 2.14267.0399473.104328.0986867.200447.1733041.283588.1069588.084424.2425442.12397.3781182.110285.6248972-.100001 1.1882469-.434255 1.5754923-.934792 1.0293217-1.029322 2.0078775-2.104158 2.9356674-3.224508l6.2074398 1.974617c.4043764 2.667834-.4778993 5.372429-1.8905908 7.667396z" fill="url(#v)"/><path d="m68.7964989 133.937856c-1.8223195 7.478337-7.2472648 14.704595-12.0315098 16.574179-1.9588622.761488-3.8074399.630197-5.2516412-.750985-2.6258205-2.347483-3.1509847-11.028446-2.3474836-20.754485.0904113-1.200703.3339612-2.384921.7247265-3.523852.5584326-1.555019 1.4046866-2.990979 2.4945296-4.232822 2.2421934-2.416505 5.1343617-4.1343 8.3291028-4.947046l-.0472648.210065-.8507658 4.138294-.8980307 4.348358-1.8013129 8.743983-1.0503282 5.036324c0 .572429.3518599.420131.8875273-.147046 1.4967178-1.575493 4.4796499-6.391248 5.7400438-7.394311.0377019-.028385.072847-.060016.1050328-.09453z" fill="url(#w)"/><path d="m82.4980306 123.844201c-.1733041.036762-.3571116.057768-.5251641.084027-3.8547046.456892-7.7461707.304595-11.6218818.388621-3.8757112.084026-7.6253829.399125-11.4380744.682713l-1.5387309.120788c-2.4892779.168053-4.989059.315099-7.4888402.362363.5584326-1.555019 1.4046866-2.990979 2.4945295-4.232822.3680629-.084317.7420094-.140496 1.1185996-.168053 1.4284464-.115536 2.8516411-.220569 4.2800875-.309847.6774617-.047265 1.3549234-.084026 2.0323851-.120787 4.537418-.262583 9.0695843-.425383 13.6017506-.588184 2.3107221-.078775 4.6214442-.15755 6.9269146-.03151.8035011 1.218381 1.4652079 2.520788 2.1584245 3.812691z" fill="url(#x)"/><path d="m72.0682713 188.308096c5.6822757 7.415318 11.0547046 15.754924 11.5536105 25.060832.0945296 1.675273.2835887 3.754923 1.8485777 4.364114.7508749.208331 1.5459155.195566 2.2897156-.036762l5.7768052-1.192122-3.5973742-16.106784c-.9032822-4.06477-1.8223194-8.166302-3.5343545-11.963238-1.2026258-2.662582-2.7781181-5.141357-4.0752735-7.767178-3.2717724-6.627571-4.668709-13.995623-6.0341356-21.263895-6.7588622.441138-22.1094092-2.568052-18.2862145 7.735668 3.0354486 8.22407 9.7365427 13.811816 14.0586433 21.169365z" fill="#454f5b"/><path d="m87.4713348 219.928228c.1043184.373234.2829442.721554.5251641 1.02407.505913.48965 1.2265333.687623 1.9115974.525164.6723488-.165767 1.3116438-.444571 1.8905908-.824508.3240553-.15164.601523-.387397.8035011-.682713.1916394-.511427.1727549-1.077963-.0525164-1.575493l-.9505471-3.00919c-.029075-.182871-.1364702-.343964-.2940919-.441138-.2074423-.039481-.4213799.020811-.5776805.162801-1.0503282.698468-2.6258206.787746-3.5921225 1.480963-.966302.693216-.0367615 2.294967.336105 3.340044z" fill="#b78103"/><path d="m55.3785558 221.351422c.9434182.620596 1.9860159 1.075289 3.0827133 1.34442.1707861.054672.3543781.054672.5251642 0 .2520787-.089277.3676148-.372866.4516411-.624945l1.3601751-3.896718c-.1628009.472648-2.9146609-1.911597-3.5658644-1.670021-1.2131291.477899-1.6175055 3.749671-1.8538293 4.847264z" fill="#b78103"/><path d="m91.3417943 218.568053c.5889177-.21032 1.2037793-.3393 1.8275711-.38337 1.7487965-.042013 3.4188184 1.244639 5.1203501.845514.440454-.15335.889329-.28135 1.3444202-.38337 1.1192933-.04236 2.1004873.742147 2.3054703 1.843326.163893 1.084818-.187612 2.184-.950547 2.972429-.762404.769966-1.666535 1.385204-2.662582 1.811816-2.0458056 1.005728-4.2386731 1.679365-6.4962801 1.995624-.5677207.113987-1.1551226.081454-1.7067833-.09453-.4500582-.204838-.8444497-.514588-1.1501094-.903282-1.0923414-1.249891-2.3317287-3.445077-2.137418-5.188621.204814-1.843326 3.0407002-2.063895 4.5059081-2.515536z" fill="#7a4f01"/><path d="m60.1207877 221.881838c.2470876.069647.4787434.185475.6827134.341357.2282723.255981.3937035.561669.483151.892779.5944013 1.569808 1.6168776 2.9416 2.9514223 3.959737.555024.342801 1.0426926.784194 1.4389497 1.302407.392711.547554.311312 1.302755-.1890591 1.754048-.3027161.166862-.6481985.23998-.9925602.210066-1.1388898-.031615-2.2742166-.142165-3.3978118-.330853-3.0512035-.441138-6.3019694-.971554-8.5916849-3.035449-.6260432-.488923-1.0488535-1.192359-1.1868709-1.974617-.0945295-.997812.5251641-1.785558 1.0503282-2.562801.3781182-.567177.8665208-1.832823 1.4599563-2.205689 1.3391685-.824508 4.9207877 1.176367 6.291466 1.649015z" fill="#7a4f01"/><path d="m127.205252 110.273961s-.036762.572428-.084027 1.449453c-.157549 2.741356-.488402 8.434135-.525164 8.533916-.036761.099782-125.93960586 5.577243-125.93960586 5.577243l-.52516411-7.352297-.13129103-1.423195 7.35229759-.068271z" fill="#00ab55"/><path d="m127.121225 111.723414c-.157549 2.741356-.488402 8.434135-.525164 8.533916-.036761.099782-125.93960586 5.577243-125.93960586 5.577243l-.52516411-7.352297 7.22100656-.057768z" fill="#005249"/><path d="m127.205252 113.797812s-.036762.572429-.084027 1.449453c-.157549 2.746608-.488402 8.439387-.525164 8.533917-.036761.094529-125.93960586 5.561488-125.93960586 5.561488l-.52516411-7.352298-.13129103-1.40744 7.35229759-.068271z" fill="url(#y)"/><path d="m138.412254 146.4 40.86302 12.514661-.026259-10.424508-40.836761-12.540919z" fill="#00ab55"/><path d="m179.275274 158.914661h-.005252l-40.857768-12.509409v-10.456018l40.836761 12.540919z" fill="url(#z)"/><path d="m179.270022 158.914661-40.857768-12.509409v-9.200876l40.836761 12.540919z" fill="url(#A)"/><path d="m179.910722 104.612691h92.381619v8.434136h-92.381619z" fill="#00ab55"/><path d="m179.910722 105.852079h92.381619v7.194748h-92.381619z" fill="url(#B)"/><path d="m179.910722 107.080963h92.381619v9.642013h-92.381619z" fill="#00ab55"/><path d="m179.910722 108.32035h92.381619v8.360613h-92.381619z" fill="url(#C)"/></g><path d="m67.4258206 133.018818c1.3286652-1.607002 1.8485776-3.219256 2.4630197-5.214879.1838074-.598687-.3991248-.624946-1.0870898 1.013566.1733042-1.160612.5251642-3.035448.5251642-3.481838-.6144421-.567177-.7509847.467396-.9242889.887528-.2723307.55608-.5159764 1.125756-.7299781 1.706783.1050328-.997812.0945295-1.465208.1995624-2.46302 0-.183807 0-.435886-.1838075-.477899-.9452954.189059-.5724289 2.389497-1.4126914 3.229759.1365426-.919037.2783369-3.093216 0-2.951422-.5251642 0-.7772429.67221-.8717725 1.202626l-.5251641 2.97768c-.2940919-.089277-.3518599-.467396-.4253829-.766739-.073523-.299344-.3938731-.630197-.6407002-.44639-.0804549.070229-.1327019.167259-.147046.273086-.0265978.376709.0017069.755285.0840263 1.123851.068106.727823-.1851028 1.449084-.6932167 1.974617 1.3902224.655375 2.8586063 1.130129 4.3693655 1.412691z" fill="#ba8b72"/><g fill-rule="nonzero"><path d="m138.412254 135.949234h9.31116l24.19431 6.59081v3.707658z" fill="url(#D)"/><path d="m138.412254 60.036762h1.31291v136.663457h-1.31291z" fill="#00ab55"/><path d="m171.917724 74.137418h9.31116v137.897593h-9.31116z" fill="#00ab55"/><path d="m172.983807 74.137418h9.31116v137.897593h-9.31116z" fill="url(#E)"/><path d="m175.635886 74.137418h1.31291v137.897593h-1.31291z" fill="#00ab55"/><path d="m139.725164 93.8678337 32.19256 11.9842453v10.828884l-32.19256-13.979869z" fill="#00ab55"/><path d="m139.725164 95.254267 32.19256 11.989497v9.437199l-32.19256-13.979869z" fill="url(#F)"/><path d="m144.005252 93.1956236 27.912472 10.3929974v1.239388l-27.912472-10.3614882z" fill="#00ab55"/><path d="m231.613129 2.84639h9.31116v81.831072h-9.31116z" fill="#00ab55"/><path d="m235.567615 2.84639h5.356674v133.817068h-5.356674z" fill="url(#g)"/><path d="m240.924289 31.3260394c0-.2888403 33.463457 11.4380744 33.463457 11.4380744l.79825 11.4800875-35.002189-12.6669584-.089277-10.2722101z" fill="#00ab55"/><path d="m240.089278 32.3133479c0-.2888402 34.298468 12.0787746 34.298468 12.0787746l.79825 9.3846828-35.017943-12.6617068z" fill="url(#G)"/><path d="m238.30372 33.6210066c0-.2940919 33.458206 11.4328227 33.458206 11.4328227l.798249 10.7658644-35.002188-12.6669585-.089278-9.5317286z" fill="#00ab55"/><path d="m237.468709 34.3562363c0-.2940919 34.293217 12.0787746 34.293217 12.0787746l.798249 9.3846828-35.002188-12.6669585z" fill="url(#H)"/><path d="m268.663457 14.226696h9.31116v137.897593h-9.31116z" fill="#00ab55"/><path d="m269.72954 14.226696h9.31116v137.897593h-9.31116z" fill="url(#j)"/><path d="m272.381619 14.226696h1.31291v137.897593h-1.31291z" fill="#00ab55"/><path d="m134.694092 0h9.31116v136.663457h-9.31116z" fill="#00ab55"/><path d="m135.760175 0h9.31116v136.663457h-9.31116z" fill="url(#l)"/><path d="m140.418381 30.863895h92.381619v8.707221h-92.381619z" fill="#00ab55"/><path d="m140.418381 30.863895h92.381619v8.707221h-92.381619z" fill="url(#o)"/><path d="m141.626258 33.158862h92.381619v8.707221h-92.381619z" fill="#00ab55"/><path d="m140.418381 31.950985h92.381619v9.915098h-92.381619z" fill="url(#I)"/><path d="m171.917724 43.55186-27.912472-10.3929979v2.2634574l27.912472 10.3929978z" fill="#00ab55"/><path d="m171.917724 43.55186-27.912472-10.3929979v2.2634574l27.912472 10.3929978z" fill="url(#q)"/><path d="m144.005252 33.158862h87.607878v1h-87.607878z" fill="#00ab55"/><path d="m144.005252 30.254705h87.607878v1h-87.607878z" fill="#00ab55"/><path d="m138.412254 0h5.592998v136.663457h-5.592998z" fill="#00ab55"/><path d="m138.412254 0h5.592998v136.663457h-5.592998z" fill="url(#r)"/><path d="m179.910722 44.57593h92.381619v8.434136h-92.381619z" fill="#00ab55"/><path d="m179.910722 45.815317h92.381619v7.194748h-92.381619z" fill="url(#J)"/><path d="m179.910722 47.044201h92.381619v9.642013h-92.381619z" fill="#00ab55"/><path d="m179.910722 48.283589h92.381619v8.360613h-92.381619z" fill="url(#C)"/><path d="m138.412254 0h1.31291v136.663457h-1.31291z" fill="#00ab55"/><path d="m171.917724 14.100657h9.31116v137.897593h-9.31116z" fill="#00ab55"/><path d="m172.983807 14.100657h9.31116v137.897593h-9.31116z" fill="url(#E)"/><path d="m175.635886 14.100657h1.31291v137.897593h-1.31291z" fill="#00ab55"/><path d="m139.725164 33.8310722 32.19256 11.9842451v10.828884l-32.19256-13.9798687z" fill="#00ab55"/><path d="m139.725164 35.2175055 32.19256 11.9894967v9.4371991l-32.19256-13.9798687z" fill="url(#F)"/><path d="m144.005252 33.1588621 27.912472 10.3929979v1.2341356l-27.912472-10.3614879z" fill="#00ab55"/></g><path d="m91.8669584 111.198249c-.2758765.338709-.4876576.724898-.6249453 1.139607-.1497478.318708-.2268767.666684-.2258312 1.018818.0078244.360328.2378612.678197.5776912.798249.0888036.03099.1867395.021389.2678337-.026258.0560836-.043936.0995639-.10191.1260394-.168052.2842592-.538975.5265523-1.099058.7247264-1.675274-.4371004.546635-.5247229 1.294483-.2258205 1.927352.1050328.215318.3098468.425383.5251641.372867s.2993435-.283589.3571116-.488403c.1365427-.483151.2468271-.971553.336105-1.459956-.0732593.314198-.1206823.633865-.1417943.955799-.0168189.165481.0047464.332611.0630197.488402.0648953.158126.2232745.257377.3938731.246828.1405586-.040161.2606646-.132118.336105-.257331.3721801-.483889.6810252-1.013338.9190372-1.575492-.1128522.522018-.0911667 1.064155.0630197 1.575492.0220503.078508.0679243.148237.131291.199563.2153173.1628.5251642-.078775.6512035-.309847.2762219-.437747.4818023-.916253.6091904-1.417943.0826638-.264976.1006714-.545895.0525164-.819256-.052134-.281869-.2532656-.51317-.5251641-.603939-.276512-.070444-.5586774.092792-.6354486.367615.0472648-.35186-.3466083-.635449-.6984682-.598687-.3495551.070715-.6571343.276397-.8560175.572429-.0275673-.33796-.2972716-.605436-.6354486-.630197-.614442-.057768-1.0608315-.194311-1.5649891.367614z" fill="#ba8b72"/></g></g></svg>