<svg height="260" viewBox="0 0 355 260" width="355" xmlns="http://www.w3.org/2000/svg" xmlns:xlink="http://www.w3.org/1999/xlink"><linearGradient id="a" x1="19.495903%" x2="77.479035%" y1="70.80977%" y2="18.23579%"><stop offset="0" stop-color="#00ab55"/><stop offset="1" stop-color="#00ab55" stop-opacity="0"/></linearGradient><filter id="b" height="181.7%" width="154.8%" x="-27.4%" y="-40.8%"><feOffset dx="12" dy="12" in="SourceAlpha" result="shadowOffsetOuter1"/><feGaussianBlur in="shadowOffsetOuter1" result="shadowBlurOuter1" stdDeviation="12"/><feColorMatrix in="shadowBlurOuter1" result="shadowMatrixOuter1" type="matrix" values="0 0 0 0 0   0 0 0 0 0.321568627   0 0 0 0 0.28627451  0 0 0 0.32 0"/><feMerge><feMergeNode in="shadowMatrixOuter1"/><feMergeNode in="SourceGraphic"/></feMerge></filter><linearGradient id="c" x1="50%" x2="50%" y1="0%" y2="100%"><stop offset="0" stop-color="#c8facd"/><stop offset="1" stop-color="#007b55"/></linearGradient><linearGradient id="d"><stop offset=".01"/><stop offset=".08" stop-opacity=".69"/><stop offset=".21" stop-opacity=".32"/><stop offset="1" stop-opacity="0"/></linearGradient><linearGradient id="e" x1="27.933125%" x2="70.177194%" xlink:href="#d" y1="-12.060727%" y2="133.539339%"/><linearGradient id="f" x1="77.691485%" x2="12.187876%" xlink:href="#d" y1="82.423977%" y2="-9.40635%"/><linearGradient id="g" x1="77.92999%" x2="11.160008%" xlink:href="#d" y1="-32.312173%" y2="175.644972%"/><linearGradient id="h" x1="82.878748%" x2="5.10478%" xlink:href="#d" y1="82.423977%" y2="-9.40635%"/><g fill="none" fill-rule="evenodd"><path d="m0 143.563853c0 29.941281 11.0533541 57.225145 29.2424179 77.845271 20.8668982 23.663283 51.1260382 38.540855 84.8550921 38.590876 14.740915.021266 28.835884-2.807239 41.782767-7.970785 6.694197-2.670882 14.186692-2.364349 20.670238.799997 7.605205 3.706917 16.121418 5.785326 25.114123 5.785326 3.714766 0 7.352579-.357227 10.871463-1.035244 10.044405-1.928706 19.184799-6.49265 26.691285-12.956786 4.717497-4.064144 10.759531-6.106909 16.934485-6.099781h.104937c20.404398 0 39.357558-6.306512 55.09343-17.113603 14.067764-9.649075 25.555635-22.891801 33.209811-38.440261 6.67321-13.54926 10.429951-28.855344 10.429951-45.054892 0-55.5609927-44.207975-100.6087554-98.733192-100.6087554-5.558547 0-11.004384.4784142-16.3173 1.3710843-14.067764-23.2062552-39.259618-38.6762999-67.997561-38.6762999-12.133038 0-23.635678 2.75721805-33.931932 7.69977496-9.791779 4.68513204-18.497656 11.34253444-25.619374 19.45577334-24.182127.3928699-46.5422385 8.4427426-64.843235 21.8771509-28.8079014 21.1349753-47.557406 55.6045578-47.557406 94.5311538z" fill="url(#a)" opacity=".24"/><g filter="url(#b)" transform="translate(53 55)"><g fill-rule="nonzero"><path d="m131.069388 48.7795918h11.363265c2.209139 0 4 1.790861 4 4v85.0000002h-19.363265v-85.0000002c0-2.209139 1.790861-4 4-4z" fill="url(#c)" opacity=".5"/><path d="m88.1428571.06938776h11.3632653c2.2091386 0 3.9999996 1.790861 3.9999996 4v137.00000024h-19.3632649v-137.00000024c0-2.209139 1.790861-4 4-4z" fill="url(#c)" opacity=".51725"/><path d="m251.82449 140.334694c-.816327 2.367347-1.742857 4.857143-2.828572 7.4-3.873469.110204-7.755102.212245-11.624489.32653-2.551021.069388-5.261225.187756-7.346939 1.632654-3.967347 2.722449-.530612 4.640816-.971429 7.346938-.514285 3.204082-3.759183 3.865306-6.881632 3.877551-10.767347.044898-21.183674 3.49796-31.751021 5.579592-10.567347 2.081633-22.110204 2.677551-31.514286-2.567347-.648979-.355102-1.322449-.795918-1.567346-1.493877-.444898-1.253062.70204-2.469388 1.795918-3.22449 2.421461-1.656127 5.136676-2.835029 8-3.473469 1.689796-.379592 3.473469-.587756 4.95102-1.49796s2.522449-2.836734 1.783674-4.404081c-24.533334 1.52653-49.016327 3.678911-73.44898 6.457143-31.4285713 3.57551-62.5142856 9.795918-94.06530596 12.044898l-.29387755.028571c-2.21976992-2.191634-4.23999131-4.57656-6.03673469-7.126531.13175031-.190373.27774711-.370481.43673469-.538775 1.55510204-1.661225 3.80408163-2.44898 5.97959184-3.126531 12.13469387-3.755102 24.75510207-5.657143 37.32244897-7.55102 62.4489797-9.412245 125.6489797-16.114286 188.8367347-11.689796 6.420408.444898 12.836735 1.093877 19.22449 2z" fill="#005249" opacity=".42"/><path d="m166.8 71.0122449h11.363265c2.209139 0 4 1.790861 4 4v60.0000001h-19.363265v-60.0000001c0-2.209139 1.790861-4 4-4z" fill="url(#c)" opacity=".5"/><path d="m39.5918367 102.714286 56.6244898 8.395918v46.416327h6.4653065v2.746938h-14.8979595v-1.767347h6.6571428v-38.485714l-53.5428571-10.35102v37.461224h7.4530612v1.27347h-15.0040816v-1.469388h6.2448979z" fill="#fff"/><path d="m38.7061224 102.714286 56.6285715 8.395918v46.416327h6.4653061v2.746938h-14.9020408v-1.767347h6.6612245v-38.485714l-53.5428572-10.35102v37.461224h7.4530613v1.27347h-15.0040817v-1.469388h6.2408163z" fill="url(#e)"/><path d="m72.0816327 90.1673469s9.9510204 14.4081631 11.2408163 14.4816331c1.2897959.073469 22.710204.693877 22.710204.693877l-.126531-4.489796s-9.8326526-4.6571426-14.061224-3.2653059c-2.8326531.9265306-3.3306123.7306122-3.3306123.7306122s-3.6244898-10.8408163-4.9714286-13c-1.3469387-2.1591836-11.4612244 4.8489796-11.4612244 4.8489796z" fill="#212b36"/><path d="m82.0408163 82.6816327s.5591837 7.8816326-1.5061224 10.6938775-20.4408163 10.3142858-20.4408163 10.3142858-1.9959184 7.689796-3.9387756 9.387755c-1.9428571 1.697959-9.6857142 8.979592-9.6857142 8.979592l-3.3877551-3.297959 10.6897959-17.8s.6448979-2.3795922 1.7102041-3.204082c1.0653061-.8244898 14.2081632-15.1632653 14.2081632-15.1632653z" fill="#212b36"/><path d="m74.9836735 51.6571429 3.2040816.6938775c1.1061225.2408163 2.3183673.5469388 2.9632653 1.4734694.6081633.8653061.5387755 2.0204082.4081633 3.0693878-.167347 1.4040816-.3877551 2.8040816-.6612245 4.1918367-.3632653 1.8448979-.8163265 3.6734694-1.0122449 5.5428571-.4612245 4.6163266.755102 9.2163266 1.9591837 13.6938776.4081632 1.4408163-1.4775511 2.4816326-2.8571429 3.0489796-2.6334025 1.0761947-5.5010877 1.4503017-8.322449 1.0857143-.2567272-.015198-.5059791-.092214-.7265306-.2244898-.2959303-.2709339-.4855206-.6385364-.5346939-1.0367347-.5714285-2.4040817-1.0163265-4.8489796-1.7591836-7.2122449-.3536541-1.1892349-.8182817-2.3426046-1.3877551-3.444898-.5591837-1.0489796-.7591837-2.2653061-1.2244898-3.3755102-.3755102-.9020408-.8408164-1.7632653-1.1714286-2.6857143-.3619662-.9062469-.4706064-1.8938844-.3142857-2.8571428.2204081-1.0489796.6244898-2.0693878.9387755-3.0938776.3412655-1.1166926.6058273-2.2553992.7918367-3.4081633.0866962-.787658.2817353-1.5595731.5795919-2.2938775.7142857-1.522449 2.3510204-2.4204082 3.9877551-2.8122449s3.4938775-.7142857 5.1387755-.355102z" fill="#ffbbab"/></g><path d="m54.6489796 43.4693878c-1-.9755102-2.0163265-1.9102041-2.6938776-3.1428572-.8462773-1.5174982-1.501593-3.1338524-1.9510204-4.8122449-.1937666-.5958761-.2577848-1.2263162-.1877551-1.8489796.1469388-.8530612.7346939-1.5918367.8163266-2.4489796.0177551-.0927623.0002916-.188812-.0489796-.2693877-.082925-.0827236-.1973927-.1258349-.3142857-.1183674l-.9918368-.077551c-.0028138-.7569202-.2731687-1.4884687-.7632653-2.0653061-.355102-.4081633-.922449-.7510204-1.432653-.5632653-.5102041.1877551-.7428572.8938775-1.1551021 1.322449-.4122449.4285714-.9755102.5714285-1.3306122 1-.4081633.5061224-.4081633 1.2244898-.4081633 1.9020408.0816327 1.8040816.9877551 2.9714285 1.5918367 4.5959183.6438437 1.7254233 1.4033924 3.4054306 2.2734694 5.0285715 1.737692 3.2553288 3.8873414 6.2733434 6.3959184 8.9795918 1.3542997 1.4579874 2.8066635 2.8217093 4.3469388 4.0816327 1.6857143 1.3755102 8.0693877 6.8530612 9.9755102 4.8040816 2.5836734-2.7755102-.0571429-6.122449-2.4489796-7.5102041-4.241821-2.4592396-8.1628085-5.4342546-11.6734694-8.8571428z" fill="#ba8b72"/><path d="m69.0489796 51.6326531c-.7265306 1.7387755-1.4068027 3.4965986-2.0408163 5.2734693-.2.567347-.4081633 1.2244898-.089796 1.7469388.2329879.3490313.5883317.5980632.9959184.6979592 1.6326531.5265306 3.4938776-.1632653 4.7918367-1.3102041 1.2979592-1.1469387 2.1632654-2.6938775 3.0204082-4.1959183.4253632-.8600439 1.0066323-1.6336853 1.7142857-2.2816327.7280714-.6495912 1.748784-.8584088 2.6734694-.5469388.877551.3714286 1.3795919 1.5836735.8163265 2.3591837-.1020408-.722449-1.0857142-1.0163265-1.7387755-.6938775-.6530612.3224489-1.0244898 1.0163265-1.3265306 1.6816326-.3963771.8735022-.746521 1.7672545-1.0489796 2.677551-.2482845.6642542-.3861619 1.3646713-.4081632 2.0734694.0285714 1.722449 1.2530612 3.1795919 2.5183673 4.3469388.5245976.4125933.9710962.9157681 1.3183674 1.4857143.4489796.877551.3510204 1.922449.3020408 2.9061224-.2122449 4.0816327.5795918 8.1346939 1.6081632 12.0816327.1959184.7387755.3755102 1.5959183-.077551 2.2122449-.3701329.4135256-.8748332.6825062-1.4244898.7591836-2.5510204.5836735-5.232653.3632654-7.7918367.9020409-1.5918367.3387755-3.1265306.9673469-4.7510204 1.1183673-.2172452.0437005-.4429799.004379-.6326531-.1102041-.1743777-.1830804-.2671477-.4289947-.2571428-.6816326-.4081633-4.5265306-.5306123-9.1632653-2.122449-13.4204082-.7469388-1.9959184-1.8204082-3.9020408-2.1428572-6.0081633-.0877226-.4556805-.0877226-.9239113 0-1.3795918.1355337-.4465693.3319375-.8723398.5836735-1.2653061 1.2965665-2.3312416 2.0656803-4.9186409 2.2530612-7.5795918" fill="#fff" fill-rule="nonzero"/><path d="m79.3387755 71.0897959c.0693878.7551021.077551 1.6326531-.4979592 2.1265306-.1730111.1189906-.3330697.2557928-.477551.4081633-.2857143.3632653-.1428571.8816326-.1387755 1.3428571 0 .8979592-.5346939 1.689796-.8734694 2.522449-.3387755.8326531-.3755102 1.9632653.3714286 2.4489796.4816326.3183674 1.1632653.2734694 1.5755102.6734694.6408163.6244898.3102041 2 1.1469388 2.3183673.4968177.1227599 1.0074184-.1430323 1.1918367-.6204081.164829-.4671757.2083655-.9685482.1265306-1.4571429-.4108843-5.1292517-.8598639-10.2571428-1.3469388-15.3836734.0112561-.5595431-.2506832-1.0895133-.7020408-1.4204082-.432653-.4081633-1.0285714-1.2244898-1.5755102-1.3714286-.4081633.922449.3591837 2.644898.5346939 3.5959184.2938775 1.5918367.5156462 3.1972789.6653061 4.8163265z" fill="#020202" fill-rule="nonzero" opacity=".1"/><path d="m61.7102041 43.9795918c-.1632653.4571429-.4081633.922449-.3183674 1.3959184.1120128.3274244.2913751.627752.5265306.8816327.4452171.634324.7690501 1.3456494.9551021 2.0979591.1591837.567347.2979592 1.1877551.7428571 1.5755102.5469388.4857143 1.3714286.444898 2.0938776.3428572.555102-.077551 1.1020408-.1755102 1.632653-.2979592.1955218-.0599907.402267-.07396.6040817-.0408163.2015445.0609497.3805072.1802582.5142857.3428571.9102041.9755102 1.0612245 2.4204082 1.6326531 3.6367347.1319772.4280444.5090789.7342381.955102.7755102 1.2409888.2499304 2.5305839.0194372 3.6081633-.6448979.2824663-.1438595.5071694-.3800858.6367347-.6693878.0826557-.3411406.0496337-.7000749-.0938776-1.0204082-.2908749-.8816502-.648368-1.7399065-1.0693878-2.5673469-.5673469-1.1142857-1.2571428-2.2122449-1.3836734-3.4571429-.1142857-1.1020408.232653-2.2081632.2040816-3.3142857-.0653061-2.3102041-1.9183673-4.3877551-4.1673469-4.8979592-1.9632653-.4571428-3.8408164.2326531-5.4 1.4081633-.5510204.4081633-1.0081633.6734694-1.1877551 1.3755102-.2612245 1.0081633-.1265306 2.0816327-.4857143 3.077551z" fill="#ba8b72"/><path d="m61.9795918 36.6897959c.1965597-1.0968445.863179-2.0527796 1.8244898-2.6163265 2.9020408-1.8244898 7.8653062-1.6326531 10.3632653.8653061.8163266.8163265 1.3795919 1.9469388 2.3183674 2.6653061 1.2244898.9387755 2.8571428 1.0408164 4.3877551 1.1102041-.337333.4991963-.763443.9322237-1.2571429 1.277551.3122597.5445343.8109771.9577158 1.4040817 1.1632653l-1.0367347.6734694 1.2244898 1.0163266c-.4890681.2886822-1.013046.513636-1.5591837.6693877.1713979 1.1628013.4278685 2.3114621.7673469 3.4367347-.5006409-.3831442-1.0960182-.6229881-1.7224489-.6938775-.281315.7413698-.3928931 1.5363639-.3265307 2.3265306l-1.4979591-.7591837c-.0237545.7295981-.2544973 1.437398-.6653062 2.0408163.5306123-.7795918-1.8244898-1.8857143-2.2816326-1.9387755-.5551021-.0612245-.9346939.1714286-1.3714286-.0938775-.5632653-.3510204-.9428571-1.2857143-1.5673469-1.7061225.3387755-.4897959.7918367-.8938775 1.0938775-1.4081633.3448182-.501614.3671147-1.1577684.0571429-1.6816326-.3551021-.4734694-1.2816327-.4081633-1.4081633.1632653.044898-1.5306122-1.1061224-2.8285714-2.3142857-3.7632653-.3752305-.3710465-.9232831-.5072767-1.4285714-.355102-.6857143.1224489-1.3659864.2748299-2.0408164.4571428-.5020408.1387755-1.3795918.5918367-1.910204.4081633-.922449-.3469388-1.1551021-2.4326531-1.0530613-3.2571429z" fill="#ff4842" fill-rule="nonzero"/><path d="m111.036735 99.155102c.361511-.1311661.754291-.1496667 1.12653-.0530612.323126.1486698.603799.3760149.816327.6612245 2.130612 2.4299317 4.178231 4.9278907 6.142857 7.4938777.346439.3942.605209.857481.759184 1.359184.253061 1.085714-.481633 2.130612-1.171429 3.004081-.408163.526531-1.22449 1.07347-1.632653.551021-.261224-.326531-.089796-.816327-.191837-1.22449-.122449-.497959-.620408-.787755-1.073469-1.028572l-9.583674-5.032653c-1.363265-.714285-1.820408-3.004081-.408163-3.930612.604082-.408163 1.632653-.408163 2.310204-.673469.97551-.3551024 1.910204-.8408167 2.906123-1.126531z" fill="#ba8b72"/><path d="m69.844898 49.7469388c.1836391-.0377394.3746146-.013329.5428571.0693877.1532429.1269315.2548471.3054647.2857143.5020408.2604812.9742909.4204996 1.9726965.477551 2.9795919.0295969.2670375.0074234.5372769-.0653061.7959184-.0790524.2620561-.289748.4634563-.5551021.5306122-.3061224.0530612-.6-.1428571-.910204-.1673469-.345404-.0055888-.675055.1442526-.8979592.4081632-.2169639.2612504-.399414.5493295-.5428572.8571429-.3768243.7033422-.8080708 1.3761413-1.2897959 2.0122449.1467436-1.4316013.5100704-2.8326114 1.077551-4.1551021.1210104-.3711098.3568559-.6941467.6734694-.9224489.2489796-.1469388.5755102-.1959184.7306123-.4367347.2489796-.3836735-.1306123-.8489796-.444898-1.1795919-.3142857-.3306122-.8693877-.8163265-.6040816-1.1306122.1632653-.2 1.2693877-.1387755 1.522449-.1632653z" fill="url(#f)" fill-rule="nonzero"/><path d="m90.4081633 40.5183673c.7254343-.9924247 1.3827249-2.0329075 1.9673469-3.1142857 1.5306122-2.9959183 2.3387755-6.7795918 1.5877551-10.0979592-.1140366-.3696775-.1623874-.7564837-.1428571-1.1428571.0239418-.3968252.2901913-.7377546.6693877-.8571429.1631066-.0115963.3245399-.040326.4816327-.0857142.232653-.1142858.2979592-.4081633.4612245-.6122449.2815907-.3085591.7208605-.4179743 1.1142857-.2775511.3816637.1438221.7271802.3695224 1.0122449.6612245.460042.4185333.8973998.861341 1.3102041 1.3265306.3473673.3379152.601805.7596352.7387755 1.2244898.1591836.7755102-.2938776 1.5306123-.7306123 2.1959184-.7142857.0653061-.8979592 2.0897959-.9755102 2.5714286-.1795918 1.0693877-.4081632 2.1346939-.6653061 3.1877551-.5262924 2.1113794-1.2154307 4.1787945-2.0612245 6.1836735-1.6731431 3.9647479-3.929349 7.6572215-6.6938775 10.955102-1.4 1.6653061-6.644898 8.244898-8.8979592 6.5877551-3.0571429-2.2408163-1.0897959-6.0122449.9836734-7.8326531 3.7183875-3.2024837 7.0240317-6.855008 9.8408164-10.8734694z" fill="#ba8b72"/><g fill-rule="nonzero"><path d="m63.5102041 46.0530612c.4015148-.1119297.8108109-.1937889 1.2244898-.2448979.0518104-.0162937.1073733-.0162937.1591837 0 .0403394.0268619.0716352.0652705.0897959.110204.3108817.595845.4046831 1.2813163.2653061 1.9387756-.0371123.2592472-.1443788.5034196-.3102041.7061224-.173633.2027274-.451111.2829234-.7061224.2040816-.195612-.1030396-.3529896-.26614-.4489796-.4653061-.4254627-.5728243-.6890863-1.2495051-.7632653-1.9591837-.0062668-.0309787-.0062668-.0628987 0-.0938775.0239292-.0387856.059707-.068839.1020408-.0857143.2341219-.120888.4918356-.1891473.755102-.2" fill="#fff"/><path d="m61.1510204 48.0530612-.2-.0489796c.077551-.0571428.1795918-.0408163.2.0489796z" fill="#00ab55"/><path d="m97.355102 35.7306122c.1368045 1.2251479.0087438 2.4653886-.3755102 3.6367347-2.3428571 8.0408164-7.0734694 15.5918368-14.0897959 20.1632653-.4041199.2269697-.7504978.5440172-1.0122449.9265307-.1643128.3574646-.2519088.7453898-.2571428 1.1387755-.5020409 6.8979592 1.1510204 13.7836734 1.1632653 20.7020408.0561939.607231-.0870998 1.2162293-.4081633 1.7346939-.4408163.5877551-1.2244898.7387755-1.9632653.8367347-.4816327.0693877-.9632653.1387755-1.4489796.1918367-3.4858419.4462615-6.992709.7092084-10.5061224.7877551-.5959184 0-1.2653062 0-1.7061225-.4081633-.4408163-.4081632-.5102041-1.0857143-.5591837-1.6979592-.4081632-4.6816326-1.9714285-9.1428571-3.0897959-13.677551-.576326-2.213395-.9627613-4.4719253-1.155102-6.7510204-.0857143-1.2244898-.0326531-2.3918367-.6489796-3.3795918-.1896892-.3097117-.4297187-.5856076-.7102041-.8163266-1.0530612-.8734693-2.4081633-1.2857142-3.5510204-2.0408163-1.8897959-1.2448979-3.0653061-3.3142857-4.155102-5.3061224-1.5959184-2.8857143-3.2326531-5.7510204-4.7877551-8.6612245-1.1510205-2.1469388-.1836735-3.3469388 1.3428571-4.4897959.5469388-.4081633 1.1673469-.8163266 1.7877551-1.2775511 1.1020408 2.2653062 2.2204082 4.5510205 3.8 6.5306123 1.5306122 1.9061224 3.5591837 3.5183673 5.9265306 4.1306122-.0722928.0215521-.1220009.0878296-.122449.1632653 0 .167347.1632653.2816327.3102041.3755102 1.7551021 1.0884354 3.5115646 2.1945579 5.2693878 3.3183674.3366041.2433111.7249808.4053676 1.1346938.4734694.4653062.032653 1.9102041-.7632653 1.9959184.0530612v.155102c-.0749815.2788682-.1308931.5625171-.1673469.8489796.0562902.3644377.3165209.6643378.6693877.7714286.3524487.0856978.7212316.0772524 1.0693878-.0244898.3837056-.0981494.750897-.2521773 1.0897959-.4571428.5469388-.3510205.9714286-.8653062 1.4857143-1.2653062.8163265-.6571428 1.7428571-.555102 2.7428571-.6693877 1.0191984-.1070622 2.0197317-.3486176 2.9755102-.7183674 2.7346939-1.122449 5.0693878-3.1265306 6.9102041-5.4081632 2.6979592-3.3510204 4.5102041-7.3102041 6.6897959-11.0204082.2171848-.4389497.5345757-.8206578.9265306-1.1142857.6984637-.3796011 1.5537894-.3190752 2.1918368.155102.6830307.4954077 1.1295067 1.2523471 1.232653 2.0897959z" fill="#00ab55"/><path d="m108.77551 100.995918c.159184.64898.706123 1.114286 1.22449 1.551021 1.134694.971428 2.24898 2.040816 2.820408 3.428571.285714.689796.428572 1.444898.816327 2.081633s1.12653 1.191837 1.555102 1.889796c.644898 1.057143.628571 2.514285 1.55102 3.346939 1.085714.97551 2.971429.436734 3.77551-.779592.804082-1.216327.755102-2.816327.408164-4.232653-.746939-2.922449-2.640817-5.408164-4.644898-7.665306-1.22449-1.3673474-2.857143-2.8571433-4.84898-2.6857148-1.338775.1183674-3.02449 1.6204082-2.657143 3.0653058z" fill="#00ab55"/><path d="m61.2734694 59.8612245c-.2049656-.2621706-.4345869-.504093-.6857143-.722449-1.0530612-.8734694-2.4081633-1.2857143-3.5510204-2.0408163-1.8897959-1.244898-3.0653061-3.3142857-4.155102-5.3061225-1.5959184-2.8857143-3.2326531-5.7510204-4.7877551-8.6612245-1.1510205-2.1469387-.1836735-3.3469387 1.3428571-4.4897959.3993646.2641751.7432291.60388 1.0122449 1 .5836735.8408164.877551 1.844898 1.2734694 2.7918368.9705433 2.1751031 2.3209003 4.1598652 3.9877551 5.8612245 1.7102041 1.8408163 3.3510204 3.7632653 5.0530612 5.6285714.1000692.0968284.1828895.2100161.244898.3346939.0612882.2068562.0697084.4257819.0244898.6367347-.1020446.8773147-.1020446 1.7635015 0 2.6408163.0530612.5387755.6244898 1.9428571.2408163 2.3265306z" fill="url(#g)"/><path d="m97.355102 35.7306122c.1368045 1.2251479.0087438 2.4653886-.3755102 3.6367347-2.3428571 8.0408164-7.0734694 15.5918368-14.0897959 20.1632653-.4041199.2269697-.7504978.5440172-1.0122449.9265307-.1643128.3574646-.2519088.7453898-.2571428 1.1387755-.5020409 6.8979592 1.1510204 13.7836734 1.1632653 20.7020408.0561939.607231-.0870998 1.2162293-.4081633 1.7346939-.4408163.5877551-1.2244898.7387755-1.9632653.8367347-.4816327.0693877-.9632653.1387755-1.4489796.1918367h-.0979592c-.4184497.0502951-.8426226-.0175726-1.2244898-.1959184-.3692617-.2568402-.6433271-.6284786-.7795918-1.0571428-1.0122449-2.3877551-1.1346939-5.0530613-1.7469388-7.5714286-.6122449-2.5183674-1.9469388-5.1306123-4.3591837-6.0816327-.558761-.1518262-1.0903499-.3900772-1.5755102-.7061224-.4408163-.3714286-.6693877-1.0897959-.2816326-1.5183674.1909839-.175478.4245772-.2979034.677551-.355102 1.4122449-.444898 2.8571429-.7591837 4.2204082-1.3755102s2.6122449-1.5918367 3.1755102-2.9632653c.5265306-1.2571429.4081632-2.7142857 1.0204081-3.9346939.6979592-1.4244898 2.1959184-2.2408163 3.5551021-3.0734694 4.8852287-3.0111841 8.9246829-7.2149694 11.7387755-12.2163265 1.2612245-2.2408163 1.8408163-5.9795918 3.5510204-7.8.1528467-.1807535.3268866-.3424598.5183673-.4816327z" fill="url(#h)"/></g><path d="m38.4489796 121.232653c-2.1918367.293878-4.4204082.155102-6.6285714.285714-.3806753-.01465-.756287.091035-1.0734694.302041-.5102041.408163-.4081633 1.27347 0 1.779592.4727743.46603 1.0597268.799621 1.7020408.967347l3.2653061 1.159184c1.767347.628571 3.5877551 1.265306 5.4612245 1.224489 1.0285714-.024489 2.2-.37551 2.5959184-1.322449.1306122-.310204.1632653-.657142.2734694-.979591.3306122-.959184 1.3183673-1.555102 1.7346938-2.481633.6-1.318367-.4081632-3.461225-1.9755102-3.040816-.8163265.216326-1.6081632 1.044898-2.4244898 1.371428-.943061.364103-1.9273183.610853-2.9306122.734694z" fill="#ba8b72"/><path d="m33.9795918 121.359184c.5265306.024489 1.1102041.073469 1.4612245.465306.5020408.55102.2693878 1.485714.7020408 2.093877.2082714.252606.4742591.451396.7755102.579592 2.0458103 1.005598 4.3835456 1.247333 6.5918368.681633.3591837-.093878.8938775-.097959.9346939.269388.0043509.102993-.0211629.205048-.0734694.293877-.5275405.964794-1.4943608 1.609849-2.5877551 1.726531-1.0780367.106844-2.1665628.001458-3.2040817-.310204-2.8016984-.752721-5.5528051-1.682481-8.2367347-2.783674-.5099417-.145082-.9702273-.427466-1.3306122-.816326-.2944586-.349881-.3772152-.83142-.2164614-1.259533s.5400002-.736173.9919716-.805773c1.3874397-.206062 2.7940303-.25126 4.1918367-.134694z" fill="#00ab55" fill-rule="nonzero"/></g></g></svg>