<svg height="360" viewBox="0 0 491 360" width="491" xmlns="http://www.w3.org/2000/svg" xmlns:xlink="http://www.w3.org/1999/xlink"><linearGradient id="a" x1="19.495903%" x2="77.479035%" y1="70.855438%" y2="18.166083%"><stop offset="0" stop-color="#00ab55"/><stop offset="1" stop-color="#00ab55" stop-opacity="0"/></linearGradient><filter id="b" height="151.1%" width="137.1%" x="-18.5%" y="-25.6%"><feOffset dx="12" dy="12" in="SourceAlpha" result="shadowOffsetOuter1"/><feGaussianBlur in="shadowOffsetOuter1" result="shadowBlurOuter1" stdDeviation="12"/><feColorMatrix in="shadowBlurOuter1" result="shadowMatrixOuter1" type="matrix" values="0 0 0 0 0   0 0 0 0 0.321568627   0 0 0 0 0.28627451  0 0 0 0.32 0"/><feMerge><feMergeNode in="shadowMatrixOuter1"/><feMergeNode in="SourceGraphic"/></feMerge></filter><linearGradient id="c" x1="0%" x2="100%" y1="0%" y2="100%"><stop offset="0" stop-color="#ffe16a"/><stop offset="1" stop-color="#b78103"/></linearGradient><linearGradient id="d" x1="49.687015%" x2="52.064099%" y1="25.546385%" y2="100.936456%"><stop offset="0" stop-color="#00ab55"/><stop offset="1" stop-color="#007b55"/></linearGradient><g fill="none" fill-rule="evenodd"><path d="m0 198.780719c0 41.457158 15.2878786 79.234817 40.4451471 107.78576 28.8609774 32.764546 70.7123509 53.364261 117.3629579 53.433521 20.388139.029445 39.882871-3.886947 57.789686-11.036472 9.258735-3.698144 19.621594-3.273713 28.588978 1.107688 10.518749 5.132655 22.297511 8.010452 34.735307 8.010452 5.137889 0 10.169342-.494621 15.036306-1.433415 13.892403-2.670516 26.534468-8.989823 36.916679-17.940165 6.524763-5.627277 14.881492-8.455721 23.422062-8.44585h.145138c28.221295 0 54.435384-8.732095 76.199646-23.695759 19.457105-13.360257 35.345963-31.696339 45.932442-53.224977 9.229707-18.760513 14.425651-39.953553 14.425651-62.383695 0-76.930606-61.143989-139.3044315-136.557739-139.3044315-7.688018 0-15.220147.6624196-22.568435 1.8984244-19.457104-32.131738-54.299921-53.5517999-94.04733-53.5517999-16.781189 0-32.690473 3.81768653-46.931207 10.6612269-13.542997 6.4871059-25.584082 15.7050477-35.434121 26.938763-33.446266.5439737-64.3725043 11.6899514-89.6845867 30.2914398-39.8441679 29.263812-65.7765813 76.9909253-65.7765813 130.8892893z" fill="url(#a)" opacity=".24"/><g filter="url(#b)" transform="translate(46 38)"><circle cx="92.108193" cy="44.831205" fill="#ffc107" fill-rule="nonzero" opacity=".15" r="44.623313"/><circle cx="92.108193" cy="44.831205" fill="url(#c)" r="23.406145"/><g fill-rule="nonzero"><circle cx="190.391988" cy="207.035542" fill="#005249" r="62.575361"/><circle cx="190.391988" cy="207.035542" fill="#fff" r="39.389337"/><g fill="#00ab55"><path d="m114.841747 221.967048c4.145602 0 5.63753 1.491928 5.63753 5.625301v7.129458c0 4.145603-1.222891 5.63753-5.63753 5.63753h-11.434036v21.706326c0 4.133373-1.491928 5.625301-5.6375303 5.625301h-8.12c-4.1333735 0-5.6253012-1.491928-5.6253012-5.625301v-21.706326h-54.6754819c-4.1333735 0-5.6253012-1.491927-5.6253012-5.63753v-5.967711c-.1111887-2.415875.5764481-4.801116 1.9566265-6.787048l55.0301205-68.274036c1.8694222-2.510355 4.8188581-3.985073 7.9487952-3.974455h9.1716867c4.1456027 0 5.6375297 1.161804 5.6375297 5.637588v66.610903zm-30.8168675-44.415421-35.9652409 44.415421h35.9652409z"/><path d="m351.483494 221.967048c4.145602 0 5.63753 1.491928 5.63753 5.625301v7.129458c0 4.145603-1.161747 5.63753-5.63753 5.63753h-11.434036v21.706326c0 4.133373-1.491928 5.625301-5.63753 5.625301h-8.12c-4.133374 0-5.625301-1.491928-5.625301-5.625301v-21.706326h-54.687711c-4.133374 0-5.625302-1.491927-5.625302-5.63753v-5.967711c-.104053-2.418659.592252-4.80415 1.981085-6.787048l55.03012-68.274036c1.869423-2.510355 4.818858-3.985073 7.948795-3.974455h9.110543c4.145602 0 5.63753 1.161804 5.63753 5.637588v66.610903zm-30.816867-44.415421-35.965241 44.415421h35.965241z"/><path d="m326.94006 136.389096s-10.406807-2.837108-12.669156-12.534638c0 0 16.129939-3.252892 16.594638 13.390662z" opacity=".58"/><path d="m328.224096 135.361867s-7.276204-11.507409-.880482-22.256626c0 0 12.228916 7.789819 6.823735 22.281084z" opacity=".73"/><path d="m330.09512 135.374096s3.83988-12.155542 15.469579-14.454578c0 0 2.176747 7.887651-7.533012 14.479036z"/></g><path d="m322.54988 135.092831 2.103373 14.44235 13.292831.061144 1.956627-14.43012z" fill="#005249"/><path d="m197.961687 124.869458s1.712048 8.254518.966084 13.97765c-.139806 1.12409-.724496 2.145184-1.623194 2.834722-.898699.689539-2.036353.989937-3.158312.833953-2.873795-.415783-6.640301-1.809879-8.095542-6.114458l-3.375181-7.031626c-1.078733-3.028685-.133373-6.408472 2.360181-8.437952 4.329036-3.986627 12.131084-1.088374 12.925964 3.937711z" fill="#f4a28c"/><path d="m183.286988 130.604819-1.100602 27.649579 15.273915-.489157-5.331807-19.920904z" fill="#f4a28c"/><path d="m195.919458 125.456446c-2.574866.413262-5.189219.524075-7.789819.330181 1.800256 2.14818 2.155631 5.159269.904939 7.66753-1.178301 2.476976-3.948337 3.769659-6.603614 3.081686l-1.137289-10.785903c-.446496-3.131406.870187-6.253825 3.424096-8.12 1.078347-.805406 2.210081-1.536743 3.38741-2.188976 2.947168-1.614217 7.728674-.085603 10.26006-2.506928.522789-.48779 1.262614-.666644 1.950495-.471536s1.223627.735761 1.412457 1.425392c.880482 3.216204.90494 8.437951-3.314036 10.749216-.779121.412527-1.622707.689587-2.494699.819338z" fill="#24285b"/><path d="m189.902831 133.099518s-.440241-3.228434-2.837108-2.690361c-2.396868.538072-1.785422 5.197289 1.565301 5.233976z" fill="#f4a28c"/><path d="m198.768795 130.127892 2.727048 2.947168c.314078.3429.430777.822707.309266 1.271551-.12151.448843-.464316.804253-.908482.941883l-3.130603.978313z" fill="#f4a28c"/><path d="m193.485904 142.161145c-1.943896-.254454-3.771349-1.070433-5.258434-2.347952 0 0 .807108 5.001626 6.921566 9.306205z" fill="#ce8172" opacity=".31"/><path d="m182.210843 158.254398 15.273916-.489157s23.993133-4.072229 32.321024 15.494036c8.327892 19.566265-2.347952 47.215843-2.347952 47.215843s-8.68253 29.190422-45.246988 25.961988c0 0-30.413313-1.760963-33.849638-43.449337-.155575-1.818347-.433392-3.624157-.831566-5.405181-1.394097-6.518012-2.201205-26.292168 34.681204-39.328192z" fill="url(#d)"/><path d="m161.751867 184.228614s8.144458.892711 19.456205 19.835302c11.311747 18.94259 33.519458 11.996566 46.041868-2.017771l-23.23494 30.743494-26.023133-2.091145-14.148855-37.66506z" fill="#000" opacity=".08"/><path d="m247.316414 140.625713h4.51247v13.133855h-4.51247z" fill="#ffd200" transform="matrix(.99119244 -.13242939 .13242939 .99119244 -17.294506 34.347161)"/><path d="m247.316414 140.625713h4.51247v13.133855h-4.51247z" fill="#000" opacity=".08" transform="matrix(.99119244 -.13242939 .13242939 .99119244 -17.294506 34.347161)"/><path d="m247.666776 150.006306h6.933795v16.863675h-6.933795z" fill="#24285b" transform="matrix(.99119244 -.13242939 .13242939 .99119244 -18.769992 34.652932)"/><path d="m244.578313 113.447651c-8.09919 1.085014-13.785602 8.529866-12.701436 16.62917s8.528421 13.786496 16.627839 12.70318c8.099418-1.083317 13.78739-8.526975 12.704923-16.626507-.519965-3.89062-2.564483-7.415225-5.683612-9.798148-3.119128-2.382923-7.057258-3.428884-10.947714-2.907695zm3.350723 25.020361c-4.192865.5668-8.314047-1.449184-10.440265-5.107131-2.126219-3.657947-1.838325-8.236752.729327-11.59957s6.908891-4.846725 10.99774-3.759209c4.088849 1.087517 7.119259 4.53207 7.676993 8.726151.754548 5.696891-3.224594 10.936914-8.914879 11.739759z" fill="#ffc107"/><circle cx="246.620542" cy="128.159036" fill="#b78103" r="10.504639"/><path d="m147.96988 186.283072c.760921-2.934129 3.201321-5.129736 6.199268-5.57743 2.997947-.447693 5.973327.939158 7.558262 3.522972 5.83659 9.448588 10.750786 19.436691 14.674698 29.826326 8.743675 23.308313 51.618253 7.936566 67.44247-46.408735l9.02494 5.613072s-12.449036 70.585301-62.563132 73.177831c0 0-31.281567 6.334579-40.783434-32.051988 0 0-2.445783-7.227289-2.59253-11.311747l-.660362-4.598072c-.101358-4.08324.443439-8.156833 1.614217-12.06994z" fill="#00ab55"/><path d="m147.96988 186.283072c.760921-2.934129 3.201321-5.129736 6.199268-5.57743 2.997947-.447693 5.973327.939158 7.558262 3.522972 5.83659 9.448588 10.750786 19.436691 14.674698 29.826326 8.743675 23.308313 51.618253 7.936566 67.44247-46.408735l9.02494 5.613072s-12.449036 70.585301-62.563132 73.177831c0 0-31.281567 6.334579-40.783434-32.051988 0 0-2.445783-7.227289-2.59253-11.311747l-.660362-4.598072c-.101358-4.08324.443439-8.156833 1.614217-12.06994z" fill="#fff" opacity=".39"/><path d="m246.131386 169.015843s.917168-11.629698 5.710903-11.605279c4.793735.024496 16.056566 8.633653-1.332952 14.320099z" fill="#f4a28c"/><path d="m371.135361 80.2216867c0-4.5655982-3.701148-8.2667469-8.266747-8.2667469-.446599-.0003109-.892451.0365026-1.332951.1100602-1.933705-3.6065967-5.690863-5.8608914-9.783133-5.8698795h-.403554c1.328794-5.341688-.788248-10.9480876-5.316106-14.0782352-4.527858-3.1301475-10.520653-3.1301475-15.048511 0-4.527859 3.1301476-6.6449 8.7365472-5.316106 14.0782352h-.403554c-4.070364-.1348387-7.890592 1.9597184-9.965697 5.4639989-2.075105 3.5042804-2.075105 7.861035 0 11.3653155 2.075105 3.5042804 5.895333 5.5988375 9.965697 5.4639988h38.68006v-.0733735c4.11046-.5450957 7.183715-4.0469333 7.190602-8.1933735z" fill="#00ab55" opacity=".24"/><path d="m49.7716867 162.045361c0-1.881119-.7472719-3.685193-2.0774245-5.015346s-3.1342267-2.077425-5.0153465-2.077425c-.3808509.00727-.7607917.039954-1.1372892.097832-1.6677021-3.100108-4.9055145-5.031517-8.4257229-5.026085h-.3424096c1.1526116-4.585201-.6582144-9.404604-4.5450262-12.09631-3.8868118-2.691705-9.035184-2.691705-12.9219958 0-3.8868119 2.691706-5.69763789 7.511109-4.5450262 12.09631h-.3424097c-3.49588408-.125072-6.78109543 1.668613-8.56614373 4.67701-1.78504829 3.008397-1.78504829 6.751379 0 9.759776 1.7850483 3.008397 5.07025965 4.802082 8.56614373 4.67701h33.1770482v-.061145c3.5294649-.465682 6.1694264-3.471578 6.1756024-7.031627z" fill="#00ab55" opacity=".24"/></g></g></g></svg>