<svg height="341" viewBox="0 0 444 341" width="444" xmlns="http://www.w3.org/2000/svg" xmlns:xlink="http://www.w3.org/1999/xlink"><defs><filter id="a"><feColorMatrix in="SourceGraphic" type="matrix" values="0 0 0 0 0.568627 0 0 0 0 0.619608 0 0 0 0 0.670588 0 0 0 1.000000 0"/></filter><linearGradient id="b"><stop offset="0"/><stop offset="1" stop-opacity="0"/></linearGradient><linearGradient id="c" x1="19.495903%" x2="77.479035%" xlink:href="#b" y1="59.931202%" y2="34.840928%"/><linearGradient id="d" x1="19.495903%" x2="77.479035%" xlink:href="#b" y1="59.696079%" y2="35.199823%"/><linearGradient id="e" x1="19.495903%" x2="77.479035%" xlink:href="#b" y1="59.69608%" y2="35.199822%"/><linearGradient id="f" x1="19.495903%" x2="77.479035%" xlink:href="#b" y1="59.931203%" y2="34.840927%"/><linearGradient id="g" x1="19.495903%" x2="77.479035%" xlink:href="#b" y1="60.353258%" y2="34.196699%"/><linearGradient id="h" x1="19.495903%" x2="77.479035%" xlink:href="#b" y1="59.856342%" y2="34.955196%"/><filter id="i" height="151.9%" width="154.2%" x="-27.1%" y="-25.9%"><feOffset dx="16" dy="16" in="SourceAlpha" result="shadowOffsetOuter1"/><feGaussianBlur in="shadowOffsetOuter1" result="shadowBlurOuter1" stdDeviation="12"/><feColorMatrix in="shadowBlurOuter1" result="shadowMatrixOuter1" type="matrix" values="0 0 0 0 0.129411765   0 0 0 0 0.168627451   0 0 0 0 0.211764706  0 0 0 0.24 0"/><feMerge><feMergeNode in="shadowMatrixOuter1"/><feMergeNode in="SourceGraphic"/></feMerge></filter><linearGradient id="j" x1="107.139416%" x2="62.776454%" y1="50%" y2="50%"><stop offset="0" stop-color="#919eab" stop-opacity="0"/><stop offset="1" stop-color="#919eab"/></linearGradient><path id="k" d="m0 6.638204h184.529868v272.166381h-184.529868z"/><linearGradient id="l" x1="49.755831%" x2="51.610268%" y1="25.546385%" y2="100.936456%"><stop offset="0" stop-color="#00ab55"/><stop offset="1" stop-color="#007b55"/></linearGradient><path id="m" d="m0 278.804585v-272.16638059l132.755301-6.61335184v285.44278943z"/><mask id="n" fill="#fff"><use fill="#fff" fill-rule="evenodd" xlink:href="#m"/></mask></defs><g fill="none" fill-rule="evenodd"><g filter="url(#a)" opacity=".64" transform="translate(32 130)"><path d="m37.8278174 150.304288 23.8939718-11.712526 28.0355937 13.92841-24.2125582 12.345636z" fill="url(#c)" opacity=".231235"/><path d="m0 42.7042299 16.0375456-7.767787 18.8173869 9.2373684-16.2513796 8.1876673z" fill="url(#d)" opacity=".231235"/><path d="m303.478292 164.614325 17.143583-8.303496 20.115138 9.874428-17.372165 8.752335z" fill="url(#e)" opacity=".231235"/><path d="m170.576646 200.186612 17.418532-8.538348 20.437747 10.153711-17.650781 8.99988z" fill="url(#f)" opacity=".231235"/><path d="m344.342696 66.0727446 16.590564-8.3034963 19.466262 9.8744281-16.811772 8.7523341z" fill="url(#g)" opacity=".231235"/><path d="m228.200382 6.30299531 12.858336-6.30299531 15.087113 7.49545388-13.02978 6.64369782z" fill="#19bb56" opacity=".04"/><g fill="url(#h)"><path d="m64.3210051 93.4358926 134.3835719-65.6244071 157.676725 78.0398355-136.175354 69.171673z" opacity=".231235"/><path d="m68.311534 109.058338 134.383572-65.6244068 157.676724 78.0398358-136.175353 69.171672z" opacity=".231235"/></g></g><g filter="url(#i)" transform="translate(80)"><use fill="#fff" xlink:href="#k"/><use fill="url(#j)" xlink:href="#k"/><g transform="matrix(-1 0 0 1 214.709573 45.13979)"><path d="m23.6307436 5.66476518c3.5900286 6.69873742 3.1634398 23.69064052-1.4763523 24.88789182-1.8503676.4774685-5.7922288-.6921604-9.8040971-3.1129206l2.5182995 17.8340643h-14.8685937l5.11810361-23.8840827c-2.85439595-3.3543234-4.78624276-7.4650011-4.46340453-12.07109602.93024978-13.27233994 19.38601592-10.35259425 22.97604452-3.6538568z" fill="#ba8b72" transform="translate(2.920617 4.621811)"/><path d="m6.8968121 28.9999044c-1.86615487-8.3111915-7.18252549-13.9766522-6.37058817-17.6913994.54129154-2.4764981 1.98399579-4.01654533 4.32811272-4.62014168 1.21235509-4.90980863 5.12244899-6.99814161 11.73028175-6.26499893 9.911749 1.09971402 15.9613289 5.22036838 13.3488144 14.28760621-2.4015153 0-5.3006574-.8694376-9.3095685.620189-1.2720113.4726526-2.181791 1.9383895-2.7293393 4.3972109h-1.811611c-1.7582449-2.9179488-3.4918856-3.9902153-5.2009221-3.2167996-1.70903651.7734156-2.09752829 2.6520454-1.16547534 5.6358893l-.89240161 6.8524442z" fill="#ffc107"/></g><g transform="matrix(-1 0 0 1 283.432567 146.511093)"><path d="m100.559115 0 28.700296 137.06178h-11.905203l-20.8790301-58.157044-11.7139709-31.0270311c-4.383193 13.3229614-8.1424659 23.9310964-9.4494292 26.1298437-1.8685718 3.1435595-21.0771339 16.5126384-57.6256863 40.1072364l-6.1363803-10.445685c27.7062522-22.0616479 43.1483881-34.651219 46.3264075-37.7687127l.1936989-.1938002c.2340398-.23969.3711779-.4045389.4114144-.4945467.5582809-1.248858.5752463-21.5338793.6775377-42.9686413l.0084932-1.7401201c.0348199-6.9677334.0803964-14.00555502.158107-20.503279z" fill="#005249"/><g fill="#ffc107"><path d="m0 13.5226145.61952474-13.02397004h13.01001946c6.1689816 4.34132335 14.2228032 7.85572797 24.1614648 10.54321384v2.4807562h-23.54194l-8.05382162-1.2403781v1.2403781z" transform="matrix(.64278761 .76604444 -.76604444 .64278761 11.102948 102.021719)"/><path d="m0 13.5226145.61952474-13.02397004h13.01001946c6.1689816 4.34132335 14.2228032 7.85572797 24.1614648 10.54321384v2.4807562h-23.54194l-8.05382162-1.2403781v1.2403781z" transform="translate(116.249392 134.702568)"/></g></g><g transform="matrix(-1 0 0 1 269.139246 78.07214)"><path d="m24.4967642 45.1506573 13.5659759.0509669c-10.3322793 33.5111752-15.8169846 51.0570953-16.4541158 52.6377604-1.4335453 3.5564964 1.6000292 8.9729784 2.8973061 11.8837564-4.2251875 1.892672-3.7749893-5.116668-9.1049497-2.634322-4.8649406 2.26577-8.5656889 6.371195-14.18642489 2.899309-.69103646-.426848-1.44829984-2.034007.38134422-3.289917 4.55831059-3.128931 11.12711227-8.6051222 12.01466087-10.4076531 1.210331-2.4580728 4.8390655-19.5047064 10.8862033-51.1399006zm85.8186308 15.5113319 17.549837 17.1389387c5.106356 2.1804674 9.290287 4.5881437 12.551794 7.2230289.093634.1130648.188327.2393518.275104.3720625l.083807.1346002c.523266.8855462.585659 1.9467536-2.277864 1.3166277-.186535-.0410477-.373694-.0817564-.560965-.1218656l-.56164-.1182677c-3.085272-.6377105-6.062381-1.041183-6.640856-.0391735-.648592 1.1234652 1.262539 2.8450131.063859 4.31534-.799119.980218-3.486621-2.1376634-8.062506-9.3536439l-18.24951-10.7709973z" fill="#ba8b72"/><path d="m62.7790903 9.34080727 5.2565515-1.38324696c11.0097065 29.01410599 55.9785452 45.51358689 59.6031882 56.40275559 1.329252 3.993346-1.422466 6.311545.200796 7.4212858l-6.491959 5.6902636c-1.294702-1.2692228-3.581867 1.4597842-8.970319.1622432s-46.5163768-33.0672413-49.5982577-68.29330123z" fill="#007b55" transform="matrix(.9961947 .08715574 -.08715574 .9961947 4.108585 -8.150852)"/><path d="m56.3062077.39075995 16.6870072 1.16852614c1.3650893.09596452 2.3943393 1.27996431 2.2994054 2.64512566l-.4460941 6.36517935c-.628295 39.558765 22.2138573 49.6449266 17.1273054 65.5090023-4.1994492 13.0973553-44.3951002 27.1769576-51.3507095 14.3384577-2.8158243-5.1973819-4.093221-11.483357-4.2379478-18.3175614-1.7773372 5.2508587-3.1835137 9.7709662-4.2178668 13.5605491-1.7841959 6.5367992-8.7011426 7.5758527-8.7011426 10.0940624l-9.1129795-2.5182097c.6181119-3.4210926-3.6779669-5.0869607-2.5260761-12.7299798 5.161073-34.2447237 19.0278217-59.0677827 41.6002462-74.46917708l.2345342-3.34651281c.0949449-1.36531904 1.2790272-2.39481056 2.644318-2.29946186z" fill="url(#l)" fill-rule="nonzero"/></g><use fill="#fff" xlink:href="#m"/><path d="m114.058201 1.2881915v283.6879345h-.828283v-283.6879345zm-23.6060555 1.24262845v282.09737005h-.8282826v-282.09737005zm-23.6060552 1.24262846v279.13162959h-.8282826v-279.13162959zm-23.6060552 1.24262845v276.29843714h-.8282827v-276.29843714zm-23.6060553 1.65683794v273.8131802h-.8282826v-273.8131802z" fill="#919eab" mask="url(#n)" opacity=".12"/><path d="m139.393066 285.442789-7.965318-.024785.314102-285.418004h7.651216z" fill="#dfe3e8"/><path d="m123.249607 154.52499c.914896 0 1.656565.741792 1.656565 1.656838 0 .657926-.383423 1.226284-.938974 1.493744l.429581.742988 1.151313 1.988205h-4.596969l1.151313-1.988205.42958-.742988c-.555551-.26746-.938974-.835818-.938974-1.493744 0-.915046.741669-1.656838 1.656565-1.656838zm0-16.568379c2.973411 0 5.383837 2.410823 5.383837 5.384723 0 2.973901-2.410426 5.384724-5.383837 5.384724s-5.383837-2.410823-5.383837-5.384724c0-2.9739 2.410426-5.384723 5.383837-5.384723z" fill="#919eab" opacity=".48"/></g></g></svg>