<svg height="260" viewBox="0 0 355 260" width="355" xmlns="http://www.w3.org/2000/svg" xmlns:xlink="http://www.w3.org/1999/xlink"><linearGradient id="a" x1="19.495903%" x2="77.479035%" y1="70.80977%" y2="18.23579%"><stop offset="0" stop-color="#00ab55"/><stop offset="1" stop-color="#00ab55" stop-opacity="0"/></linearGradient><filter id="b" height="177.5%" width="171.1%" x="-35.6%" y="-38.8%"><feOffset dx="12" dy="12" in="SourceAlpha" result="shadowOffsetOuter1"/><feGaussianBlur in="shadowOffsetOuter1" result="shadowBlurOuter1" stdDeviation="12"/><feColorMatrix in="shadowBlurOuter1" result="shadowMatrixOuter1" type="matrix" values="0 0 0 0 0   0 0 0 0 0.321568627   0 0 0 0 0.28627451  0 0 0 0.32 0"/><feMerge><feMergeNode in="shadowMatrixOuter1"/><feMergeNode in="SourceGraphic"/></feMerge></filter><linearGradient id="c" x1="55.647854%" x2="45.005906%" y1="21.76991%" y2="112.994736%"><stop offset="0"/><stop offset=".08" stop-opacity=".69"/><stop offset=".21" stop-opacity=".32"/><stop offset="1" stop-opacity="0"/></linearGradient><linearGradient id="d" x1="-32.158198%" x2="215.481884%" y1="19.95345%" y2="-174.062289%"><stop offset=".01"/><stop offset=".08" stop-opacity=".69"/><stop offset=".21" stop-opacity=".32"/><stop offset="1" stop-opacity="0"/></linearGradient><linearGradient id="e" x1="0%" x2="100%" y1="12.871196%" y2="87.128804%"><stop offset="0" stop-color="#ffe16a"/><stop offset="1" stop-color="#b78103"/></linearGradient><filter id="f" height="190.2%" width="174.2%" x="-37.1%" y="-45.1%"><feOffset dx="4" dy="4" in="SourceAlpha" result="shadowOffsetOuter1"/><feGaussianBlur in="shadowOffsetOuter1" result="shadowBlurOuter1" stdDeviation="4"/><feColorMatrix in="shadowBlurOuter1" result="shadowMatrixOuter1" type="matrix" values="0 0 0 0 0   0 0 0 0 0.321568627   0 0 0 0 0.28627451  0 0 0 0.32 0"/><feMerge><feMergeNode in="shadowMatrixOuter1"/><feMergeNode in="SourceGraphic"/></feMerge></filter><linearGradient id="g" x1="49.662212%" x2="52.227677%" y1="33.630694%" y2="84.09698%"><stop offset="0" stop-color="#00ab55"/><stop offset="1" stop-color="#007b55"/></linearGradient><g fill="none" fill-rule="evenodd"><path d="m0 143.563853c0 29.941281 11.0533541 57.225145 29.2424179 77.845271 20.8668982 23.663283 51.1260382 38.540855 84.8550921 38.590876 14.740915.021266 28.835884-2.807239 41.782767-7.970785 6.694197-2.670882 14.186692-2.364349 20.670238.799997 7.605205 3.706917 16.121418 5.785326 25.114123 5.785326 3.714766 0 7.352579-.357227 10.871463-1.035244 10.044405-1.928706 19.184799-6.49265 26.691285-12.956786 4.717497-4.064144 10.759531-6.106909 16.934485-6.099781h.104937c20.404398 0 39.357558-6.306512 55.09343-17.113603 14.067764-9.649075 25.555635-22.891801 33.209811-38.440261 6.67321-13.54926 10.429951-28.855344 10.429951-45.054892 0-55.5609927-44.207975-100.6087554-98.733192-100.6087554-5.558547 0-11.004384.4784142-16.3173 1.3710843-14.067764-23.2062552-39.259618-38.6762999-67.997561-38.6762999-12.133038 0-23.635678 2.75721805-33.931932 7.69977496-9.791779 4.68513204-18.497656 11.34253444-25.619374 19.45577334-24.182127.3928699-46.5422385 8.4427426-64.843235 21.8771509-28.8079014 21.1349753-47.557406 55.6045578-47.557406 94.5311538z" fill="url(#a)" opacity=".24"/><g filter="url(#b)" transform="translate(71 38)"><path d="m21.4137184 167.427437-1.0166065-.063538c-3.3277978-.262094-5.5595668 1.437545-8.3631769 3.081588-3.33574005 1.961733-7.14801442 3.041878-10.39638987 5.098917-.48447654.309748-1.02454874.881589-.73068592 1.374008.19855595.325631.65126353.373285 1.04043321.381227 8.22021658.158845 16.41660648.190614 24.62093858.190614h148.916968c5.429292-.022112 10.851633-.390853 16.233935-1.103971.799666-.024157 1.456573-.639259 1.533185-1.435613.076611-.796355-.450985-1.525409-1.23138-1.701572-4.617088-1.588447-9.255355-3.073646-13.914802-4.455595-11.841877-3.558123-25.137184-2.001444-37.32852-1.747293-12.834657.277979-25.69314.595668-38.519855-.230325-9.2368234-.595667-16.4880869 0-25.756679.301806-6.7588447.198555-13.4462094.794223-20.2288808.690974l-24.0888087-.293863c-3.5898917.023827-7.2036101.127076-10.7696751-.087364z" fill="#005249"/><path d="m68.8209386 168.332852h60.5119134l-10.706137-38.488087h-40.7754515z" fill="#00ab55" fill-rule="nonzero"/><path d="m68.8209386 168.332852h60.5119134l-10.706137-38.488087h-40.7754515z" fill="url(#c)" fill-rule="nonzero"/><path d="m189.71769 27.0086643v99.2779787c-.034993 5.979376-4.901414 10.803171-10.880867 10.785607h-156.7956678c-5.9899796 0-10.848276-4.85123-10.8570397-10.841203v-99.2223827c0-5.9961775 4.8608623-10.857066 10.8570397-10.857066h156.7956678c2.879468-.0062999 5.643513 1.1315008 7.684073 3.1631239 2.04056 2.031623 3.190481 4.7906472 3.196794 7.6701153z" fill="#00ab55" fill-rule="nonzero"/><path d="m189.71769 27.0166065v87.0231045h-178.5335745v-87.0231045c0-5.9974636 4.8595778-10.8605978 10.8570397-10.8649849h156.7956678c2.883679-.0021042 5.650087 1.1414123 7.690646 3.1789919 2.040558 2.0375795 3.188115 4.802314 3.190221 7.685993z" fill="#005249"/><path d="m187.033213 29.0577617v82.0750903h-173.1407942v-82.0750903c.0480435-5.7682788 4.7470717-10.4140702 10.5155234-10.3965424h152.0859208c5.777732-.0306873 10.491284 4.6189277 10.53935 10.3965424z" fill="#fff" fill-rule="nonzero"/><path d="m187.033213 29.0577617v82.0750903h-173.1407942v-82.0750903c.0480435-5.7682788 4.7470717-10.4140702 10.5155234-10.3965424h152.0859208c5.777732-.0306873 10.491284 4.6189277 10.53935 10.3965424z" fill="#00ab55" fill-rule="nonzero" opacity=".18"/><path d="m52.0151625 137.072202c1.4534296-6.735018-5.4563177-12.66787-5.1942239-19.55379.1111914-3.025993 1.5884477-5.805777 3.065704-8.458484.0869678-.208042.2406345-.381266.4368231-.492419.3018051-.127076.6353791.063538.9292419.206498 2.7400722 1.405776 6.2267148-.587725 7.5451263-3.367509 1.3184116-2.779783 1.0722022-6.0122742.7942239-9.0700359-2.9724266 2.3967918-6.9928966 3.0376487-10.5631769 1.6837545-1.7393502-.6750902-3.3833935-1.834657-5.2498195-1.8267554-1.866426.0079828-3.5819495 1.2707987-4.9400722 2.6289215-4.6620939 4.6620943-7.2830325 11.0635383-8.4823105 17.5523463-1.199278 6.488809-.9212996 14.002166-.7942238 20.602166z" fill="url(#d)" fill-rule="nonzero"/><path d="m159.989892 63.868592-24.025271-13.096751"/><path d="m62.6577617 57.3241877h82.5992783c3.070464 0 5.559566 2.4891029 5.559566 5.5595668 0 3.070464-2.489102 5.5595668-5.559566 5.5595668h-82.5992783z" fill="#00ab55" fill-rule="nonzero"/><path d="m62.657762 57.324188h66.683032v11.07148h-66.683032z" fill="#fff" fill-rule="nonzero"/><circle cx="139.228881" cy="62.232491" r="2.668592" stroke="#fff" stroke-width=".794224"/><path d="m141.67509 66.576895-1.096029-2.041155" stroke="#fff" stroke-width=".794224"/><g fill-rule="nonzero"><path d="m44.2635379 167.943682c-.0483774.542301.1364796 1.079541.5083033 1.477257.1976036.136657.4225175.228791.6592057.270036.6274422.122844 1.2682821.162896 1.9061372.119133 1.1916573-.081927 2.3756289-.251824 3.5422383-.508303l2.001444-.381227c.2561547-.009426.4960551-.127931.6592058-.325632.1289288-.262555.0848829-.577169-.1111913-.794224-.3420441-.395047-.7876862-.68664-1.2866426-.841877-1.2032623-.489423-2.4435058-.882476-3.7090253-1.175451-.2095223-.031959-.4083351-.113663-.5797834-.238268-.2541516-.222382-.3018051-.595668-.4765343-.881588-.3485725-.51713-.9830824-.761417-1.5884476-.611552-.5797834.111191-1.4137185.500361-1.5884477 1.13574-.0821361.918131-.060823 1.842586.0635379 2.755956z" fill="#ba8b72"/><path d="m50.7444043 166.029603c-.4169691-.10922-.8604142.015309-1.1595668.325632-.333574.484476.0953069 1.262816-.2938628 1.699639-.2447096.206009-.5640787.300957-.8815884.262094h-2.2079423c-.5940552.028153-1.1892702-.019891-1.7711191-.142961-.1301471-.055539-.2736208-.072094-.4129964-.047653-.2014511.05651-.3488724.229025-.3732852.436823-.0190123.202687.0109501.406976.0873646.595668.1432844.403305.3497057.781297.6115524 1.119855.0720027.099874.1639548.183713.2700361.24621.1254651.052349.2615765.074127.3971119.063538 1.3104693 0 2.6209386.047653 3.9711191-.055596.9133574-.063538 1.8187726-.190614 2.7241878-.270036 1.3154894.001889 2.6213891-.223822 3.8599278-.667148.3256701-.110043.5924046-.348096.7386281-.659206.0666802-.276352.0054259-.568039-.166787-.794224-.1759042-.232953-.3975175-.427541-.6512635-.571841-.7153261-.461192-1.5014527-.801937-2.3270758-1.008664-.7922424-.230254-1.5988056-.408016-2.4144405-.53213z" fill="#7a4f01"/><path d="m19.9920578 165.497473v.166787c.0794223 1.763177 2.3826714 1.81083 3.6772563 1.747292 1.1886153-.08584 2.3696648-.255698 3.534296-.508303l2.0093863-.381227c.2542121-.016873.4913212-.133999.6592058-.325632.1203452-.263866.0769893-.573551-.1111914-.794224-.3430661-.397593-.7920197-.689551-1.2945848-.841877-1.0822744-.415899-2.1850262-.776414-3.3039711-1.080145-.9927798-.293862-.1588448-1.659927-.0476535-2.382671.0398698-.145575.0398698-.299191 0-.444765-.1132524-.156882-.279879-.267025-.468592-.309748-.5783007-.19909-1.1835632-.308895-1.7949459-.325631-.1237615-.016393-.2494642.008747-.3574007.07148-.095082.073285-.1668227.172619-.2064982.28592l-1.9140794 4.090253c-.189616.31773-.3188633.667775-.3812274 1.032491z" fill="#ba8b72"/><path d="m20.833935 113.563177s-1.4296029 8.053429 1.5249098 14.089531c1.5481555 3.24621 3.2797129 6.401728 5.1862816 9.451263 0 0-6.1472925 6.647654-6.1472925 15.034657 0 8.387004-.1588447 8.736462-.1588447 8.736462l3.6931408 1.866426 9.2129964-25.669314s.5559566-3.637545 0-4.868592c-.5559567-1.231047-5.2815885-15.264982-5.2815885-15.264982z" fill="#212b36"/><path d="m54.2231047 80.9126674c-1.9061372 0-3.9711191-2.033245-5.1624549-5.1704291-1.334296-3.6296029-.7545126-6.9574008 1.3501805-7.7357401 2.1046932-.7783394 4.7018051 1.3819495 6.0440433 5.0115523 1.3422383 3.6375452.7942239 6.965343-1.3422382 7.7436824-.2855581.1013421-.5865268.1523993-.8895307.1509345zm-2.9227437-11.349495c-.1024992-.0003077-.2043884.0157801-.301805.0476579-.9848376.365343-1.3342961 2.8115524-.3256318 5.5595668 1.0086642 2.7480145 2.8592058 4.3602888 3.8440433 3.9711191.9848376-.3891696 1.334296-2.8115523.333574-5.5595667-.9133574-2.430325-2.5256318-4.0187771-3.5501805-4.0187771z" fill="#292d32"/><path d="m61.8 88.8945848c-.2609587-.0007601-.5081711-.1170953-.6750903-.3176895l-6.3537906-8.0057762c-.1416062-.1788598-.2061294-.4067612-.1793015-.6333079s.1427966-.4330741.3222618-.5739123c.3665948-.2905354.8990586-.2301895 1.1913358.1350181l6.3537906 8.0057761c.2052574.2555714.2452292.6064072.1027221.9016005s-.4420832.4821093-.7698701.480349z" fill="#292d32"/><path d="m50.5617329 77.0288809c.0984425.840698.1329579 1.6876535.103249 2.533574-.1679793.6500745-.569454 1.2155319-1.1277978 1.5884476-.5576811.3749944-1.1795797.6442146-1.834657.7942239-.2901889.0233596-.5541453.1770064-.7177648.4178049s-.2092616.5427872-.1241125.8211842v2.1682311c.0243008.2264442-.0319382.4542122-.1588447.6433213-.1032684.1015866-.2323535.1729954-.3732852.2064982-1.0839701.2531432-2.1938661-.3051478-2.6368231-1.3263538-.2382672-.4765343-.5083033-.9451264-.7942239-1.397834-.2806612-.5858873-.4503128-1.2187147-.500361-1.866426-.2122858-2.0786205.1792877-4.174366 1.1277978-6.036101.5863312-1.1902107 1.4464226-2.2244978 2.5097473-3.0180506.8418773-.6036101 2.5018051-1.5169675 3.3675091-.468592.4288808.5241877.4209386 1.2945848.7942238 1.8425992.2938628.397112.7942238.6671481.8815884 1.1516246.0873647.4844765-.2382671.7942238-.3891696 1.2310469-.0819398.2295092-.1248917.4711135-.1270758.7148015z" fill="#ba8b72"/><path d="m56.9234657 81.4050542v-.1270759c.0079685-.4967617.1907568-.9748235.5162455-1.3501805.3453757-.3742238.9063305-.453886 1.3422383-.1906137.1747292.1191336.2938628.3018051.4844765.3891697s.6036101 0 .7942238.2382671c.1906137.2382672.1509025.4129964.2462094.6194946s.3732852.3812275.5559567.5797834c.8974729.9689531-.0953069 2.700361-.4527076 3.6851986-.5400722 1.4772563-1.0563177 2.9624548-1.5090253 4.4714801-.5269567.0795463-1.0652509-.0241874-1.5249097-.2938628-.169296-.1002452-.3198072-.2292547-.4447654-.3812274-.2937262-.5285937-.3569199-1.154786-.1747292-1.731408.1108299-.4355641.143104-.8874013.0953069-1.334296-.126513-.4841178-.2857233-.9590952-.4765343-1.4216607-.1350181-.3891696-.2462094-.8815884.0635379-1.1595667.1032491-.0953069.2541516-.1509026.3415162-.2620939.0750777-.1157168.1138032-.2512559.1111914-.3891697.0476534-.4765343.0079422-.8895307.0317689-1.3422382z" fill="#ba8b72"/><path d="m39.4108303 117.041877 8.9350181 20.030325-.3732852 28.488809-4.098195-.301805s-7.0129964-16.202166-2.501805-26.209387c0 0-10.833213-9.260649-14.8361011-14.534296-4.9162455-6.488808-3.8043321-11.913357-3.8043321-11.913357z" fill="#212b36"/></g><path d="m43.5487365 82.4137184c1.1004987.2466927 2.1671839.625366 3.1768953 1.1277978 3.4310469 1.5884477 3.5819494 4.2888087 4.7653429 7.5371842.7613769 2.0668931 1.6309292 4.0923137 2.6050542 6.06787l1.6361011-9.7848375 4.5906137 1.8505415s.4527076 14.4548736-2.9148015 16.3927796c-2.168231 1.254874-5.202166-.206498-7.1480144-1.215162-.7148014-.365343-1.8981949-1.469314-2.6685921-1.588448-1.469314-.198556-1.5884476 1.540794-2.8592057 2.565343-.8499567.490713-1.6646858 1.040058-2.4382672 1.644043-.7234743.846601-1.2642573 1.83353-1.5884476 2.898917-.366945 1.311486-.4748518 2.681903-.3176896 4.034657.0635379.929242.1270758 1.98556-.5321299 2.628881-.3763571.32569-.8405538.532921-1.3342961.595668-1.6317706.2357-3.2902223.216946-4.9162454-.055596-3.2253434-.254203-6.4177173-.82617-9.530686-1.707581-1.1252086-.353386-2.2239847-.785995-3.2880866-1.294585-.2328073-.097827-.4455263-.237845-.6274368-.412996-.1966258-.225352-.3283872-.499855-.3812275-.794224-.4209386-1.969675 1.0007221-3.79639 1.7155235-5.6787.4765343-1.270758.6353791-2.644766 1.0722022-3.931408.4765343-1.437545 1.3660649-2.382672 2.1602888-3.6534298.6433213-1.000722 1.000722-2.1841155 1.6440433-3.2166065 1.7183723-2.6490231 3.6324975-5.1657925 5.7263538-7.5292419 1.2290089-1.522742 2.595541-2.9291535 4.0823105-4.201444 1.7019592-1.4925029 3.8761489-2.3363023 6.1393501-2.3826715.4124073.0024021.8240011.0369228 1.231047.1032491z" fill="url(#e)"/><path d="m39.9509025 65.5920578c-2.6920011.1493939-5.0192972 1.9287204-5.8693141 4.4873646-.3574007.9212996-.2144404 2.0808664-.3574007 3.0736462-.0639987 1.1220734-.5225309 2.185418-1.2945848 3.0021661-.9530686.8736462-2.3826715 1.0086642-3.5978339 1.3263537-1.9458484.4924188-3.8837546 1.6519856-4.598556 3.5342961-.7148014 1.8823104-.1111913 3.8043321-.4288809 5.6866426-.2621534 1.5669833-1.1148446 2.9739237-2.3826715 3.9314079-.8736462.6433213-1.9140794 1.0483755-2.8194945 1.6599278-1.5759557 1.1856495-2.6161979 2.9489306-2.8917659 4.9017397-.275568 1.952809.2361243 3.9350895 1.4224518 5.5105345l.1111913.14296c.3348418.337675.6453648.698625.9292419 1.080145.2593642.445392.4953049.904019.7068592 1.374007 1.2625693 2.198679 3.6646748 3.489041 6.1949459 3.327798 2.5025409-.207226 4.790525-1.494761 6.2664259-3.526354 1.3898917-1.850541 2.1523466-4.169675 3.8361011-5.7501804 1.176055-.918581 2.4125376-1.7570541 3.7010831-2.5097473 2.0093862-1.4296028 3.5740072-3.7249097 3.4548736-6.1870036-.1111913-2.0490974-1.834657-4.2808664-.2382671-6.099639.5951605-.5875898 1.2560827-1.1046016 1.969675-1.5407942.7181082-.4409775 1.3049909-1.0662544 1.699639-1.8108303.7942239-1.7155235-.3574007-3.8837545.5559567-5.5595668.6750903-1.199278 2.1841155-1.6440433 3.1768953-2.6368231 1.0826408-1.217335 1.3414395-2.9603286.6592058-4.4397112-.7055202-1.4525054-2.0264836-2.5110258-3.5978339-2.8830325-1.1511222-.2392448-2.3299879-.3167666-3.5025271-.2303249l-2.0014441.0635379c-.3695318-.0253126-.7407889-.0012744-1.1039711.0714802z" fill="#b72136" fill-rule="nonzero"/><path d="m26.6873646 163.281588c-.4155311-.111211-.8587439.010217-1.1595668.31769-.333574.492419.0953069 1.262816-.2938628 1.707581-.2501675.201086-.5708904.292721-.8895307.254152h-2.2317689c-.5939827.02418-1.1887046-.023824-1.7711192-.14296-.1343472-.049949-.2782303-.068952-.4209386-.055596-.1983716.063917-.3411688.237757-.3653429.444765-.0231666.200184.0069721.402936.0873646.587726.1432577.405761.3496467.786374.6115523 1.127798.0696513.101943.1621105.186244.2700361.246209.1264704.048719.2617544.070364.3971119.063538 1.3104694 0 2.6209387.047653 3.9711192-.055596.9054151-.07148 1.8108303-.198556 2.7241877-.270036 1.3151528-.002033 2.6203896-.22763 3.8599278-.667148.325642-.11126.5903417-.352942.7306859-.667148.0689213-.275164.0106073-.566734-.1588447-.794224-.1762193-.230546-.3978803-.422472-.6512636-.563899-.7153261-.461192-1.5014526-.801936-2.3270758-1.008664-.7810406-.23003-1.5772046-.405186-2.3826715-.524188z" fill="#7a4f01" fill-rule="nonzero"/><g fill-rule="nonzero" filter="url(#f)" transform="translate(109.794946 76.631769)"><rect fill="#fff" height="50.353791" rx="7.243321" width="61.544404"/><path d="m38.3927798 17.0187726c0-1.1045695.8954305-2 2-2h1.1465704c1.1045695 0 2 .8954305 2 2v24.8844765h9.2765343v.7942238h-43.77761735v-32.3169675h.79422382v31.5227437h6.53646213v-13.3920578c0-1.1045695.8954305-2 2-2h1.1465704c1.1045695 0 2 .8954305 2 2v13.3920578h5.3530686v-20.1032491c0-1.1045695.8954305-2 2-2h1.1465704c1.1045695 0 2 .8954305 2 2v20.1032491h6.3776173z" fill="#00ab55"/></g><rect fill="url(#g)" fill-rule="nonzero" height="50.353791" rx="4.725632" width="61.544404" x="2.25704" y=".418051"/><g fill="#005249"><rect height="2.835379" opacity=".48" rx="1" width="45.127798" x="10.326354" y="10.846209"/><rect height="2.835379" opacity=".48" rx="1" width="28.099639" x="10.326354" y="19.344404"/><rect height="2.835379" opacity=".48" rx="1" width="45.127798" x="10.326354" y="27.842599"/><rect height="2.835379" opacity=".48" rx="1" width="28.099639" x="10.326354" y="36.340794"/></g></g></g></svg>