<svg height="260" viewBox="0 0 355 260" width="355" xmlns="http://www.w3.org/2000/svg" xmlns:xlink="http://www.w3.org/1999/xlink"><defs><linearGradient id="a" x1="19.495903%" x2="77.479035%" y1="70.80977%" y2="18.23579%"><stop offset="0" stop-color="#00ab55"/><stop offset="1" stop-color="#00ab55" stop-opacity="0"/></linearGradient><filter id="b" height="171.1%" width="173.4%" x="-36.7%" y="-35.6%"><feOffset dx="12" dy="12" in="SourceAlpha" result="shadowOffsetOuter1"/><feGaussianBlur in="shadowOffsetOuter1" result="shadowBlurOuter1" stdDeviation="12"/><feColorMatrix in="shadowBlurOuter1" result="shadowMatrixOuter1" type="matrix" values="0 0 0 0 0   0 0 0 0 0.321568627   0 0 0 0 0.28627451  0 0 0 0.32 0"/><feMerge><feMergeNode in="shadowMatrixOuter1"/><feMergeNode in="SourceGraphic"/></feMerge></filter><linearGradient id="c"><stop offset=".01"/><stop offset=".13" stop-opacity=".69"/><stop offset=".25" stop-opacity=".32"/><stop offset="1" stop-opacity="0"/></linearGradient><linearGradient id="d" x1="63.816956%" x2="-75.461156%" xlink:href="#c" y1="50.442074%" y2="45.984363%"/><linearGradient id="e" x1="91.672579%" x2="-130.542746%" xlink:href="#c" y1="50.121686%" y2="49.471667%"/><linearGradient id="f" x1="26.439206%" x2="81.405271%" xlink:href="#c" y1="9.655466%" y2="103.658018%"/><linearGradient id="g" x1="95.237673%" x2="-128.228095%" xlink:href="#c" y1="51.649692%" y2="43.498272%"/><linearGradient id="h" x1="92.8502%" x2="-20.123333%" xlink:href="#c" y1="-17.575934%" y2="130.439858%"/><linearGradient id="i" x1="52.670532%" x2="48.205516%" xlink:href="#c" y1="136.608752%" y2="22.566642%"/><linearGradient id="j" x1="43.211304%" x2="54.577181%" xlink:href="#c" y1="195.676926%" y2="-16.322415%"/><linearGradient id="k" x1="-148.602275%" x2="424.908425%" xlink:href="#c" y1="-15.731637%" y2="174.06979%"/><linearGradient id="l" x1="-91.127239%" x2="316.380653%" xlink:href="#c" y1="-6.497012%" y2="156.641604%"/><linearGradient id="m" x1="-15.529753%" x2="284.179971%" xlink:href="#c" y1="50.01656%" y2="50.01656%"/><linearGradient id="n" x1="100.374813%" x2="-82.196402%" xlink:href="#c" y1="68.578279%" y2="-8.870633%"/><rect id="o" height="34.012121" rx="3" width="24.937374" x="12.818182" y="58.00404"/><linearGradient id="p" x1="99.949006%" x2="-45.826959%" xlink:href="#c" y1="16.605675%" y2="113.950265%"/></defs><g fill="none" fill-rule="evenodd"><path d="m0 143.563853c0 29.941281 11.0533541 57.225145 29.2424179 77.845271 20.8668982 23.663283 51.1260382 38.540855 84.8550921 38.590876 14.740915.021266 28.835884-2.807239 41.782767-7.970785 6.694197-2.670882 14.186692-2.364349 20.670238.799997 7.605205 3.706917 16.121418 5.785326 25.114123 5.785326 3.714766 0 7.352579-.357227 10.871463-1.035244 10.044405-1.928706 19.184799-6.49265 26.691285-12.956786 4.717497-4.064144 10.759531-6.106909 16.934485-6.099781h.104937c20.404398 0 39.357558-6.306512 55.09343-17.113603 14.067764-9.649075 25.555635-22.891801 33.209811-38.440261 6.67321-13.54926 10.429951-28.855344 10.429951-45.054892 0-55.5609927-44.207975-100.6087554-98.733192-100.6087554-5.558547 0-11.004384.4784142-16.3173 1.3710843-14.067764-23.2062552-39.259618-38.6762999-67.997561-38.6762999-12.133038 0-23.635678 2.75721805-33.931932 7.69977496-9.791779 4.68513204-18.497656 11.34253444-25.619374 19.45577334-24.182127.3928699-46.5422385 8.4427426-64.843235 21.8771509-28.8079014 21.1349753-47.557406 55.6045578-47.557406 94.5311538z" fill="url(#a)" opacity=".24"/><g filter="url(#b)" transform="translate(72 34)"><g fill-rule="nonzero"><path d="m187.282828 172.533333h-6.416161v-.557575h5.850505v-52.347475h-22.561616v-77.3818184h-20.711112v-.5575757h21.268687v77.3818181h22.569697z" fill="#00ab55"/><path d="m58.8060606 83.0626263h-.5656566v-18.5050505h14.4404041v-16.7030303h.5575757v17.2686868h-14.4323232z" fill="#00ab55"/><rect fill="#00ab55" height="31.652525" rx="8.428283" width="91.119192" x="46.119192" y="160.921212"/><rect fill="#00ab55" height="31.652525" rx="8.428283" width="91.119192" x="46.119192" y="123.272727"/><rect fill="url(#d)" height="31.652525" rx="8.428283" width="91.119192" x="46.119192" y="160.921212"/><rect fill="url(#e)" height="31.652525" rx="8.428283" width="91.119192" x="46.119192" y="123.272727"/><rect fill="#00ab55" height="31.652525" rx="8.428283" width="91.119192" x="55.09697" y="160.921212"/><path d="m146.216197 131.70101v14.787879c.006428 2.241581-.881177 4.393216-2.46622 5.978259-1.585044 1.585044-3.736679 2.472648-5.97826 2.46622h-74.2383837c-2.2381226 0-4.3843421-.890226-5.9654172-2.474333-1.581075-1.584107-2.4671573-3.732028-2.4628811-5.970146v-14.787879c0-4.654812 3.7734863-8.428298 8.4282983-8.428298h74.2383837c2.238119-.004276 4.38604.881806 5.970146 2.462881 1.584107 1.581075 2.474334 3.727295 2.474334 5.965417z" fill="#00ab55"/><path d="m146.216162 134.181818v12.307071c-.002251 2.620828-1.220105 5.092355-3.29697 6.690909-.064647-2.618182-.210101-9.907071 0-13.139394.18318-2.342922 1.389293-4.486139 3.29697-5.858586z" fill="url(#f)"/><rect fill="#00ab55" height="31.652525" rx="8.428283" width="91.119192" x="46.119192" y="83.062626"/><rect fill="url(#g)" height="31.652525" rx="8.428283" width="91.119192" x="46.119192" y="83.062626"/><rect fill="#00ab55" height="31.652525" rx="8.428283" width="91.119192" x="55.09697" y="83.062626"/><path d="m121.690909 104.711111c-.684551.305384-1.069279 1.041385-.929293 1.777778.080808.719192.420202 1.39798.533333 2.109091.331314 2.076767-1.397979 4.088889-3.426262 4.614141-2.658586.678788-5.381818-.662626-7.741414-2.060606-.294228-.153559-.566102-.346589-.808081-.573737-.376269-.501159-.605698-1.097115-.662626-1.721212-.254906-1.171701-.398306-2.364904-.428283-3.563637 0-2.739394 1.20404-5.3575755 1.268687-8.0808078.041026-3.822357-2.06234-7.3456507-5.446465-9.1232323-1.376866-.607224-2.794455-1.1175563-4.2424242-1.5272727-1.2689054-.4408964-2.5010172-.9812963-3.6848485-1.6161617-.7434343-.3878787-1.5595959-.9373737-1.6161616-1.7696969 1.246576-.5586714 2.6144343-.7922082 3.9757576-.6787879h23.4343437c.294189-.0279039.590451.0250045.856565.1535354.268153.2038338.465919.4863565.565657.8080808 1.567677 3.7575757 1.381818 7.9191919 1.70505 11.9030303.126503 1.9460409.48736 3.8697085 1.074748 5.7292928.331313 1.010101 1.414141 2.941414.735353 4-1.276767 1.971717-3.725252-.767677-5.163636-.379798z" fill="url(#h)"/><path d="m143.428283 37.2606061c0 2.811088-1.117253 5.5069233-3.10575 7.4939048s-4.685183 3.1021788-7.49627 3.1000346h-72.6303034c-3.8560699.1064883-7.465685-1.8898616-9.4251174-5.2126977-1.9594323-3.3228362-1.9594323-7.4477281 0-10.7705643 1.9594324-3.3228361 5.5690475-5.319186 9.4251174-5.2126976h2.4242424c-1.7681023-6.2950998-.4865006-13.0549301 3.4630679-18.26601211 3.9495685-5.21108197 10.1113735-8.2721224 16.6500634-8.27136892h6.1818182c7.7992828-.00647797 14.9504905 4.33911222 18.5373735 11.26465373 1.765207-.905551 3.721123-1.3765224 5.705051-1.3737374h1.616161c3.33262 0 6.528744 1.3238779 8.885261 3.6803956 2.356518 2.3565177 3.680396 5.5526417 3.680396 8.885261v.6222222c.000373 1.1698251-.162823 2.3339569-.484849 3.4585859h6.012122c5.837702.0266751 10.557231 4.7642586 10.561616 10.6020202z" fill="#00ab55" opacity=".12"/><path d="m170.458586 153.19596c-1.033205.000233-1.877007-.825615-1.89899-1.858586v-12.307071c0-4.462907-3.617901-8.080808-8.080808-8.080808s-8.080808 3.617901-8.080808 8.080808v12.307071c0 1.048783-.850207 1.89899-1.89899 1.89899s-1.89899-.850207-1.89899-1.89899v-12.307071c0-6.560473 5.318314-11.878788 11.878788-11.878788 6.560473 0 11.878788 5.318315 11.878788 11.878788v12.307071c-.021983 1.032971-.865785 1.858819-1.89899 1.858586z" fill="#fff"/><path d="m172.357576 139.030303v12.307071c-.004284.666685-.360816 1.281395-.937374 1.616161-.290072.17527-.622706.267513-.961616.266677-1.042504 0-1.890118-.840372-1.89899-1.882838v-12.307071c.000433-4.09129-3.056973-7.537379-7.119192-8.024242-.319369-.035183-.640324-.054063-.961616-.056566-4.462907 0-8.080808 3.617901-8.080808 8.080808v12.307071c-.007512.665801-.363186 1.279032-.937374 1.616161-.292913.175546-.62821.267753-.969697.266677-1.046944-.004437-1.894563-.852056-1.89899-1.899v-12.290909c.008912-6.559933 5.326931-11.874337 11.886869-11.878789.321154 0 .642108.016017.961616.048486 6.163662.500604 10.912227 5.646347 10.917172 11.830303z" fill="url(#i)"/><path d="m172.357576 139.030303v12.307071c.26755.454847.16826 1.036321-.235064 1.376613-.403324.340293-.993215.340293-1.396539 0-.403324-.340292-.502614-.921766-.235064-1.376613v-12.307071c0-4.462907-3.617901-8.080808-8.080808-8.080808-.323979.002508-.647624.021387-.969697.056566-.319369-.035183-.640324-.054063-.961616-.056566-4.462907 0-8.080808 3.617901-8.080808 8.080808v12.307071c.263163.455068.161467 1.03341-.24115 1.371407-.402616.337997-.989832.337997-1.392448 0s-.504313-.916339-.24115-1.371407v-12.307071c-.355059-4.1216 1.643084-8.091431 5.165003-10.261624s7.966257-2.170193 11.488176 0 5.520062 6.140024 5.165003 10.261624z" fill="url(#j)"/><rect fill="#00ab55" height="41.923232" rx="7.305051" width="41.923232" x="138.943434" y="151.288889"/><rect fill="url(#k)" height="41.915152" rx="7.29697" width="41.915152" x="138.943434" y="151.29697"/><rect fill="url(#l)" height="41.915152" rx="7.29697" width="34.650505" x="146.216162" y="151.29697"/><path d="m163.50101 170.884848c-1.253065-.398451-2.028663-1.650816-1.827053-2.950157.201609-1.299342 1.320244-2.257792 2.635134-2.257792s2.433524.95845 2.635134 2.257792c.20161 1.299341-.573988 2.551706-1.827053 2.950157l2.076767 6.59394h-5.567676z" fill="url(#m)"/><g fill="#c8facd"><circle cx="69.375758" cy="99.232323" r="3.579798"/><circle cx="80.139394" cy="99.232323" r="3.579798"/><circle cx="90.911111" cy="99.232323" r="3.579798"/><circle cx="69.375758" cy="139.10303" r="3.579798"/><circle cx="80.139394" cy="139.10303" r="3.579798"/><circle cx="90.911111" cy="139.10303" r="3.579798"/><circle cx="69.375758" cy="178.973737" r="3.579798"/><circle cx="80.139394" cy="178.973737" r="3.579798"/><circle cx="90.911111" cy="178.973737" r="3.579798"/></g></g><path d="m124.034343 96.8969697c-.157795.9780178-.102668 1.9785706.161617 2.9333333.374893.903568 1.014344 1.672599 1.834343 2.206061 1.746688 1.221432 3.898294 1.719516 6.00404 1.389899.285104-.014223.555209-.132035.759596-.331314.127374-.170667.198028-.376977.202021-.589898-.006375-1.138143-.442159-2.23193-1.220202-3.0626268-.773712-.8244615-1.40458-1.7721286-1.866667-2.8040404-.678788-2.0040404.662626-6.9252525-2.989899-6.5858585-3.022222.2828282-2.658586 4.7191919-2.884849 6.8444444z" fill="#ba8b72"/><path d="m110.773737 69.6080808c2.777554.0996714 5.546384.3695379 8.290909.8080808 4.848485.7434344 7.951516 2.8040404 9.147475 7.6686869 1.09899 4.4444444 2.19798 8.9454545 2.181818 13.5272727.114503 1.0814069-.195512 2.1650106-.864646 3.0222222-1.123232 1.1313132-3.159596.7111111-4.266667-.420202-1.10707-1.1313131-1.559596-2.7555555-2.012121-4.2828283-.759596-2.5939394-1.721212-8.7434343-4.468687-9.430303-4.654545-1.1636364-9.438384 1.769697-13.995959 0-1.62779-.5694362-3.17789-1.340414-4.614142-2.2949495-1.4373142-.9674874-2.5474429-2.3481043-3.1838382-3.959596-.2882258-.8580741-.4488626-1.753828-.4767677-2.6585858-.0566755-.7432348-.0404364-1.4902334.0484849-2.230303.1454545-.8565657.2909091-.759596 1.1555555-.7515152 1.4626263 0 2.9171715.1131313 4.3717175.2505051 2.892929.2424242 5.785858.670707 8.686868.7515151z" fill="#212b36" fill-rule="nonzero"/><path d="m123.129293 100.226263s-.662626 1.171717-.137374 1.979798c.525253.80808 6.383839 5.6 11.086869 2.973737s-5.349495-4.363636-5.349495-4.363636z" fill="#b78103" fill-rule="nonzero"/><path d="m123.759596 97.3737374c.428173-.1466917.899192.0424032 1.107071.4444444.719622 1.0746208 1.939431 1.705872 3.232323 1.6727273 1.438384-.1535354 2.214141-1.6888889 2.909091-1.6161616.694949.0727272 3.991919 3.7252525 4.040404 5.1070705s-1.987879 2.133334-4.105051 1.99596c-2.117171-.137374-6.666666-2.214142-7.426262-3.434344-.608002-1.345529-.517411-2.903693.242424-4.1696966z" fill="#7a4f01" fill-rule="nonzero"/><path d="m113.79596 101.890909c-.318589.94011-.428883 1.938266-.323233 2.925253.218249.952646.723044 1.81559 1.446465 2.472727 1.520748 1.496151 3.563699 2.342309 5.69697 2.359596.284865.031667.57163-.040025.80808-.20202.153154-.148552.257442-.340217.29899-.549495.179532-1.127487-.071414-2.281262-.70303-3.232324-.629442-.938895-1.096558-1.97693-1.381818-3.070707-.347475-2.084848 1.785858-6.7232319-1.874748-6.9898986-3.062626-.210101-3.426262 4.2424242-3.967676 6.2868686z" fill="#ba8b72"/><path d="m105.141414 72.8c2.733628.5396137 5.432149 1.2439277 8.080808 2.1090909 4.630303 1.5272727 7.377778 4.040404 7.765657 9.0666667.347475 4.5656565.694949 9.1878788-.064647 13.7373737-.066266 1.0843542-.549924 2.1009036-1.349495 2.8363637-1.292929.929293-3.232323.185859-4.145454-1.1151516-.913131-1.3010101-1.082828-2.9656565-1.276768-4.5494949-.331313-2.6828283-.266667-8.8888889-2.868687-10.0363637-2.747474-1.1959595-5.810101-.8080808-8.727272-.9696969-1.519192-.0808081-3.1191924-.379798-4.6060611-.4121212-4.9696969-.1050505-6.0040404-3.8060606-6.1737373-4.3878788-.6154117-1.8611629-.9264802-3.809434-.921278-5.769697.0601305-.9582813.2144102-1.9083195.4606719-2.8363636.1858586-.8646465.1939394-.9616162 1.1313131-.8080808 1.4464647.2424242 2.8686869.589899 4.2747475.9616161 2.7959596.7111111 5.5676769 1.6161616 8.4202019 2.1737374z" fill="#212b36" fill-rule="nonzero"/><path d="m112.325253 105.026263s-.808081 1.050505-.460607 1.931313c.347475.880808 5.373738 6.569697 10.448485 4.743434 5.074748-1.826263-4.557575-5.179798-4.557575-5.179798z" fill="#b78103" fill-rule="nonzero"/><path d="m113.408081 102.319192c.448799-.07445.884742.189862 1.026262.622222.53549 1.184952 1.644433 2.009785 2.933334 2.181818 1.446464.080808 2.424242-1.309091 3.135353-1.115151.711111.193939 3.329293 4.331313 3.127273 5.656565-.20202 1.325253-2.311111 1.777778-4.371717 1.29293-2.060606-.484849-6.214142-3.272728-6.763637-4.59798-.371664-1.415143-.030973-2.922625.913132-4.040404z" fill="#7a4f01" fill-rule="nonzero"/><path d="m122.943434 67.3131313-12.533333 4.5737374 8.888889 5.5030303 12.670707-7.1515152z" fill="#00ab55" fill-rule="nonzero"/><path d="m122.943434 67.3131313-12.533333 4.5737374 8.888889 5.5030303 12.670707-7.1515152z" fill="url(#n)" fill-rule="nonzero"/><path d="m109.844444 73.1555556 9.737374 6.7474747 16.274748-6.7474747 6.246464-12.5818182-18.820202 5.6565656-3.983838 11.159596-8.888889-5.5030303z" fill="#00ab55" fill-rule="nonzero"/><path d="m111.913131 59.3777778c-.969697.5818182-1.987878.8080808-2.812121.2181818l-.20202-.169697c-1.309091-1.2848485-1.519192-4.040404-1.462626-6.0525252.022071-.8463965.092218-1.6908552.210101-2.529293l4.945454-6.0121212 2.553536 11.4989899c-.907374 1.1820068-1.998715 2.2105957-3.232324 3.0464647z" fill="#007b55" fill-rule="nonzero"/><path d="m111.953535 56.5010101c-.088889.549495-.096969 1.1313131-.177777 1.6969697-.444445 3.0868687-1.616162 6.1575758-1.171718 9.3171717.211683.6871227.194669 1.4243837-.048484 2.1010101-.344125.5193493-.867823.8934191-1.470708 1.0505051-2.941414 1.0909091-6.149494 1.0828282-9.284848 1.0585858-2.3515152 0-5.7292929.1858586-7.6767677-1.3737373-.7224008-.7230821-1.1316225-1.701151-1.1393939-2.7232324-.3474521-3.3067229-.3474521-6.6407518 0-9.9474747l.0969697-1.2929293c.2693603-2.9791246.6464646-5.9420876 1.1313131-8.8888889.3636364-2.1333333.8727273-4.4282828 2.5131313-5.8424242 2.1818182-1.8828283 5.9959595-2.7717172 8.8080805-2.8767677.91433-.056301 1.831963.0226645 2.723233.2343434 1.247133.3938493 2.419065.99484 3.466666 1.7777778 1.260606.8727273 2.383839 1.6161616 2.852526 3.0626263.506743 1.6589861.778743 3.3807456.80808 5.1151515.020925 1.6368105-.185767 3.2685854-.614141 4.8484848-.20202.7676768-.517172 1.5191919-.711111 2.2868687-.056566.1131313-.080808.2505051-.105051.3959596z" fill="#007b55" fill-rule="nonzero"/><path d="m96.7858586 72.1454545c-.9373738.129293-2.8767677-.9939393-3.5474748-1.220202-.3959596-.1292929-.7434343-.3878788-1.1313131-.5494949-1.9717172-.8080808-1.3656566-6.5858586-1.3414141-8.1616162.080808-4.1616161-.1131313-8.5090909.4444444-12.6141414.1437807-1.5925082.562074-3.1481217 1.2363636-4.5979798.6896925-1.4645503 1.9959798-2.5457178 3.5636364-2.9494949.2999892-.093264.621223-.093264.9212121 0 1.1959596.5010101 1.1555556 2.5939393 1.2202021 3.620202.020918 1.0333587.2375367 2.0533857.6383838 3.0060606.4686869 1.010101 1.220202 1.3818182 1.947475 2.1333333 1.705085 1.6052563 3.061213 3.5445468 3.983838 5.6969697.420202 1.1313131.638384 2.3272727 1.010101 3.4828283.960005 2.533101 2.324525 4.8937194 4.040404 6.989899.581818.8080808 1.204041 1.7777778.864647 2.6989899-.302351.6396445-.864212 1.1191387-1.543435 1.3171717-.831665.3373292-1.734229.4622995-2.626262.3636364-2.109091-.2747475-3.70101-1.979798-5.583839-2.9575758-.654545-.3393939-1.9070704-.9131313-2.6505048-.589899-.7434343.3232323-1.0020202 1.3171717-1.1151515 1.9878788-.0646464.4282828.2909091 1.8181818.0888889 2.0929293-.0972097.1403827-.2504802.2317555-.420202.250505z" fill="#020202" fill-rule="nonzero" opacity=".1"/><path d="m108.406061 36.8808081c-.38082.3073206-.860585.4653268-1.349495.4444444-.411067-.0135171-.81979-.0676526-1.220202-.1616161h-.218182c-.053824-.0249094-.115874-.0249094-.169697 0-.057757.0388592-.096022.1006721-.105051.1696969-.203673.7950575-.338848 1.6061048-.40404 2.4242425v.4444444c.008446.1551672-.028028.3094788-.105051.4444444-.141915.1494994-.335598.2391137-.541414.2505051-.371967.0604881-.751264.0604881-1.123232 0-.787867-.1932674-1.515378-.5792374-2.117172-1.1232323.25833-1.3748617.388182-2.7707765.387879-4.169697 0-1.810101-.193939-3.6444444.258586-5.3979798.130623-.8402611.617543-1.5832617 1.335844-2.0383924.718302-.4551308 1.598085-.5781015 2.413651-.3373652 1.279909.1629178 2.486032.6902457 3.474747 1.5191919.290274.310649.429178.7332722.379798 1.1555556 0 .7191919.040404 1.4383838 0 2.1575758-.040404.7191919-.10505 1.6161616-.210101 2.4242424-.011289.6600659-.254441 1.29512-.686868 1.7939394z" fill="#ba8b72"/><g fill-rule="nonzero"><path d="m108.034343 29.640404c-.921212 0-1.898989-.2828282-2.80404-.0565656-1.281105.4356821-2.043724 1.7504222-1.785859 3.0787879-.371717.0727272-.339393-.5656566-.565656-.8565657s-.888889 0-.99394.3878788c-.040761.4384252.028683.8800865.202021 1.2848485.207743.8077597.136555 1.6620092-.202021 2.4242424-.080808.1777778-.250505.379798-.428282.3070707-.177778-.0727273-.274748-.420202-.363637-.5818182-.14992-.2286555-.314578-.4473004-.492929-.6545454-.363636-.4282829-.8080808-.8080808-1.1555556-1.2444445-.7505325-.6982399-1.1404871-1.7014054-1.0585858-2.7232323.0811608-.4035306.2744063-.7760183.5575757-1.0747475.2346962-.2640976.5242829-.4737032.8484849-.6141414.1292929-.0646464.2828278-.1292929.3313128-.2585858.016108-.0800055.016108-.1624189 0-.2424243-.035419-1.0812272.565105-2.0831554 1.535354-2.5616161.955699-.4537302 2.00508-.6752355 3.062626-.6464647h2.060606c.561784.0531349 1.128547.0038512 1.672727-.1454545-.081415-.3856045-.208931-.7600125-.379798-1.1151516.452718.2104155.874208.4823446 1.252526.8080809.013164-.2372315-.014162-.4749725-.080808-.7030303.728525.3000561 1.36037.7949081 1.826262 1.430303.455733.8848136.324353 1.958279-.331313 2.7070707-.63627.6565175-1.510005 1.0293112-2.424242 1.0343434z" fill="#b72136"/><path d="m105.836364 37.1636364h-.218182c-.053824-.0249094-.115874-.0249094-.169697 0-.057757.0388592-.096022.1006721-.105051.1696969-.203673.7950575-.338848 1.6061048-.40404 2.4242425-1.403751-.6876772-2.127392-2.2702181-1.729293-3.7818182.82522.4964199 1.699991.9053686 2.610101 1.220202z" fill="#020202" opacity=".1"/><path d="m126.862626 63.6363636c-.541414-.2262626-1.00202-.7353535-1.616161-.7111111-.614142.0242424-1.107071.7434344-1.616162 1.2121212-.554371.4948016-1.277476.7580116-2.020202.7353536-.234684-.0106375-.467607-.0458468-.694949-.1050505-.958429-.2815976-1.794868-.876209-2.375758-1.6888889 0 0 1.50303-1.6888889 1.69697-1.8020202.662626-.379798 1.559596-.3474748 2.270707-.7272728.720128-.45527 1.46468-.8707084 2.230303-1.2444444 1.564718-.6447588 3.342414-.5098578 4.791919.3636364.177778.1050505.371717.2989899.274747.4929293-.041786.0734279-.107339.1304308-.185858.1616161-.831028.3295699-1.735944.4273232-2.618182.2828283.519444.252969 1.003108.5736002 1.438384.9535354.193939.1696969.371717.4929293.161616.6464646-.113554.048511-.242001.048511-.355556 0l-1.955555-.4767677c.505844.3901888.926579.8796716 1.236364 1.4383839.057487.0917786.085673.1988834.080808.3070707-.09697.250505-.484849.2747474-.743435.1616161z" fill="#ffbbab"/><path d="m126.862626 63.6363636c-.541414-.2262626-1.00202-.7353535-1.616161-.7111111-.614142.0242424-1.107071.7434344-1.616162 1.2121212-.554371.4948016-1.277476.7580116-2.020202.7353536-.188238-.0862484-.36698-.1918688-.533333-.3151515-.125147-.07924-.219286-.1990531-.266667-.339394-.025816-.2641071.1408-.5089305.39596-.5818182.26538-.063533.535739-.104087.80808-.1212121.42896-.0775233.812818-.3141877 1.074748-.6626262.218182-.2909091.355555-.6626263.670707-.8080809.208097-.0948184.433948-.1443953.662626-.1454545l.888889-.0565657c.136292.0021739.271418-.0254029.39596-.080808.125402-.0604273.199658-.1927972.185858-.3313132 0-.1535353-.185858-.2343434-.331313-.2909091-.290909-.1050505-1.268687-.1616161-.638384-.5090909.456628-.1942421.94309-.3090254 1.438384-.3393939.991585-.0967454 1.990233-.0967454 2.981818 0 .10621.0116978.211503.0305965.315152.0565656-.831028.32957-1.735944.4273233-2.618182.2828283.519444.252969 1.003108.5736002 1.438384.9535354.193939.169697.371717.4929293.161616.6464646-.113554.048511-.242001.048511-.355556 0l-1.955555-.4767676c.505844.3901887.926579.8796716 1.236364 1.4383838.057487.0917787.085673.1988835.080808.3070707-.137374.2262626-.525253.250505-.783839.1373737z" fill="#e0a194"/><path d="m118.636364 63.6525253c-1.997153-.0252955-3.974465-.3999729-5.842425-1.1070708-1.327981-.5178486-2.501752-1.3661901-3.410101-2.4646464-.119601-.1427172-.210185-.3074149-.266666-.4848485-.101023-.3015278-.101023-.6277651 0-.9292929.251232-.8868803.77058-1.6743689 1.486868-2.2545455 1.931314-1.4383838 4.557576-.0808081 4.557576-.0808081s4.921212 3.8303031 5.058586 4.589899c.080808.4121212-.39596 1.1878788-.856566 1.8020202s-.727272.929293-.727272.929293z" fill="#007b55"/><rect fill="#007b55" height="20.977778" rx="4.452525" transform="matrix(.98119173 -.19303574 .19303574 .98119173 -8.266395 19.796205)" width="8.913131" x="92.997842" y="41.829629"/><path d="m118.636364 63.6525253c-1.997153-.0252955-3.974465-.3999729-5.842425-1.1070708-.234343-.0888888-1.438383-.8080808-1.616161-.7353535-.073402.0561374-.124858.1361795-.145455.2262626l-.654545 1.8666667c-.397144-.2606393-.643943-.6970521-.662626-1.1717172-.048485-.4686868 0-.9373737-.048485-1.3979798-.151983-.7144187-.393627-1.4067708-.719192-2.060606-.880808-2.2464647-.719192-4.7515152-.549495-7.159596l1.793939 4.6949495c.146876.4485304.353443.8752555.614142 1.2686869.239779.2974.51068.568301.80808.8080808 1.277741 1.140067 2.746759 2.0455516 4.339394 2.6747475.274748.1131313 3.29697 1.3979798 3.458586 1.1636363-.420202.5333334-.775757.929293-.775757.929293z" fill="#020202" opacity=".1"/><path d="m119.533333 73.5191919c-.484848-.4282828-.80808-1.1232323-1.430303-1.2848485-.622222-.1616161-1.260606.4363637-1.866666.8080808-.694553.3476959-1.506423.3742662-2.222223.0727273-.235158-.0886032-.460036-.2023971-.670707-.3393939-.911227-.6440525-1.606875-1.548113-1.995959-2.5939394 0 0 1.850505-1.3252525 2.068687-1.3818182.743434-.1858586 1.616161.1373737 2.424242 0 .814475-.2521179 1.642779-.4571705 2.480808-.6141414 1.786871-.1354429 3.530179.594943 4.686869 1.9636363.153535.1777778.29899.4525253.169697.6222223-.054995.0649669-.133396.1056192-.218182.1131313-.922961.0725949-1.847592-.1179353-2.666667-.549495.4687.4443559.878749.9467339 1.220202 1.4949495.161616.2424243.266667.6464647 0 .7434344-.113131 0-.242424 0-.355555-.1050505l-1.842424-1.1555556c.42379.5901993.736003 1.2529665.921212 1.9555556.035917.1130405.035917.2344342 0 .3474747-.080808.210101-.476768.1454546-.703031-.0969697z" fill="#ffbbab"/><path d="m119.533333 73.5191919c-.484848-.4282828-.80808-1.1232323-1.430303-1.2848485-.622222-.1616161-1.260606.4363637-1.866666.8080808-.694553.3476959-1.506423.3742662-2.222223.0727273-.170077-.1539628-.324376-.3245037-.460606-.5090909-.113073-.1259604-.183737-.284248-.20202-.4525252.016901-.2787688.245997-.4972905.525253-.5010101.272478.0158198.542952.056391.80808.1212121.436728.0663883.880458-.0637723 1.212122-.3555556.282828-.2424242.50101-.5979798.808081-.6949495.230144-.0374127.465945-.0179937.686868.0565657l.905051.2343434c.133235.0278944.270804.0278944.40404 0 .145755-.0264984.253378-.1509371.258586-.2989899-.023751-.1699819-.121342-.3208045-.266667-.4121212-.266666-.210101-1.228283-.5979798-.525252-.759596.499909-.0643065 1.007536-.0313793 1.494949.0969697 1.019926.232744 2.013577.5684734 2.965657 1.0020202.106329.0459608.208986.0999906.307071.1616162-.922961.0725949-1.847593-.1179353-2.666667-.5494949.468699.4443558.878748.9467338 1.220202 1.4949494.161616.2424243.266667.6464647 0 .7434344-.113131 0-.242424 0-.355556-.1050505l-1.842424-1.1555556c.423791.5901993.736003 1.2529665.921212 1.9555556.035917.1130405.035917.2344342 0 .3474747-.056565.2909091-.452525.2262627-.678788-.0161616z" fill="#e0a194"/><path d="m106.054545 60.0242424 8.355556 7.4262627-2.763636 5.0181818s-15.8949498-7.4424243-16.7030307-11.0383839c-.8080808-3.5959596 3.3939394-3.4585858 3.3939394-3.4585858s3.4747473-2.6989899 7.7171713 2.0525252z" fill="#007b55"/><rect fill="#00ab55" height="34.012121" rx="8" width="34.012121" x="150.523232" y="68.250505"/><rect fill="#00ab55" height="34.012121" opacity=".18" rx="3" width="24.937374" x="18.89495" y="52.492929"/><g><use fill="#fff" xlink:href="#o"/><use fill="#00ab55" fill-opacity=".48" xlink:href="#o"/></g><path d="m.84242424 153.244444c.18372234 1.73421.78544388 3.397956 1.75353536 4.848485 3.87878787 6.852526 8.2262626 13.6 14.230303 18.682829 8.8323233 7.466666 20.3878788 10.690909 31.5555556 13.737373-.9939394-.484848-2.1979798-5.656565-2.6424243-6.763636-.8646464-2.214141-1.6727272-4.452525-2.4969697-6.682828-1.3171717-3.515152-4.040404-6.343435-6.7555555-8.937374-6.0761729-5.870333-13.460053-10.21314-21.5434344-12.670707-4.5725245-1.398802-9.31982411-2.144223-14.10101006-2.214142z" fill="#00ab55"/><path d="m.84242424 153.244444c.18372234 1.73421.78544388 3.397956 1.75353536 4.848485 3.87878787 6.852526 8.2262626 13.6 14.230303 18.682829 8.8323233 7.466666 20.3878788 10.690909 31.5555556 13.737373-.9939394-.484848-2.1979798-5.656565-2.6424243-6.763636-.8646464-2.214141-1.6727272-4.452525-2.4969697-6.682828-1.3171717-3.515152-4.040404-6.343435-6.7555555-8.937374-6.0761729-5.870333-13.460053-10.21314-21.5434344-12.670707-4.5725245-1.398802-9.31982411-2.144223-14.10101006-2.214142z" fill="url(#p)"/><path d="m44.5353535 157.082828c-.9131313-6.375757-1.850505-12.832323-4.4121212-18.739394-2.5616161-5.90707-7.0060606-11.313131-13.0424242-13.519192-.1777778 9.125926-.352862 18.249159-.5252525 27.369697-.1050505 5.268687-.1939394 10.642425 1.3171717 15.69293 2.6585858 8.888889 11.8626262 19.240404 20.7272727 22.165656 1.3171717-4.250505-.8888889-10.690909-1.5191919-15.111111z" fill="#00ab55"/><path d="m109.214141 137.656566h28.016162v2.884848h-28.016162z" fill="#c8facd"/><path d="m109.214141 177.527273h28.016162v2.884848h-28.016162z" fill="#c8facd"/><path d="m158.781818 79.5717172 8.565657-4.4767677 8.218182 4.4525252s-1.527273 10.9979798-8.016162 14.149495c-.016162 0-8.064647-3.0787879-8.767677-14.1252525z" fill="#005249"/></g></g></g></svg>