<svg height="260" viewBox="0 0 355 260" width="355" xmlns="http://www.w3.org/2000/svg" xmlns:xlink="http://www.w3.org/1999/xlink"><defs><linearGradient id="a" x1="19.495903%" x2="77.479035%" y1="70.80977%" y2="18.23579%"><stop offset="0" stop-color="#00ab55"/><stop offset="1" stop-color="#00ab55" stop-opacity="0"/></linearGradient><linearGradient id="b"><stop offset="0" stop-color="#007b55"/><stop offset="1" stop-color="#00ab55"/></linearGradient><linearGradient id="c" x1="32.180112%" x2="65.880311%" xlink:href="#b" y1="34.451781%" y2="76.444313%"/><linearGradient id="d" x1="50%" x2="44.012593%" y1="29.897444%" y2="74.294001%"><stop offset="0"/><stop offset="1" stop-opacity="0"/></linearGradient><path id="e" d="m160.208145 142.941176h-48.090498l-9.294118-40h48.090498z"/><linearGradient id="f" x1=".000086%" x2="100.000086%" xlink:href="#b" y1="49.999932%" y2="49.999932%"/><filter id="g" height="140%" width="125.4%" x="-12.7%" y="-20%"><feOffset dx="4" dy="4" in="SourceAlpha" result="shadowOffsetOuter1"/><feGaussianBlur in="shadowOffsetOuter1" result="shadowBlurOuter1" stdDeviation="4"/><feColorMatrix in="shadowBlurOuter1" result="shadowMatrixOuter1" type="matrix" values="0 0 0 0 0   0 0 0 0 0.321568627   0 0 0 0 0.28627451  0 0 0 0.32 0"/><feMerge><feMergeNode in="shadowMatrixOuter1"/><feMergeNode in="SourceGraphic"/></feMerge></filter><filter id="h" height="300%" width="192.1%" x="-46.1%" y="-100%"><feOffset dx="6" dy="6" in="SourceAlpha" result="shadowOffsetOuter1"/><feGaussianBlur in="shadowOffsetOuter1" result="shadowBlurOuter1" stdDeviation="6"/><feColorMatrix in="shadowBlurOuter1" result="shadowMatrixOuter1" type="matrix" values="0 0 0 0 0   0 0 0 0 0.321568627   0 0 0 0 0.28627451  0 0 0 0.48 0"/><feMerge><feMergeNode in="shadowMatrixOuter1"/><feMergeNode in="SourceGraphic"/></feMerge></filter><linearGradient id="i"><stop offset="0" stop-color="#00ab55"/><stop offset="1" stop-color="#007b55"/></linearGradient><linearGradient id="j" x1="49.682847%" x2="52.091592%" xlink:href="#i" y1="25.546385%" y2="100.936456%"/><filter id="k" height="255.6%" width="209.4%" x="-54.7%" y="-77.8%"><feOffset dx="6" dy="6" in="SourceAlpha" result="shadowOffsetOuter1"/><feGaussianBlur in="shadowOffsetOuter1" result="shadowBlurOuter1" stdDeviation="6"/><feColorMatrix in="shadowBlurOuter1" result="shadowMatrixOuter1" type="matrix" values="0 0 0 0 0   0 0 0 0 0.321568627   0 0 0 0 0.28627451  0 0 0 0.48 0"/><feMerge><feMergeNode in="shadowMatrixOuter1"/><feMergeNode in="SourceGraphic"/></feMerge></filter><linearGradient id="l" x1="-10.580171%" x2="138.135291%" y1="-50.139924%" y2="202.025463%"><stop offset=".01"/><stop offset=".08" stop-opacity=".69"/><stop offset=".21" stop-opacity=".32"/><stop offset="1" stop-opacity="0"/></linearGradient><linearGradient id="m" x1="49.863959%" x2="50.897178%" xlink:href="#i" y1="25.546385%" y2="100.936456%"/><linearGradient id="n" x1="49.758795%" x2="51.590718%" xlink:href="#i" y1="25.546385%" y2="100.936456%"/><linearGradient id="o" x1="49.753759%" x2="51.623931%" xlink:href="#i" y1="25.546385%" y2="100.936456%"/></defs><g fill="none" fill-rule="evenodd"><path d="m0 143.563853c0 29.941281 11.0533541 57.225145 29.2424179 77.845271 20.8668982 23.663283 51.1260382 38.540855 84.8550921 38.590876 14.740915.021266 28.835884-2.807239 41.782767-7.970785 6.694197-2.670882 14.186692-2.364349 20.670238.799997 7.605205 3.706917 16.121418 5.785326 25.114123 5.785326 3.714766 0 7.352579-.357227 10.871463-1.035244 10.044405-1.928706 19.184799-6.49265 26.691285-12.956786 4.717497-4.064144 10.759531-6.106909 16.934485-6.099781h.104937c20.404398 0 39.357558-6.306512 55.09343-17.113603 14.067764-9.649075 25.555635-22.891801 33.209811-38.440261 6.67321-13.54926 10.429951-28.855344 10.429951-45.054892 0-55.5609927-44.207975-100.6087554-98.733192-100.6087554-5.558547 0-11.004384.4784142-16.3173 1.3710843-14.067764-23.2062552-39.259618-38.6762999-67.997561-38.6762999-12.133038 0-23.635678 2.75721805-33.931932 7.69977496-9.791779 4.68513204-18.497656 11.34253444-25.619374 19.45577334-24.182127.3928699-46.5422385 8.4427426-64.843235 21.8771509-28.8079014 21.1349753-47.557406 55.6045578-47.557406 94.5311538z" fill="url(#a)" opacity=".24"/><g transform="translate(54 30)"><g fill-rule="nonzero"><path d="m163.230769 142.524887h-51.113122l-9.294118-39.583711h51.113123z" fill="#005249"/><use fill="url(#c)" xlink:href="#e"/><use fill="url(#d)" xlink:href="#e"/><rect fill="url(#f)" height="48.561086" rx="24.280543" width="182.280543" x="48.660634" y="141.085973"/><g fill="#fff" filter="url(#g)" transform="translate(36.190045 .39819)"><rect height="115.004525" rx="15.900453" width="180.588235"/></g><path d="m216.778281 92.5882353v6.9049774c-.009975 8.7774423-7.12301 15.8904783-15.900453 15.9004523h-148.79638c-8.7815775 0-15.9004525-7.118875-15.9004525-15.9004523v-6.9049774z" fill="#00ab55" opacity=".16"/><path d="m95.3393665 116.41629h28.8778285c.499231 0 .978014.198318 1.331024.551328s.551329.831793.551329 1.331025c0 .499231-.198319.978014-.551329 1.331024s-.831793.551328-1.331024.551328h-28.8778285c-.499231 0-.9780149-.198318-1.3310245-.551328-.3530097-.35301-.5513284-.831793-.5513284-1.331024 0-1.039595.8427581-1.882353 1.8823529-1.882353z" fill="#005249"/><path d="m100.00905 106.343891-.8597287 5.674209 2.3800907.271493 2.597285-6z" fill="#fcbdba"/><path d="m102.244344 111.457014c-.115535-.09278-.216241-.202641-.298643-.325792-.246115.153806-.547854.19028-.823529.099547l-1.1945702-.199095c-.2098693-.025207-.4144753-.08323-.6063348-.171945h-.081448l-.2533937.488687c-.43336.873086-.6886929 1.823662-.7511312 2.79638 2.2604939.535693 4.5839169.757986 6.9049769.660634.378179.051996.755069-.103601.986426-.40724.090235-.204674.090235-.43786 0-.642534-.22122-.463286-.618891-.818582-1.104073-.986425-.615384-.253394-1.239819-.470588-1.809954-.760181-.346304-.139273-.672064-.324986-.968326-.552036z" fill="#7a4f01"/><path d="m115.972851 108.072398-.742082 5.692308 2.389141.217194 2.470588-6.045248z" fill="#fcbdba"/><path d="m197.122172 28.7692308v17.5656108c0 4.8081261-3.897756 8.7058824-8.705882 8.7058824h-50.977376l-20.660633 23.7647059v-58.7420815h71.638009c2.308943 0 4.523318.9172243 6.155988 2.5498939 1.63267 1.6326697 2.549894 3.8470449 2.549894 6.1559885z" fill="#005249" opacity=".1"/><g fill="#00ab55" filter="url(#h)" transform="translate(119.963801 12.588235)"><rect height="34.977376" rx="8.705882" width="75.058824"/></g><path d="m130.081448 43.2307692c-.292555.0260832-.587134-.0173284-.859729-.1266968-.440791-.30701-.743105-.7751095-.841629-1.3031674-1.420814-4.3891403-4.36199-8.6606335-8.77828-9.9547512-1.149321 4.6787331-1.067873 9.5656109-.977376 14.3891403 0 1.2850679.144797 2.760181 1.176471 3.520362.672592.4149666 1.45494.616863 2.244344.5791855 5.007965.1902144 9.984408-.8703899 14.479638-3.0859728 1.348416-.6696833 4.126697-3.2850679 1.538461-4.1357466-.77828-.2624435-2.497737.1357466-3.330316.1357466z" fill="#020202" opacity=".1"/><path d="m99.800905 66.8506787 3.547511 19.719457-3.547511 21.2126693 5.746606.443439 8.371041-23.8914024-2.832579-18.9321267z" fill="#212b36"/><path d="m119.638009 65.4027149 6.380091 26.2533937-5.158371 18.0723984-5.113123-.262444.714932-15.4208141-9.004524-24.9321267z" fill="#212b36"/><path d="m137.20362 43.6289593c.767485-.448258 1.588443-.7979254 2.443439-1.040724.272345-.1217201.587182-.1014081.841629.0542986.132811.124347.219041.2904199.244344.4705883.132487.5795143.085133 1.1856489-.135747 1.7375565.963911.5341679 1.975905.9765364 3.022625 1.321267.441495.0753501.831689.3311072 1.076923.7058824.132688.3963224.010851.8335032-.307693 1.1040724-.316439.2623857-.697915.4343627-1.104072.4977375-2.624435.6153846-6.895928 0-7.520362-3.1402715-.135747-.6877828.117647-.8054298.660633-1.1945701.289593-.1900453.552037-.3529412.778281-.5158371z" fill="#fcbdba"/><path d="m117.484163 19.4027149c.596463 1.1974637.979285 2.4898685 1.131222 3.8190046.142493 1.3501748-.439113 2.675136-1.529412 3.4841629-.326657.1508943-.631139.3457624-.904978.5791855-.959276.9864253.135747 2.7692307-.416289 4.0452488-.441101.8704959-1.472064 1.2624971-2.380091.9049774-.887678-.3882604-1.552727-1.1563921-1.809954-2.0904977-.244076-.9267285-.353793-1.883707-.325792-2.841629l-.099548-5.7013574c-.126977-1.2689156.072391-2.549231.579186-3.7194571.703654-1.2150034 2.027575-1.934602 3.429864-1.8642534 1.438914.1809955 1.846154 2.2624435 2.325792 3.3846154z" fill="#fcbdba"/><path d="m137.375566 47.8733032s-10.932127 9.7647058-11.719457 9.7647058c-.787331 0-5.647059-6.1357466-5.647059-6.1357466l-.371041 13.9366516c-1.349672.7962617-2.756197 1.4919623-4.208145 2.081448-2.499519 1.1411246-5.22604 1.698189-7.97285 1.6289593-5.312218-.479638-7.656109-2.2624435-7.656109-2.2624435l3.276018-32.7330316s6.190045-4.4524887 8.307692-3.7737557c1.514329.2714302 3.064857.2714302 4.579186 0 3.058823-.4072398 6.180995 3.7737557 6.180995 3.7737557l4.063349 13.3484162 9.529412-3.3846153c1.270133.7926842 1.921213 2.285492 1.638009 3.7556561z" fill="url(#j)"/><path d="m118.687783 13.2579186c.070313-.7188749-.098262-1.4408844-.479638-2.0542987-.733032-1.0226244-2.235294-1.1131222-3.466064-.8416289-.846238.2320671-1.665341.5536409-2.443438.959276-.572252.2357718-1.196442.3169165-1.809955.2352941-1.624638-.0288421-3.199712.5597891-4.40724 1.6470588-1.665158 1.5746606-2.054299 3.9004525-2.226244 6.081448-.180996 2.4705882.904977 4.5248869 2.542986 6.4072398 1.384615 1.638009 3.909502 3.2488688 5.710407 1.1764706.803101-1.0534228 1.169353-2.3758193 1.022625-3.6923077-.88445-.090426-1.612683-.7349124-1.809955-1.60181-.1266-.5417415.062363-1.1086299.488688-1.4660633.259185-.1561354.5698-.2028534.863445-.1298663.293646.0729872.546242.259694.702166.5190066.051942.081201.091587.1696394.117647.2624434.260962-.5250165.452612-1.0817115.570135-1.6561086.208145-.5520362.904978-1.0316742 1.357466-.6606335.262444.2081448.41629.6696833.751132.5972851.111174-.0417172.208384-.1138413.280543-.2081448.658872-.633706 1.214604-1.3665391 1.647059-2.1719457.405021-.950286.617272-1.9715511.624434-3.0045249-.034351-.1297537-.046589-.2643689-.036199-.39819z" fill="#7a0c2e"/><path d="m97.2036199 12.0452489c-2.3566662-.2796722-4.6395611.9321013-5.7285068 3.040724-1.2579185 2.5791855-.3529412 5.6289592-.1447964 8.4977375.3893023 2.0509161-.6925845 4.0982366-2.6063348 4.9321267-2.0271493 1.2217195-4.3619909 2.0452489-5.9819005 3.7737557-1.2755535 1.4208156-2.0288687 3.2338793-2.1357466 5.1402715-.1011826.7946746.0374828 1.6014547.3981901 2.316742.3539131.5290553.8167211.9764364 1.3574661 1.3122172 3.0295522 2.1900242 6.8135076 3.0675104 10.4977375 2.4343892 3.7131261-.7042108 6.6854607-3.4896726 7.6289595-7.1493213.79638-3.8190045-1.1402717-7.6108597-1.8733034-11.4479638-.2709282-.9081954-.1632219-1.8873439.2986425-2.7149321.6063349-.8144797 1.7285069-1.0045249 2.6063349-1.520362 4.751131-2.7963801-.832579-8.1447964-4.3167421-8.6153846z" fill="#7a0c2e"/><rect fill="#00ab55" height="3.683258" rx="1.800905" width="3.683258" x="102.090498" y="15.737557"/><path d="m118.307692 113.140271c-.113433-.094999-.213846-.204541-.298642-.325791-.242326.161786-.54378.208164-.82353.126696l-1.19457-.180995c-.212114-.023252-.419546-.07816-.615384-.162896h-.081448l-.244344.497738c-.408435.885091-.641978 1.840771-.687783 2.814479 2.271058.481798 4.596263.658318 6.914027.524887.380966.046496.756602-.120454.977376-.434389.090235-.204674.090235-.43786 0-.642534-.226979-.459885-.632576-.806605-1.122172-.959276-.624435-.244344-1.257919-.443439-1.864254-.733032-.342472-.129804-.665302-.306447-.959276-.524887z" fill="#7a4f01"/><path d="m118.81448 120.180995h-3.665159l-2.923077 7.909503h-15.1040721l2.9230771-7.909503h-3.6651585l-25.7104072 69.466064h3.6651583l2.5429865-6.868778h15.076923l-2.5429864 6.868778h3.6651584l2.5429864-6.868778h.1085973v-.289593l22.8687782-61.773756v68.932127h3.665158v-69.466064zm-7.583711 10.606335-3.809955 10.298643h-15.1131217l3.8099548-10.298643zm-23.7375563 23.339367 3.8099547-10.289593h15.1312216l-3.828054 10.289593zm14.1176473 2.714932-3.809955 10.289593h-15.1131222l3.8371041-10.343892zm-23.7375568 23.294118 3.8099547-10.298643h15.1131222l-3.8099548 10.298643z" fill="#005249"/><g fill="#007b55" filter="url(#k)" transform="translate(152.823529 73.547511)"><rect height="44.751131" rx="4.045249" width="63.19457"/></g><path d="m204.031072 89.559233c-.003384-.0002893-.006766-.0005882-.010145-.0008968l.160068.0072747c-.080566 0-.159851-.0054834-.237504-.0160972-.025564-.0034959-.050847-.0075287-.075942-.0121006-.025124-.0045746-.050224-.0097272-.075121-.0154146-.03068-.0070045-.061248-.014878-.091479-.02355-.0183-.0052551-.035992-.0106468-.053562-.0163107-.031882-.0102636-.063983-.0216647-.095635-.0339666-.018715-.0072782-.036959-.0147368-.055045-.0224936-.035072-.0150412-.069554-.0312065-.103397-.0484482-.009858-.0050165-.020363-.0104993-.030805-.0160856-.090019-.0482237-.174545-.1035538-.25356-.1655842-.022602-.0177473-.044607-.0359167-.066148-.0546074-.017896-.0155204-.035766-.0316787-.053293-.0481973-.0171-.0161236-.033607-.0323172-.049786-.0488324-.020345-.0207623-.040331-.0422103-.05977-.0641537-.006418-.0072452-.012726-.0144857-.018975-.0217787l-11.213666 6.4725117.009805.034179c.006284.0227915.012115.0457707.017484.0689273l-.027289-.1031063c.017815.0597715.0325.1208921.043864.1831716.005813.031892.010709.0637197.014729.0958196.002336.0186538.004382.0374454.006125.0563245.004911.0531139.007432.1071547.007432.1617843 0 .959626-.777931 1.7375566-1.737557 1.7375566-.909119 0-1.655165-.6981981-1.731178-1.5876336l-.001034-.0189682-12.413323-1.9109664-.009952.0239465c-.011084.0261128-.022788.0518985-.035093.0773386l.045045-.1012851c-.020979.0515671-.044363.1018993-.070013.1508574-.016563.0315981-.033895.0623365-.052118.0924766-.00481.0079596-.009904.0162327-.015066.0244595-.01668.0265708-.033807.0523005-.051588.0775355-.013677.0194044-.027617.0383542-.041926.0570055-.010975.0143115-.022422.0287588-.034092.0430173-.017866.0218215-.036033.0429572-.05469.0636421-.014929.0165493-.03009.0327255-.045552.048607-.018841.0193606-.038393.0385296-.058387.0572317-.006967.0065134-.013614.0126312-.020309.0186975-.029056.0263543-.059609.0522126-.091039.0770086-.009961.0078558-.019814.0154579-.029751.0229557-.024642.0186019-.050094.0367646-.076044.0542454-.021858.0147163-.043691.028718-.06585.0422375-.019243.0117424-.038843.0231831-.058683.0342463-.026557.0148133-.053728.0290409-.081309.042559-.014498.0071006-.028687.013813-.04298.0203373-.06809.0311069-.139085.0581143-.212125.0804388-.063088.0192805-.127646.0350573-.193503.0471212-.101937.0186961-.207372.0284991-.315096.0284991l-.149923-.0063778c-.00203-.0001736-.00406-.0003506-.006089-.0005311l.156012.0069089c-.06605 0-.131239-.0036854-.195374-.0108618-.038452-.0043042-.076458-.0098512-.114044-.016607-.01549-.0027805-.031281-.005844-.046994-.0091198-.036069-.0075223-.0716-.0161275-.106685-.0258054-.010815-.0029832-.02156-.0060604-.032263-.0092379-.035002-.0103956-.0694-.0218116-.103302-.0342541-.018007-.006601-.036471-.0137338-.05478-.0211698-.03106-.0126228-.061327-.0259538-.091127-.040108-.011055-.0052503-.022123-.0106525-.033125-.0161681-.032588-.0163386-.064567-.0336582-.095922-.0519314-.014095-.0082134-.028114-.0166508-.042002-.0252787-.024036-.0149317-.047682-.0304345-.070917-.0464888-.02272-.0156969-.045107-.0319656-.067081-.0487466-.013731-.0104839-.027461-.0212971-.041022-.0323107-.024806-.0201535-.048826-.0407775-.072262-.0620326-.014585-.013216-.029447-.0271659-.044061-.0413706-.017891-.0173883-.035446-.0351989-.052613-.05338-.01671-.0177011-.032906-.035585-.048729-.0538015-.016537-.0190437-.03254-.0382909-.048128-.0578824-.012453-.0156434-.02489-.0318424-.037046-.0482633-.013611-.0183971-.026653-.0367552-.039341-.0553728l-9.513738 5.8419791.00033 11.00871h43.076923v.79638h-43.864253v-32.3800904h.78733l-.00033 19.64 9.226116-5.6697869c-.002639-.0214264-.004887-.0429735-.006738-.064634l-.006378-.149923c0-.959626.77793-1.7375566 1.737556-1.7375566s1.737557.7779306 1.737557 1.7375566l-.006113-.1336561 12.414092 1.9136677.009952-.0239466c.013861-.0326559.028692-.0648004.044457-.0963971l-.054409.1203437c.021707-.0533576.04599-.1053931.072693-.1559523.012974-.0245603.02644-.048637.040454-.0723517.012081-.0204478.024638-.0407333.037595-.0607355.012219-.01887.024954-.0377138.038043-.0562895.013142-.0186652.027029-.0375649.041284-.0561681.014283-.0186259.028518-.0364527.043091-.0539881.015785-.0190039.032249-.0379759.04911-.056581.013843-.0152759.028014-.0303661.042448-.0451993.018807-.0193254.037981-.0381407.057581-.0565069.015714-.0147355.032185-.029602.048938-.044153.018593-.0161393.037077-.031527.05588-.0465327.018825-.0150325.038363-.0299691.05822-.0444944.020317-.0148525.040507-.0289656.061004-.0426545.018598-.0124259.037722-.0246696.057097-.0365441.020775-.012728.041578-.0248865.06265-.0366193.014265-.0079438.028794-.0157661.043445-.0233858.111244-.0578444.229412-.103975.352992-.1368274.149085-.0388011.296076-.0581955.447595-.0581955.105638 0 .209073.009427.309511.0274855.026947.0048378.0541.010394.081015.0165753.021567.0049597.042511.0101935.0633.0158035.024561.0066199.049379.0139155.07396.0217431.027779.0088503.055036.0182981.081976.0283956.015845.005939.03159.0121064.04722.018495.031214.0127531.06217.0264824.092635.0410735.015832.0075867.031186.0152279.046409.0230875.028432.0146703.056787.0303264.084645.0467373.016218.0095603.031855.0191154.047327.0289083.029554.0186909.059006.0386104.087797.0593901.010006.0072256.019576.0142871.029071.0214438.066287.0499445.129116.1047588.187738.1637583.01157.0116454.022942.0234177.034148.0353484l11.246617-6.4873185-.010056-.0424874c-.027347-.1224367-.041774-.2497487-.041774-.3804302l.005914.1443918c-.003917-.0476124-.005914-.0957689-.005914-.1443918 0-.959626.77793-1.7375566 1.737556-1.7375566l.149924.0063779c.889435.0760129 1.587633.8220593 1.587633 1.7311787 0 .959626-.777931 1.7375566-1.737557 1.7375566z" fill="#005249"/><path d="m210.316742 129.520362s-12.570136 23.755656-14.923077 31.221719c-2.352941 7.466064-2.135746 29.466064-2.135746 29.466064h6.841629s0-22.199095 2.904977-25.936652c2.904977-3.737556 19.095023-22.814479 19.095023-22.814479z" fill="#212b36"/><path d="m208.923077 132.40724s7.619909 30.769231 11.565611 37.656108c3.945701 6.886878 14.733031 19.294118 14.733031 19.294118l5.809955-3.113122s-14.941176-19.60181-14.108597-25.339367c.832579-5.737556 2.950226-27.692307 2.950226-27.692307s-10.524887-5.710408-20.950226-.80543z" fill="#212b36"/><path d="m234.760181 88.1900452s6.072398 3.1040724 3.809955 10.5701358c-2.262444 7.466063-9.420815 24.280543-8.642534 29.257919.77828 4.977375-.054299 5.140271-.054299 5.140271s-15.972851 5.755656-20.950226-.778281c0 0 9.502262-33.619909 11.520362-37.819004 2.018099-4.199095 7.782805-8.8506788 14.316742-6.3710408z" fill="#ffc107"/><path d="m231.61086 104.78733c-.590078 1.837311-1.417589 3.589687-2.461539 5.21267-.526542.970929-1.15775 1.881325-1.882353 2.714932-2.054298 2.208145-5.131221 3.049774-7.882353 4.262444-.492353.193172-.948311.468584-1.348416.814479-.409405.464735-.734087.997703-.959276 1.574661-1.493213 3.266968-3.502262 6.579185-6.77828 8.054298 1.348416-5.149321 2.714932-10.298642 4.253393-15.384615.362377-1.908616 1.543213-3.562449 3.230769-4.524887 3.438914-2.524887 6.850679-5.095022 10.325792-7.5746604 1.185521-.8506787 2.42534-1.8099548 3.429865-.2714932.877828 1.3484166.479638 3.7104076.072398 5.1221716z" fill="url(#l)"/><path d="m223.466063 75.0678733c-.343891.3529412-.78733.7149321-.78733 1.2036199.058144.3676471.210965.7138339.443439 1.0045249 1.049774 1.8099548.090498 4.3438914 1.357466 5.9819005.472161.5604255 1.103294.9643511 1.809955 1.158371.718417.097122 1.413937.3207916 2.054298.6606335.485391.4780469.761927 1.1287212.769231 1.8099547.072398.8144797-.072398 1.6289593 0 2.4434389-.037002.5549376.216502 1.0893502.669683 1.4117647.224932.0988837.469411.1453038.714933.1357467 1.410758.0638049 2.824017-.0456088 4.208144-.3257919.199062-.0259451.388663-.1005423.552037-.2171946.160458-.1872591.264072-.416466.298642-.6606335.597285-2.7149321 1.21267-5.4298642 1.809955-8.1447963.350788-.9761614.790019-1.918236 1.312217-2.8144797.476282-1.3546152.637229-2.8000403.470588-4.2262443-.154297-1.067821-.517144-2.0948602-1.067873-3.0226245-.451544-.8754172-1.110163-1.6272364-1.918552-2.1900452-.596151-.3512504-1.239032-.6163245-1.909502-.7873303-2.316742-.7149321-5.936652-1.6742082-7.945702.3167421-1.647059 1.6651583-1.104072 4.5339366-2.841629 6.2624434z" fill="#fcbdba"/><path d="m223.221719 78.1085973c.497738-.3076923 2.108598.3348416 2.714933.3257918 1.909502-.0542986 3.466063.9049774 4.995475-.2714932 1.248868-.9049773 1.746606-2.5248869 2.180995-4.0090497.009041-.0811971.009041-.1631468 0-.2443439-.017661-.103946-.057812-.2027801-.117647-.2895928-.705882-1.0316742-2.144796-1.1402715-3.357466-1.438914-2.162922-.6251533-4.106941-1.8448688-5.61086-3.520362-.398651-.3429784-.667084-.8127355-.760181-1.3303168.045708-.6066445.383159-1.1533145.904978-1.4660633 1.546794-.9774585 3.417642-1.3028235 5.20362-.9049774 1.760336.4066465 3.497409.9081319 5.20362 1.5022625 1.647058.4615384 3.348416.7420814 4.986425 1.2669683.349678.1004038.682223.2529473.986425.4524887.400106.316746.711795.7312927.904978 1.2036199.588236 1.2050476.588236 2.6139569 0 3.8190045-.118185.1743504-.206853.3669726-.262444.5701358-.009313.2053553.018272.4107168.081448.6063348.40724 1.8099547-.488688 3.6199095-1.357466 5.1855204l-2.262443 4.2171945c-.229496.508938-.56957.9603091-.995476 1.321267-.442926.3602347-1.07124.3824105-1.538461.0542986-.470588-.4072398-.497738-1.2217194-1.049774-1.4932126-.37861-.1241003-.792721-.074407-1.131222.1357466-.995475.479638-1.809954 1.239819-2.78733 1.8099547-1.689755.9414756-3.680619 1.185056-5.547511.6787331-.548599-.135613-1.061179-.388815-1.502263-.7420815-.968325-.8325792-.904977-1.9457013-.705882-3.0769231.199095-1.1312217-.199095-3.7285068.823529-4.3619909z" fill="#005249"/><path d="m233.348416 99.9095023s-6.533936 16.8054297-32.470588 20.0180997l-.904977-3.61991s17.321267-6.850678 21.058823-13.800905c1.073982-1.953147 2.002589-3.9827748 2.778281-6.0723979 1.17647-3.2579185 4.950226-5.0135746 7.97285-3.3212669 1.791856 1.0045249 2.904978 2.9954751 1.565611 6.7963801z" fill="#ffc107"/><path d="m195.58371 115.556561c.029451.458977.222038.892298.542987 1.22172-1.662334.620236-3.420355.944888-5.19457.959276-.323223-.037567-.648259.053443-.904978.253393-.343891.371041-.072398.977376.244344 1.366516 1.347926 1.520606 3.211468 2.487843 5.230769 2.714932 1.31552.255572 2.679059.034198 3.846154-.624434.805665-.604339 1.485128-1.360665 2-2.226245.104626-.132352.18435-.282602.235294-.443438.038924-.317971-.038197-.639308-.217194-.904978-.208145-.38914-.497738-1.158371-.904978-1.348416-.407239-.190045-.968325 0-1.384615-.072398-1.19457-.271494-2.262443-1.031675-3.493213-.895928z" fill="#fcbdba"/><path d="m245.846154 189.800905c.265344.190382.4227.496952.4227.823529 0 .326578-.157356.633148-.4227.82353-2.808766 3.025928-6.172959 5.483786-9.909502 7.239819-1.031675.479638-2.452489.823529-3.158371-.072398-.705883-.895928.045248-2.253394.642533-3.285068.806633-1.384755 1.300822-2.929095 1.447964-4.524887.000934-.546473.108526-1.087509.316742-1.59276.733032-1.348417 4.334842-2.715058 5.828055-2.715058 1.9819-.017974 3.619909 1.927727 4.832579 3.303293z" fill="#7a0c2e"/><path d="m202.361991 195.076923c.144402.294454.134511.64114-.026445.926882s-.452323.473875-.778985.502982c-3.938511 1.230922-8.077229 1.691804-12.190045 1.357466-1.140272-.099547-2.542987-.506787-2.714932-1.638009-.171946-1.131221 1.158371-1.936651 2.190045-2.524887 1.378143-.804581 2.568996-1.893626 3.493213-3.19457.267903-.47652.631477-.892474 1.067873-1.221719 1.303167-.81448 5.122172-.244344 6.425339.506787 1.719457.986426 2.171946 3.484163 2.533937 5.285068z" fill="#7a0c2e"/><path d="m32.3891403 186.868778c-.0386924 1.154195.1743877 2.302975.6244344 3.366516.5676426.991034 1.4228775 1.786308 2.4524886 2.280543 2.2058946 1.149338 4.7704747 1.402229 7.1583711.705882.324047-.065075.6152685-.241088.8235294-.497737.1233904-.216727.1741338-.467273.1447964-.714932-.1811787-1.317047-.849611-2.518287-1.8733032-3.366516-1.0201806-.830684-1.8922495-1.828209-2.5791855-2.950226-1.0950226-2.226245-.280543-8.144797-4.4524887-7.167421-3.4841629.78733-2.39819 5.882353-2.2986425 8.343891z" fill="#fbb9ad"/><path d="m31.8099548 190.859729s-.5972851 1.466063.1357466 2.316742c.7330316.850678 8.2352941 5.511312 13.2850678 1.755656 5.0497738-3.755656-6.8597285-4.235294-6.8597285-4.235294z" fill="#b78103"/><path d="m32.0995475 187.475113c.4722706-.238295 1.0479525-.091477 1.3484163.343892 1.0013099 1.140899 2.5201655 1.684814 4.0180995 1.438914 1.6470589-.389141 2.2986426-2.289593 3.1131222-2.298659.8144797-.009034 5.1764706 3.710423 5.4298643 5.303183.2533936 1.592761-1.9819005 2.769231-4.4434389 2.923077-2.4615385.153847-8.0542987-1.556561-9.1131222-2.850678-.9064306-1.464351-1.038277-3.279775-.3529412-4.859729z" fill="#7a4f01"/><path d="m18.081448 189.140271c-.0483544 1.154901.1651155 2.305782.6244344 3.366516.5677198.988756 1.4231916 1.781094 2.4524886 2.271494 2.202536 1.149697 4.7644763 1.402648 7.1493213.705882.3278873-.061621.6230758-.238093.8325792-.497738.1192183-.214986.1697488-.461322.1447964-.705882-.182873-1.31648-.8509853-2.517146-1.8733032-3.366516-1.0131225-.834466-1.8841646-1.82776-2.5791855-2.941176-1.0950226-2.217195-.280543-8.144797-4.4524887-7.167421-3.4841629.79638-2.39819 5.900452-2.2986425 8.334841z" fill="#fbb9ad"/><path d="m17.5022624 193.149321s-.597285 1.457014.1357466 2.307693c.7330317.850678 8.2171946 5.511312 13.2669684 1.764705 5.0497737-3.746606-6.841629-4.235294-6.841629-4.235294z" fill="#b78103"/><path d="m17.7918552 189.755656c.474871-.232349 1.0482741-.082264 1.3484163.352941.9961994 1.148392 2.5193581 1.693848 4.0180995 1.438914 1.6380091-.39819 2.2986426-2.289592 3.1040724-2.298659.8054299-.009033 5.1764706 3.701374 5.4298643 5.294134.2533937 1.592761-1.9819005 2.769231-4.4434389 2.923077-2.4615385.153847-8.0452489-1.547511-9.1040724-2.841629-.9110785-1.466158-1.04304-3.286549-.3529412-4.868778z" fill="#7a4f01"/><path d="m15.0859729 127.547511s-.7692308 42.868779 2.39819 57.167421l8.0633484.995475 2.199095-58.588235z" fill="#212b36"/><path d="m37.3574661 122.914027s6.4162896 23.076923 1.8099547 60.208145l-8.0633484.995475-5.0769231-59.19457z" fill="#212b36"/><path d="m49.4208145 104.443439c-.0904978 1.556561-.5882353 2.895928-1.9366516 3.348416-.1153141.038626-.2332682.068871-.3529412.090498-2.4705882.497737-5.719457-1.384615-7.9728507-3.031674-.9446626-.679402-1.8510243-1.410534-2.7149321-2.190046v-16.5882348l12.0723982 12.3257918c.6258713 1.953052.9314826 3.994536.9049774 6.045249z" fill="#fff"/><path d="m39.2488688 104.778281c0 .77828.0995475 1.556561.0995475 2.334841 0 4.271493-.9864253 8.687783.280543 12.886878.416831.891909.543436 1.892088.3619909 2.859729-.3709227.776531-1.015434 1.388817-1.8099547 1.719457-3.7737557 2.063348-8.1447964 2.714932-12.3800905 3.294117-3.2036199.452489-7.7466064 1.402715-10.7058824-.325792-1.2579185-.733031-1.6832579-2.099547-2.0904977-3.466063-1.1321698-4.416043-1.7994484-8.938372-1.9909502-13.493213 0-.597285-.0904978-1.18552-.1176471-1.809954-.2473605-4.090498-.331825-8.187029-.2533937-12.2895932.0542987-2.9773756.2895928-6.1900453 2.2352942-8.4343892 2.5791855-2.9864253 7.5746606-4.9683257 11.3755656-5.6651583 1.2286735-.2540621 2.4882706-.3242092 3.7375565-.2081448 1.7691412.2804017 3.4771296.8619748 5.0497738 1.719457 1.8823529.9049774 3.5565611 1.719457 4.5248869 3.5746606 1.0164524 2.1528439 1.7262191 4.4375007 2.1085972 6.7873303.3558136 2.2028537.4045428 4.4443981.1447964 6.6606336-.1085973 1.085973-.3891402 2.162896-.4977375 3.239819-.0424565.202555-.0666861.408506-.0723982.615385z" fill="url(#m)"/><path d="m21.7918552 129.004525c-1.239819.361991-4.0995475-.778281-5.0497738-.904977-.5701357-.099548-1.0859728-.389141-1.6561085-.515838-2.8325792-.705882-3.1674209-8.669683-3.4389141-10.814479-.7330317-5.656109-1.86425337-11.520362-1.94570133-17.1945704-.12727236-2.1900737.12688318-4.3856101.75113123-6.4886877.6434428-2.1266061 2.1984964-3.8573908 4.2443439-4.7239819 3.6199095-1.3031675 4.6968326 10.1447963 5.1945701 12.515837.4977376 2.371041.561086 6.570136 2.1266968 8.470588 1.5656109 1.900453 4.6968326 2.253394 6.7420815 1.294118 2.2476365-1.128326 3.6149534-3.4794 3.4841629-5.99095-.1236115-.851454-.1931324-1.709887-.2081448-2.570136.0018241-.881352.5133122-1.682095 1.3122172-2.054299.7528714-.1882675 1.5475766.063798 2.0542986.651584.4821953.593362.8282027 1.285376 1.0135747 2.027149.4681934 1.550494.7715308 3.146048.9049774 4.760181.3619909 3.828055-.2171946 7.755656.6968325 11.493213.4089534 1.162045.6051505 2.388277.5791856 3.61991-.4287345 2.10044-2.2725557 3.611768-4.4162896 3.619909-2.1174153-.080567-4.0612169-1.19276-5.2036199-2.977376-.1807057-.314555-.4240346-.588685-.7149322-.805429-.3246686-.163022-.687466-.234956-1.0497737-.208145-1.7285068 0-4.2081448.39819-4.7692308 2.334841-.39819 1.384616.561086 2.714933-.1900452 4.144797-.1104489.157952-.2744326.27049-.4615385.316742z" fill="#020202" opacity=".1"/><path d="m31.5837104 76.9411765c-.3008626.6002952-.8135073 1.0678013-1.438914 1.3122172-.7628636.1723261-1.4890678.4787414-2.1447964.9049773-.5316022.5760838-.8701207 1.3037404-.9683258 2.081448l-.5158371 2.4072398-.2714932 1.2126697c-.0353594.2192358-.1088697.4305779-.2171946.6244344-.3093613.3453935-.758712.5317908-1.2217194.5067873-.953775.0394087-1.8980349-.2029514-2.7149322-.6968326-.1428812-.0622346-.2607758-.1705702-.3348416-.3076923-.0716718-.1683942-.0906041-.3545616-.0542986-.5339366l.2986425-3.4660634c.1659099-.9476878.0164977-1.9236354-.4253394-2.7782805-.9972913-1.8132666-1.7374199-3.7564847-2.199095-5.7737557-.3268144-1.1339254-.139827-2.3541363.5115461-3.3381625.6513731-.9840263 1.7015767-1.6328338 2.8730693-1.7749596 1.6929607-.5198462 3.50018-.5387042 5.2036199-.0542987.6334842.2171946.8235294.6515837 1.122172 1.2217195.4434389.9049774.9049773 1.8099547 1.239819 2.7149321.3348416.9049774.7873303 2.0995475 1.1221719 3.1855204.3468085.8075818.3949276 1.7122209.1357466 2.5520362z" fill="#fbb9ad"/><path d="m57.2036199 94.39819c.1085973-.1809954.3167421-.3619909.4886878-.2533936.0701228.0699458.1201362.1574691.1447964.2533936.2021175.3538435.5789276.5716328.9864253.5701358.3891403 0 .7963801-.0633484 1.1945701-.0633484 1.0548584.0332145 2.0330919.5591825 2.642534 1.4208145.5981762.8598608.9316395 1.87598.959276 2.9230769.1065201.9410982-.1526705 1.8871432-.7239819 2.6425342-.9049774 1.058823-2.5429864 1.085973-3.9457014 1.040724h-1.2850678c-.630488.082751-1.2152894-.342921-1.3303168-.968326-.5248868-1.276018-1.4751131-2.5520363-.8235294-3.8371042.6515837-1.2850678.9140272-2.8235294 1.6923077-3.7285068z" fill="#fbb9ad"/><path d="m31.9457014 107.882353v-9.5927602c-.0005148-.7681077.4701287-1.4579059 1.1855203-1.7375566l23.7556561-9.4570136c1.2307693-.4886878 3.7375566.9773756 3.7375566 2.2986426l-1.1674208 22.1990948c.0012434.758102-.4567135 1.441459-1.1583711 1.728507l-22.6244344 10.425339c-1.239819.506788-3.7647058-.959276-3.7647058-2.289592z" fill="#00ab55"/><path d="m31.9457014 107.882353v-9.5927602c-.0178447-.7706123.4543291-1.4679766 1.1764705-1.7375566l23.7647059-9.4570136c1.2307693-.4886878 3.7375566.9773756 3.7375566 2.2986426l-1.1674208 22.1990948c-.0012158.757354-.45834 1.439469-1.1583711 1.728507l-22.6244344 10.425339c-1.2307692.506788-3.7556561-.959276-3.7556561-2.289592z" fill="#005249"/></g><path d="m33.1312132 108.443439v-9.5927603c-.0016902-.7706281.4687175-1.4636716 1.1855289-1.7466063l23.7556561-9.4479638c.5769793-.2312174 1.2310746-.1611816 1.7460213.1869514.5149466.3481329.8236768.9290214.8241144 1.5506052v22.7873298c-.0012157.757354-.4583399 1.439469-1.158371 1.728507l-23.7556561 9.864254c-.4606828.191163-.978579.190717-1.4389321-.001238-.4603531-.191956-.8251495-.55957-1.0135566-1.021387-.0962849-.226014-.1455507-.469264-.1448049-.714932z" fill="#007b55"/><g fill-rule="nonzero"><path d="m33.1312217 98.8506787 16.2895928 8.3800903 10.7692307-19.0045247s.4162896-.2443438.4162896 1.1674209v22.7873298l-27.4751131 8.542987z" fill="url(#n)"/><path d="m27.4841629 68.3438914c-.3351755.5077759-.8600464.8598632-1.4570136.9773756-1.6108597.3438914-2.5882353-.4343892-3.4027149 1.438914-.262661.6414008-.3440545 1.3426371-.2352941 2.0271493 0 .1447964.5067873 1.7466064.6334841 1.6651584-.4162896.2986425-.7420814-.5158371-1.1945701-.7511312-.4524887-.2352942-1.1221719.4524887-1.0135747 1.0407239.1888401.5775964.5258394 1.0955769.9773756 1.5022625.7234705.8980311 1.1221227 2.014257 1.1312217 3.1674208 0 .2624434-.0995475.6153846-.3710407.6245932-.2714932.008891-.5701357-.3711995-.7782805-.5159959-.3314808-.2221997-.6793938-.4188462-1.040724-.5882353-1.1040724-.5248869-2.7692308-.6877828-3.6923077-1.4298643-.475772-.3959047-.796307-.9472251-.9049774-1.556561 0-.1447964 0-1.7013575.2714932-1.6199095-.5538019-.1648051-1.0181638-.5452114-1.2887456-1.0557431-.2705818-.5105318-.3246907-1.1083722-.1501684-1.6591891.1215453-.3831995.3433922-.726906.6425339-.9954751-1.1312217-1.5746606-.6063348-3.9095022.7511313-5.2941176 1.4570228-1.3021221 3.3008505-2.0905174 5.2488687-2.2443439 2.1163137-.3336829 4.2803944-.1914719 6.3348417.4162896.7127744.1971567 1.3717406.5529365 1.9276018 1.040724.5513228.4988125.8248829 1.2350605.7330316 1.9728506-.2442505.099473-.5241402.0463294-.7149321-.1357466.2493626.6797132-.098912 1.4329581-.7782805 1.6832579-.4996589.181668-1.0595329.0461571-1.4208145-.3438914-.0181476.224683-.0894939.4418238-.2081448.6334842z" fill="#005249"/><path d="m28.5158371 78.760181-.2714932.081448c-.0813937.008328-.1577523.0433257-.2171946.0995475-.0178517.0620907-.0178517.1279545 0 .1900452-.5316022.5760838-.8701207 1.3037403-.9683258 2.081448l-.5158371 2.4072398c-.8710285-1.5387695-1.5286436-3.1888962-1.9547511-4.9049774 1.3041236.1506987 2.6203524.1658626 3.9276018.0452489z" fill="#dc9f95"/><path d="m29.8914027 107.972851c.3093688-.380057.7881731-.580408 1.2760181-.533937.2727716.137139.5331691.297617.7782806.479638.2309236.102979.4802272.15838.7330316.162896 1.0233152.073345 2.0505336-.071637 3.0135747-.425339.486006-.236934 1.016234-.369491 1.5565611-.389141.6536086.127319 1.2189221.533948 1.5475113 1.113122.983931 1.411386 1.0442259 3.269888.1538461 4.742082-.4042879.58561-.9365923 1.071492-1.556561 1.420814-1.3741812.719673-2.9012734 1.098342-4.4524887 1.104073-1.5384616.072398-3.1040724 0-4.6334842.072398-.3623077.066128-.7362567.015423-1.0678733-.144796-.3714339-.34537-.5619258-.843323-.5158371-1.348417-.0542986-1.16742-.2533937-2.153846.4253394-3.140271.8530685-1.089851 1.7686332-2.129304 2.7420814-3.113122z" fill="#fbb9ad"/><path d="m12.8959276 88.0633484s-17.00452489 22.2352946-11.62895927 30.0904976c5.37556561 7.855204 28.05429867-1.294117 28.05429867-1.294117l-2.2081448-6.506788s-15.9276018 2.0181-16.0452489.235294c-.1176471-1.782805 10.0995475-11.9909499 10.0995475-11.9909499s1.8280543-14.9411765-8.2714932-10.5339367z" fill="url(#o)"/></g></g></g></svg>