<svg height="360" viewBox="0 0 491 360" width="491" xmlns="http://www.w3.org/2000/svg" xmlns:xlink="http://www.w3.org/1999/xlink"><defs><linearGradient id="a" x1="19.495903%" x2="77.479035%" y1="70.855438%" y2="18.166083%"><stop offset="0" stop-color="#00ab55"/><stop offset="1" stop-color="#00ab55" stop-opacity="0"/></linearGradient><filter id="b" height="160.1%" width="137.5%" x="-18.8%" y="-24.1%"><feOffset dx="12" dy="12" in="SourceAlpha" result="shadowOffsetOuter1"/><feGaussianBlur in="shadowOffsetOuter1" result="shadowBlurOuter1" stdDeviation="12"/><feColorMatrix in="shadowBlurOuter1" result="shadowMatrixOuter1" type="matrix" values="0 0 0 0 0   0 0 0 0 0.321568627   0 0 0 0 0.28627451  0 0 0 0.32 0"/><feMerge><feMergeNode in="shadowMatrixOuter1"/><feMergeNode in="SourceGraphic"/></feMerge></filter><linearGradient id="c" x1=".000086%" x2="100.000086%" y1="49.999932%" y2="49.999932%"><stop offset="0" stop-color="#007b55"/><stop offset="1" stop-color="#00ab55"/></linearGradient><linearGradient id="d"><stop offset="0" stop-color="#00ab55"/><stop offset="1" stop-color="#007b55"/></linearGradient><linearGradient id="e" x1=".000393%" x2="100.00059%" xlink:href="#d" y1="49.999877%" y2="49.999877%"/><filter id="f" height="212.2%" width="229.6%" x="-64.8%" y="-56.1%"><feOffset dx="0" dy="0" in="SourceAlpha" result="shadowOffsetOuter1"/><feGaussianBlur in="shadowOffsetOuter1" result="shadowBlurOuter1" stdDeviation="12"/><feColorMatrix in="shadowBlurOuter1" result="shadowMatrixOuter1" type="matrix" values="0 0 0 0 0   0 0 0 0 0.321568627   0 0 0 0 0.28627451  0 0 0 1 0"/><feMerge><feMergeNode in="shadowMatrixOuter1"/><feMergeNode in="SourceGraphic"/></feMerge></filter><linearGradient id="g" x1="49.662212%" x2="52.227677%" xlink:href="#d" y1="34.50203%" y2="82.282002%"/><linearGradient id="h"><stop offset="0" stop-color="#ffe16a"/><stop offset="1" stop-color="#b78103"/></linearGradient><linearGradient id="i" x1="1.281429%" x2="98.718571%" xlink:href="#h" y1="0%" y2="100%"/><linearGradient id="j" x1="18.103253%" x2="81.896747%" xlink:href="#h" y1="0%" y2="100%"/><path id="k" d="m149.109555 43.0214837s-8.625757 1.350267-7.639169-1.1745994c.986587-2.5248665 5.517863-2.5467063 5.517863-2.5467063z"/><path id="l" d="m126.787418 269.723798.806173 1.037864s-.66279-.994184-1.377805-2.292226l-1.267655-2.657804c-.34279-.898279-.550742-1.743383-.463383-2.353947.310504-2.17543 4.818041-7.149198 4.818041-7.149198l-4.196083-4.040356-5.253887 7.587893c-.4273.181365-1.125223.796676-.445341 2.876202.932463 2.849614 8.029436 14.14267 10.412819 16.3181 0 0 .515608-1.419584-3.032879-9.326528z"/><path id="m" d="m97.2591098 261.952641.8061721 1.037863s-.6627893-.994184-1.3778042-2.292225l-1.2676557-2.657804c-.3427894-.898279-.5507419-1.743383-.4633828-2.354896.3105044-2.175431 4.8180415-7.149199 4.8180415-7.149199l-4.1960831-4.040356-5.2538872 7.588842c-.4272997.181365-1.1252226.796677-.4453413 2.876202.9324629 2.849614 8.0294362 14.142671 10.4128189 16.318102 0 .000949.515608-1.418636-3.0328782-9.326529z"/><path id="n" d="m94.9393472 17.5838576 1.5981009-4.0498517s-3.4848665-6.64118691.8707418-9.91335308c4.3565581-3.27216617 11.5532341-1.1537092 9.9086051 5.3535905 0 0-.349436 5.08581598-3.929258 7.28118698-3.5798219 2.1953709-5.0032047 3.7023145-5.0032047 3.7023145z"/><linearGradient id="o" x1="49.770696%" x2="51.512237%" xlink:href="#d" y1="25.546385%" y2="100.936456%"/><linearGradient id="p" x1="-.007637%" x2="99.992363%" y1="50.004823%" y2="50.004823%"><stop offset="0" stop-color="#febd9f"/><stop offset="1" stop-color="#c8facd"/></linearGradient><path id="q" d="m112 68.8465282-.932463 8.8071217s-.207003 5.0763204 6.113235 5.0763204c6.320237 0 6.113234-4.558813 6.113234-4.558813l-1.139466-9.7395846z"/><ellipse id="r" cx="117.905282" cy="60.610089" rx="9.843086" ry="13.934718"/><linearGradient id="s" x1="49.662212%" x2="52.227677%" xlink:href="#d" y1="26.080221%" y2="99.824483%"/><path id="t" d="m143.548961 36.8322849s3.885579 4.5065875 5.542552 3.1601187c1.657923-1.3474184 4.869318-5.1807716 2.797389-6.9421959s-9.065401-2.1241543-8.339941 3.7820772z"/><path id="u" d="m96.5374481 13.5330564s6.0344209-7.68000002 7.2773889-6.35916916c1.242967 1.32083086-3.519051 10.55620176-3.519051 10.55620176z"/></defs><g fill="none" fill-rule="evenodd"><path d="m0 198.780719c0 41.457158 15.2878786 79.234817 40.4451471 107.78576 28.8609774 32.764546 70.7123509 53.364261 117.3629579 53.433521 20.388139.029445 39.882871-3.886947 57.789686-11.036472 9.258735-3.698144 19.621594-3.273713 28.588978 1.107688 10.518749 5.132655 22.297511 8.010452 34.735307 8.010452 5.137889 0 10.169342-.494621 15.036306-1.433415 13.892403-2.670516 26.534468-8.989823 36.916679-17.940165 6.524763-5.627277 14.881492-8.455721 23.422062-8.44585h.145138c28.221295 0 54.435384-8.732095 76.199646-23.695759 19.457105-13.360257 35.345963-31.696339 45.932442-53.224977 9.229707-18.760513 14.425651-39.953553 14.425651-62.383695 0-76.930606-61.143989-139.3044315-136.557739-139.3044315-7.688018 0-15.220147.6624196-22.568435 1.8984244-19.457104-32.131738-54.299921-53.5517999-94.04733-53.5517999-16.781189 0-32.690473 3.81768653-46.931207 10.6612269-13.542997 6.4871059-25.584082 15.7050477-35.434121 26.938763-33.446266.5439737-64.3725043 11.6899514-89.6845867 30.2914398-39.8441679 29.263812-65.7765813 76.9909253-65.7765813 130.8892893z" fill="url(#a)" opacity=".24"/><g filter="url(#b)" transform="translate(87.222789 20.345638)"><g fill-rule="nonzero" opacity=".64" transform="translate(0 97.25816)"><path d="m219.909318 11.2436795v117.3887245c0 6.200593-5.038339 11.189554-11.248428 11.189554h-197.4399998c-6.20534124 0-11.19810088-4.988011-11.19810088-11.189554v-117.3887245c0-6.20059345 4.99275964-11.2436795 11.19810088-11.2436795h197.4399998c6.210089 0 11.248428 5.04308605 11.248428 11.2436795z" fill="url(#c)"/><path d="m0 26.335905h219.886528v24.684629h-219.886528z" fill="#c8facd"/><path d="m124.967122 49.5249852c0 42.4859347-27.9862318 78.3962018-66.5865879 90.2969728h-47.1586943c-6.20534128 0-11.19810093-4.988011-11.19810093-11.189554v-117.3887245c0-6.20059345 4.99275965-11.2436795 11.19810093-11.2436795h99.7754302c8.885935 14.4265875 13.969852 31.3694955 13.969852 49.5249852z" fill="url(#c)" opacity=".5"/><path d="m106.81543 16.2411869c0 52.2065282-42.3302074 94.4816621-94.4864092 94.4816621-4.19038579 0-8.27062317-.254481-12.30623148-.856499v-98.6226705c0-6.20059345 4.99275964-11.2436795 11.19810088-11.2436795h94.1816028c.960949 5.24344214 1.412937 10.6872404 1.412937 16.2411869z" fill="url(#c)" opacity=".25"/><g fill="#c8facd"><path d="m96.1072997 66.0254006 2.51727 5.1152522 5.6451043.8118695-4.085935 3.9843323.971395 5.6175668-5.0478343-2.6530564-5.0468843 2.6530564.9618991-5.6175668-4.0859347-3.9843323 5.6403561-.8118695z"/><path d="m115.211395 66.0254006 2.51727 5.1152522 5.645104.8118695-4.085935 3.9843323.971394 5.6175668-5.047833-2.6530564-5.046885 2.6530564.961899-5.6175668-4.075489-3.9843323 5.629911-.8118695z"/><path d="m134.316439 66.0254006 2.516321 5.1152522 5.645104.8118695-4.084986 3.9843323.970445 5.6175668-5.046884-2.6530564-5.047834 2.6530564.961899-5.6175668-4.080237-3.9843323 5.635608-.8118695z"/><path d="m153.420534 66.0254006 2.525816 5.1152522 5.635608.8118695-4.084985 3.9843323.971395 5.6175668-5.047834-2.6530564-5.051632 2.6530564.961899-5.6175668-4.076439-3.9843323 5.635608-.8118695z"/><path d="m172.520831 66.0254006 2.529614 5.1152522 5.636558.8118695-4.090683 3.9843323.971395 5.6175668-5.046884-2.6530564-5.047834 2.6530564.961899-5.6175668-4.076439-3.9843323 5.635608-.8118695z"/><path d="m191.623976 66.0254006 2.530564 5.1152522 5.63181.8118695-4.076439 3.9843323.961899 5.6175668-5.047834-2.6530564-5.046884 2.6530564.961899-5.6175668-4.07549-3.9843323 5.634659-.8118695z"/><path d="m92.952878 89.497448h104.991335v3.593116h-104.991335z"/><path d="m92.952878 97.585757h104.991335v3.58362h-104.991335z"/><path d="m59.9966766 103.747418h-34.7660535c-2.820178 0-5.1067062-2.286528-5.1067062-5.1067058v-28.0166172c0-2.8201781 2.2865282-5.1067063 5.1067062-5.1067063h34.7660535c2.820178 0 5.1067062 2.2865282 5.1067062 5.1067063v28.0166172c0 2.8201778-2.2865282 5.1067058-5.1067062 5.1067058z"/></g></g><g fill-rule="nonzero" transform="translate(33.096736 190.322346)"><path d="m69.1133531 7.17842525s19.0338279 24.28011865-30.323086 22.62409495c-.0009496 0 10.361543-47.4255193 30.323086-22.62409495z" fill="url(#c)"/><path d="m62.4892582 1.2532027c-.283917 11.899822-23.6989911 28.5493175-23.6989911 28.5493175s8.0750148-36.94433234 23.6989911-28.5493175z" fill="#007b55"/><path d="m8.46053412 7.17842525s-19.03097922 24.28011865 30.32878338 22.62409495c0 0-10.3624926-47.4255193-30.32878338-22.62409495z" fill="url(#c)"/><path d="m15.0846291 1.2532027c.2839169 11.899822 23.7046884 28.5493175 23.7046884 28.5493175s-8.0750148-36.94433234-23.7046884-28.5493175z" fill="#007b55"/><rect fill="#00ab55" height="55.72273" rx="8" width="69.996439" x="3.791573" y="35.101986"/><path d="m31.756914 35.101986h14.05911v55.72273h-14.05911z" fill="#c9eebc"/><path d="m0 29.379019h77.579585v11.446884h-77.579585z" fill="url(#c)"/><path d="m31.756914 29.379019h14.05911v11.446884h-14.05911z" fill="#007b55"/></g><g transform="translate(122.388131 151.297485)"><path d="m95.3704451 9.9056014s26.2646889 33.504095-41.8440356 31.2194659c0 0 14.3002967-65.4433235 41.8440356-31.2194659z" fill="url(#c)" fill-rule="nonzero"/><path d="m86.2300297 1.72993375c-.3921662 16.42160235-32.7036202 39.39513355-32.7036202 39.39513355s11.1439763-50.98065284 32.7036202-39.39513355z" fill="#5be584"/><path d="m11.6747774 9.9056014s-26.2608902 33.504095 41.8516321 31.2194659c0 0-14.2993472-65.4433235-41.8516321-31.2194659z" fill="url(#c)" fill-rule="nonzero"/><path d="m20.8161424 1.72993375c.3921662 16.42160235 32.7112167 39.39513355 32.7112167 39.39513355s-11.1439763-50.98065284-32.7112167-39.39513355z" fill="#5be584"/><g fill-rule="nonzero"><rect fill="url(#e)" height="76.893056" rx="8" width="96.588724" x="5.232047" y="48.438539"/><path d="m43.821959 48.438539h19.401306v76.893056h-19.401306z" fill="#c9eebc"/><path d="m0 40.540142h107.053769v15.795846h-107.053769z" fill="#00ab55"/><path d="m43.821959 40.540142h19.401306v15.795846h-19.401306z" fill="url(#c)"/></g></g><g filter="url(#f)" transform="translate(101.557876 203.143295)"><path d="m62.5485929 6.47189832s17.1603561 21.89008898-27.338635 20.39643918c0 0 9.3426706-42.7565579 27.338635-20.39643918z" fill="#005249"/><path d="m56.5768422 1.13065202c-.2563799 10.72902078-21.3668843 25.73863498-21.3668843 25.73863498s7.2811869-33.30848661 21.3668843-25.73863498z" fill="#00ab55"/><path d="m7.86657511 6.47189832s-17.15750742 21.89008898 27.34338279 20.39643918c0 0-9.3426706-42.7565579-27.34338279-20.39643918z" fill="#005249"/><path d="m13.8383259 1.13065202c.2563798 10.72902078 21.371632 25.73863498 21.371632 25.73863498s-7.2802374-33.30848661-21.371632-25.73863498z" fill="#00ab55"/><g fill-rule="nonzero"><rect fill="url(#g)" height="50.238101" rx="8" width="63.105519" x="3.657198" y="31.647447"/><path d="m28.86978 31.647447h12.675608v50.238101h-12.675608z" fill="#22418a" opacity=".25"/><path d="m.238801 26.487566h69.943264v10.319763h-69.943264z" fill="#007b55"/></g><path d="m28.86978 26.487566h12.675608v10.319763h-12.675608z" fill="#005249"/></g><g transform="translate(137.478457)"><path d="m58.4489021 119.122611-58.4489021-52.7914537 67.5351929-66.3311573 50.0510381 45.2073591z" fill="url(#i)"/><g fill-rule="nonzero"><path d="m58.4489021 119.122611-24.6020178-22.5994063 83.7393467-51.3158456z" fill="#fff" opacity=".24"/><path d="m96.9191691 44.0308605c-1.488902 1.6484273-4.03181 1.7775668-5.6802373.2886647s-1.7775668-4.0318101-.2886647-5.6802374c1.488902-1.6484273 4.0318101-1.7775667 5.6811869-.2886647 1.6465282 1.4889021 1.7756677 4.0318101.2877151 5.6802374z" fill="#c9eebc"/><path d="m95.584095 42.8258754c-.8232641.9115727-2.2295549.9827893-3.1411276.1595252s-.9827894-2.2295549-.1595253-3.1411276 2.2295549-.9827893 3.1411276-.1595252.9827894 2.2295549.1595253 3.1411276z" fill="#1f9fde"/><path d="m75.7080119 25.1100297c-1.4889021 1.6484273-4.0318101 1.7775667-5.6802374.2886647-1.6484273-1.4889021-1.7775668-4.0318101-.2886647-5.6802374s4.0318101-1.7775668 5.6802374-.2886647c1.6484273 1.4879525 1.7775667 4.0318101.2886647 5.6802374z" fill="#c9eebc"/><path d="m74.3738872 23.9050445c-.8232641.9115727-2.2295549.9827893-3.1411276.1595252s-.9827893-2.2295549-.1595252-3.1411276 2.2295549-.9827893 3.1411276-.1595252.9827893 2.2295549.1595252 3.1411276z" fill="#1f9fde"/><path d="m65.487003 52.0517507c-6.4218398-5.8008308-6.9279526-15.7445697-1.1271217-22.1664095.3513353-.3883679.9505045-.4187537 1.3388724-.0683679.388368.3513353.4187537.9505044.068368 1.3388724-5.1000594 5.6460534-4.6547181 14.3886053.9913353 19.4886647 5.6460534 5.1000593 14.3886053 4.6556676 19.4886647-.9913353.3513353-.388368.9505044-.4187537 1.3388724-.068368.3883679.3503858.4187537.9505045.0683679 1.3388724-5.8017804 6.4227893-15.7455193 6.9279525-22.167359 1.1280712z" fill="#c9eebc"/><path d="m93.8530564 41.392997c-.388368-.3503857-.4187537-.9505044-.068368-1.3388724l10.0272996-11.1021958c4.919644-5.4466469 4.490445-13.8805935-.956202-18.8002374-5.4466465-4.91964392-13.8805931-4.49044511-18.800237.9562018l-10.0272997 11.1021958c-.3513354.388368-.9505045.4187537-1.3388724.068368-.388368-.3513353-.4187538-.9505045-.068368-1.3388724l10.0272997-11.10219588c5.6204154-6.22243323 15.255549-6.71240356 21.4779824-1.09198813 6.222433 5.62041541 6.712403 15.25554901 1.091988 21.47798221l-10.0272998 11.1021958c-.3503857.388368-.9495549.4187537-1.3379228.0674184z" fill="#b78103"/></g><path d="m79.9591691 99.995727-38.4778635-32.2060534 32.5023146-57.625638 39.2470028 14.8890208z" fill="url(#j)"/><g fill-rule="nonzero"><path d="m79.9591691 99.995727-18.3567952-15.645816 51.6282491-59.2968546z" fill="#000" opacity=".12"/><path d="m97.6132938 30.3734125c-.8204155 1.6132937-2.5960831 2.4204154-3.9501484 1.8117507-1.3360237-.6020178-1.7566766-2.3605935-.9552522-3.935905.8014243-1.5753116 2.5362611-2.4004748 3.8912759-1.8364392 1.3730564.5706825 1.8345401 2.3472997 1.0141247 3.9605935z" fill="#b78103"/><path d="m96.4966172 29.890089c-.4510386.8878338-1.4281306 1.3360238-2.1763798 1.0046291-.7435015-.3294955-.9808902-1.3037389-.535549-2.180178.4453413-.8754897 1.410089-1.3303265 2.1592879-1.0122256.7539465.32 1.0036795 1.3008902.5526409 2.1877745z" fill="#7a4f01"/><path d="m81.1935905 23.4046291c-.7558457 1.4870029-2.3131157 2.2665875-3.4639763 1.747181-1.1375667-.5127597-1.4490207-2.1032641-.7093175-3.5579822.7397033-1.4547181 2.2646885-2.248546 3.4183977-1.7671217 1.1670029.4871217 1.5107418 2.0918695.7548961 3.5779229z" fill="#b78103"/><path d="m80.2449852 22.9934718c-.4159051.8185163-1.2733532 1.2515134-1.9095549.968546-.6324036-.2801187-.8090208-1.1622552-.3978635-1.9703264.4111572-.8080712 1.2581602-1.245816 1.8953115-.9751929.6418991.2734718.8280119 1.158457.4121069 1.9769733z" fill="#7a4f01"/><path d="m77.5026706 44.3897923c-4.5246291-2.5039763-5.6849851-9.1005341-2.7812463-14.8111573.1756677-.345638.5327003-.5232047.7985757-.3959644.2668249.1272404.3399407.5127597.1633234.8602968-2.5666468 5.0468842-1.5211869 10.8600593 2.4830861 13.0402373 4.1799406 2.2770327 9.9779228-.2364391 12.7534718-5.6944807.1908605-.3750741.6001187-.5583382.9144214-.4083086.3152522.1509793.415905.5792285.2240949.9571514-3.174362 6.2433234-9.8041543 9.0824925-14.555727 6.4522255z" fill="#b78103"/><path d="m95.08273 29.3630861c-.3190505-.1386351-.4216024-.5535906-.2307419-.9277152l5.4447479-10.7052819c2.671098-5.2519881 1.104332-10.70623143-3.3205936-12.10302669-4.2445104-1.33982195-9.5867062 1.57151336-12.0640949 6.44178039l-5.0487834 9.9266469c-.1766172.3475371-.5412463.5327003-.812819.4149555-.2706231-.1177448-.3475371-.492819-.1718694-.838457l5.0231454-9.8763204c2.8154302-5.53495553 8.8887834-8.87169144 13.7391098-7.37614248 5.0858161 1.56866469 6.9137091 7.81198818 3.8447481 13.84545998l-5.4751339 10.7651038c-.1927596.3788724-.6077151.5716321-.9277151.4329971z" fill="#b78103"/><path d="m113.230623 25.0530564-15.3903856 76.1656976-8.3218991-2.0671813-9.5591692.8441543z" fill="#7a4f01"/><path d="m89.5183383 99.1515727 23.5318697-73.0378635-15.2099706 75.1050448z" fill="#b78103"/></g><use fill="#fff" xlink:href="#k"/><use fill="#ba8b72" fill-opacity=".8" xlink:href="#k"/><path d="m120.599169 260.426706s-1.242967-1.166053-1.787062-.932463c-.544095.232641-3.729852.232641-4.740178 5.362137-1.010327 5.128546-1.242968 4.196083-1.242968 4.196083l1.320831 1.709199 1.709199-.932463s7.071335 10.412819 12.355608 12.743976 2.953116-3.26362 2.953116-3.26362-1.864926-6.061009-4.196083-9.635134c-2.331157-3.575074-6.372463-9.247715-6.372463-9.247715z" fill="#7a4f01" fill-rule="nonzero"/><use fill="#fff" xlink:href="#l"/><use fill="#ba8b72" fill-opacity=".5" xlink:href="#l"/><path d="m91.0708605 252.656499s-1.2429673-1.165104-1.7870623-.932463c-.5440949.23359-3.7298516.23359-4.740178 5.362136s-1.2429674 4.196083-1.2429674 4.196083l1.3208309 1.709199 1.7091988-.932463s7.0713353 10.412819 12.3556083 12.743976c5.2842732 2.331158 2.9531162-3.26362 2.9531162-3.26362s-1.8649263-6.061009-4.1960836-9.635133c-2.3311572-3.575075-6.3724629-9.247715-6.3724629-9.247715z" fill="#7a4f01" fill-rule="nonzero"/><use fill="#fff" xlink:href="#m"/><use fill="#ba8b72" fill-opacity=".5" xlink:href="#m"/><path d="m91.9169139 143.203205c.5649852-2.26184 41.9608311 0 41.9608311 0s25.64273 27.973887 23.311573 56.414006c-2.331158 28.440118-26.108962 59.211394-26.108962 59.211394l-6.061009-5.594777s12.122018-40.562137 10.257092-48.488071c-1.864926-7.925935-9.324629-30.616499-9.324629-30.616499s5.128546 31.548962 1.398694 40.873591c-3.729851 9.324629-26.108961 37.298516-26.108961 37.298516l-7.9259347-7.303976s16.0075967-28.595846 16.4738277-36.988012c.466232-8.392166-14.6089019-25.64273-16.4738277-35.899822s-6.0610089-10.257092-1.3986944-28.90635z" fill="#005249"/><path d="m151.059941 46.7266469-2.486885-3.5741246s-7.459703-.7767359-7.770207-6.2167359c-.310505-5.4390505 5.43905-10.257092 9.946587-5.284273 0 0 4.040356 3.1078931 3.885579 7.3039762-.155727 4.1960831.310504 6.2167359.310504 6.2167359z" fill="#ba8b72"/><use fill="#fff" xlink:href="#n"/><use fill="#ba8b72" xlink:href="#n"/><path d="m84.8550742 81.3825519s7.4597032 10.257092 6.5272403 20.5141841c-.9324629 10.257092-6.2167359 34.811632-2.4868842 39.7854 3.7298516 4.972819 17.7167957.621959 28.2843917 1.554422s18.338754 4.35181 23.622077.932463c5.284273-3.419347-4.35181-10.879051-2.17543-28.595846 2.17543-17.7167952 4.35181-29.99454 20.203679-32.7919287 15.85187-2.7973887 21.912879-10.7233235 16.318101-16.7843324-5.594777-6.0610089-19.581721-23.3115727-19.581721-23.3115727l-7.459703 3.2636202s12.588249 20.0479525 9.79086 22.8453413c-2.797388 2.7973887-24.244035 2.7973887-32.16997 5.128546-7.925935 2.3311572-18.183027 1.3986943-23.311573 0-5.490326-1.4974481-17.2505634-16.3181009-14.9194061-26.5751929s15.3856381-27.9738873 15.3856381-27.9738873l-9.7908606-6.0610089s-29.8388131 28.9063502-24.2440357 39.6296736c5.5947775 10.724273 16.0075965 28.4401187 16.0075965 28.4401187z" fill="url(#o)" fill-rule="nonzero"/><path d="m116.040356 72.1623739s-12.640475 3.3158457-14.090445-5.8017804-2.9008902-28.1808902 14.712404-29.6318101c17.613293-1.4509199 18.649258 31.0817804 15.541365 33.1546587-3.108843 2.0709793-16.163324 2.2789318-16.163324 2.2789318z" fill="#b72136" fill-rule="nonzero"/><ellipse cx="108.141009" cy="57.682611" fill="url(#p)" fill-rule="nonzero" rx="1.864926" ry="2.953116"/><use fill="#fff" xlink:href="#q"/><use fill="#ba8b72" fill-opacity=".8" xlink:href="#q"/><use fill="#fff" xlink:href="#r"/><use fill="#ba8b72" fill-opacity=".5" xlink:href="#r"/><path d="m106.715727 51.4402374s1.761424 4.6623145 3.62635 4.6623145 6.734243-.7254599 9.221128-1.1394658c.207003-.414006.518457-2.2789318.207003-4.0403561 0 0 .621958 4.2483086 1.347418 4.2483086s7.563205.1035015 7.563205.1035015 3.936854-4.4553116-1.139466-8.7026707c-5.07727-4.2483086-21.136142-5.1807715-20.825638 4.868368z" fill="#b72136" fill-rule="nonzero"/><path d="m108.141009 54.7304451s9.039763-10.412819 18.674896-5.0506825c0 0-3.107893-3.5741246-8.547893-3.8855786-5.439051-.3105045-10.257092 4.895905-11.267419 8.6257567 0-.0009496-.284866.6988724 1.140416.3105044z" fill="#ffc107" fill-rule="nonzero"/><path d="m221.101958 88.3570326-43.502908 20.4410684-36.956676-51.4820179 28.765816-28.0944807z" fill="url(#s)" fill-rule="nonzero"/><path d="m221.101958 88.3570326-20.998457 9.6389318-30.695311-68.774362z" fill="#000" fill-rule="nonzero" opacity=".12"/><path d="m29.144568 20.7261601c4.142908 5.275727 3.9359051 12.1808902-.2658754 15.2489021-4.0004747 2.9208308-10.2001186 1.2686053-13.9907418-3.5579822-.2288427-.2915134-.2392878-.674184-.0208902-.8536499.2183976-.1804154.5830267-.0892581.812819.2041543 3.3500297 4.2663502 8.8223145 5.7020772 12.3318694 3.1031454 3.6643324-2.7138279 3.8191098-8.7643917.1965579-13.3773294-.2487834-.3171513-.2430861-.7463501.0142433-.9590504.2582789-.2136498.6713353-.1281899.9220178.1918101zm-13.3754302-16.16617211 5.6809776 7.23499151c1.043138-.5143677 2.4446576-.1156682 3.3616336 1.0527236 1.071098 1.3635609 1.0559051 3.2322849-.0199406 4.1618991-1.0616024.9182196-2.7594066.5744807-3.8048665-.7577448-.8875149-1.1301506-1.0339157-2.6270946-.4235174-3.6351199l-5.6536339-7.200251c-3.4858161-4.43916914-8.85649854-5.27762611-11.85519291-1.99691394-2.87620178 3.14682492-2.50112759 8.96379824.73115727 13.08011874l5.30768588 6.7594712c.90548496-.4565458 2.18065086-.0512921 3.04080076 1.0439709.9865875 1.2572107 1.0359644 2.9236795.1205935 3.7146587-.9049258.7814837-2.41281901.4111573-3.37756678-.8185163-.80527-1.0253929-.9905472-2.3393236-.51784148-3.2161255l-5.30387959-6.7551504c-3.6738279-4.678457-4.12296736-11.30160242-.86694362-14.91181013 3.4145994-3.78587537 9.57531157-2.85626113 13.58053417 2.24379822z" fill="#c9eebc" fill-rule="nonzero" transform="translate(142.919527 32.089033)"/><path d="m166.860534 45.7125223c.588724.7501483.584926 1.7794658-.004748 2.2969732-.585875.5127597-1.528783.3266469-2.109911-.4140059-.581127-.7406528-.586825-1.7614243-.008546-2.2846291.582078-.5270029 1.534481-.3484866 2.123205.4016618z" fill="#005249" fill-rule="nonzero"/><path d="m154.314065 57.0502077c.543146.691276.573531 1.6104451.071217 2.050089-.498516.4367953-1.336024.2345401-1.872522-.4491394-.536499-.6836796-.574481-1.5952523-.082612-2.0405935.495668-.4472404 1.340772-.251632 1.883917.4396439z" fill="#005249" fill-rule="nonzero"/><path d="m169.40819 29.2216024 59.969139 44.0935311-5.153234 6.3962018-3.122137 8.6456973z" fill="#005249"/><path d="m224.224095 79.7113353-53.967003-49.9048071 59.120237 43.5086053z" fill="#fff" fill-rule="nonzero" opacity=".12"/><use fill="#fff" xlink:href="#t"/><use fill="#ba8b72" fill-opacity=".8" xlink:href="#t"/><path d="m142.667774 36.5208309s4.455312 3.5228486 6.113235 2.1754302c1.657923-1.3464688 4.869317-5.1807715 2.797389-6.9412463-2.072879-1.7614243-9.636083-1.1394658-8.910624 4.7658161z" fill="#ba8b72"/><path d="m84.0564985 11.1078932c4.9196439-5.44664691 13.3535905-5.87584572 18.8002375-.9562018 3.60546 3.2560237 5.009852 8.0522255 4.122018 12.5018398.612463.1937092 1.205934.4491394 1.773768.7624925 1.177448-5.1921661-.401661-10.8562611-4.625282-14.67157266-6.2224329-5.62041543-15.8575664-5.13044511-21.4779818 1.09198813l-1.1147775 1.23347183c.5678338.2991098 1.1081306.6504451 1.6151929 1.0397626z" fill="#b78103" fill-rule="nonzero"/><path d="m84.3508605 13.1731751.561187-1.1033828c2.4773887-4.87026708 7.8195845-7.78255194 12.0640949-6.44178043 4.4249256 1.39679525 5.9916916 6.85103853 3.3205936 12.10302673l.216498.1547774c.38457.1747181.57638.354184.932463.569733l.039882-.2877152c3.068961-6.0334718 1.241068-12.27679522-3.8447481-13.84545991-4.8503264-1.49649852-10.9236796 1.84023739-13.7391098 7.37614241l-.3665282.7207122c.1585756.1319881.3143026.2658754.4643323.4035608.1205935.1101484.2373887.2278932.3513353.3503858z" fill="#b78103" fill-rule="nonzero"/><use fill="#fff" xlink:href="#u"/><use fill="#ba8b72" xlink:href="#u"/></g></g></g></svg>